<svg width="24" height="24" viewBox="0 0 24 24" fill="none" xmlns="http://www.w3.org/2000/svg">
<path d="M16.3168 13.6654C15.8466 13.5643 15.4746 13.7826 15.1453 13.9732C14.808 14.1697 14.1666 14.69 13.799 14.5568C11.9168 13.7819 10.1465 12.1344 9.38017 10.2447C9.24511 9.86918 9.76297 9.22374 9.95798 8.88246C10.1472 8.5521 10.361 8.17662 10.2635 7.70291C10.1754 7.27722 9.03565 5.82697 8.63263 5.43039C8.36684 5.16843 8.09454 5.02435 7.81503 5.00106C6.76414 4.95595 5.59046 6.35817 5.38462 6.69363C4.86892 7.40893 4.87181 8.36072 5.39328 9.51481C6.65002 12.6147 11.4032 17.2929 14.5147 18.5969C15.0889 18.8654 15.614 19 16.0857 19C16.5472 19 16.9581 18.8712 17.3113 18.6158C17.5778 18.4623 19.0375 17.2303 18.9993 16.1512C18.9761 15.8761 18.8324 15.601 18.5738 15.3347C18.1802 14.928 16.7393 13.7542 16.3168 13.6654Z" fill="#FFDD00"/>
</svg>
