<svg width="24" height="19" viewBox="0 0 24 19" fill="none" xmlns="http://www.w3.org/2000/svg">
<path d="M23.0391 16.8086L2.01562 0.390625C1.91016 0.320312 1.76953 0.25 1.66406 0.25C1.48828 0.25 1.3125 0.355469 1.20703 0.460938L0.855469 0.917969C0.785156 0.988281 0.714844 1.16406 0.714844 1.26953C0.714844 1.41016 0.820312 1.62109 0.960938 1.69141L21.9844 18.1445C22.0547 18.2148 22.1953 18.25 22.3359 18.25C22.4766 18.25 22.6523 18.1797 22.7578 18.0391L23.1094 17.6172C23.1797 17.5469 23.25 17.3711 23.25 17.2656C23.25 17.125 23.1445 16.9141 23.0391 16.8086ZM11.1562 5.41797L15.9023 9.10938C15.832 7 14.1094 5.3125 12 5.3125C11.7539 5.34766 11.4023 5.38281 11.1562 5.41797ZM12.8086 13.1172L8.0625 9.42578C8.13281 11.5352 9.85547 13.1875 12 13.1875C12.2109 13.1875 12.5625 13.1523 12.8086 13.1172ZM12 4.1875C15.4453 4.1875 18.6445 6.12109 20.332 9.25C19.9805 9.91797 19.3125 10.8672 18.7852 11.3945L20.1211 12.4141C20.7539 11.7461 21.5625 10.5859 21.9844 9.77734C22.0547 9.63672 22.125 9.42578 22.125 9.25C22.125 9.10938 22.0547 8.89844 21.9844 8.75781C20.0859 5.03125 16.2891 2.5 12 2.5C10.6992 2.5 9.46875 2.74609 8.30859 3.16797L9.92578 4.46875C10.5938 4.29297 11.2969 4.1875 12 4.1875ZM12 14.3125C8.51953 14.3125 5.32031 12.3789 3.63281 9.25C3.98438 8.61719 4.65234 7.66797 5.17969 7.14062L3.84375 6.12109C3.21094 6.78906 2.40234 7.94922 1.98047 8.75781C1.91016 8.89844 1.875 9.10938 1.875 9.28516C1.875 9.42578 1.91016 9.63672 1.98047 9.77734C3.87891 13.5039 7.67578 16 12 16C13.2656 16 14.4961 15.7539 15.6562 15.3672L14.0391 14.0664C13.3711 14.2422 12.668 14.3125 12 14.3125Z" fill="white"/>
</svg>
