<svg width="22" height="14" viewBox="0 0 22 14" fill="none" xmlns="http://www.w3.org/2000/svg">
<path d="M11 3.3125C10.6836 3.34766 10.1914 3.41797 9.875 3.48828C10.0156 3.73438 10.1211 4.19141 10.1562 4.4375C10.1562 5.52734 9.24219 6.40625 8.1875 6.40625C7.90625 6.40625 7.44922 6.30078 7.23828 6.16016C7.13281 6.47656 7.0625 6.93359 7.0625 7.25C7.0625 9.42969 8.82031 11.1875 11 11.1875C13.1797 11.1875 14.9375 9.42969 14.9375 7.25C14.9375 5.10547 13.1797 3.3125 11 3.3125ZM20.9844 6.75781C19.0859 3.03125 15.2891 0.5 11 0.5C6.67578 0.5 2.87891 3.03125 0.980469 6.75781C0.910156 6.89844 0.875 7.10938 0.875 7.28516C0.875 7.42578 0.910156 7.63672 0.980469 7.77734C2.87891 11.5039 6.67578 14 11 14C15.2891 14 19.0859 11.5039 20.9844 7.77734C21.0547 7.63672 21.0898 7.42578 21.0898 7.25C21.0898 7.10938 21.0547 6.89844 20.9844 6.75781ZM11 12.3125C7.51953 12.3125 4.32031 10.3789 2.63281 7.25C4.32031 4.12109 7.51953 2.1875 11 2.1875C14.4453 2.1875 17.6445 4.12109 19.332 7.25C17.6445 10.3789 14.4453 12.3125 11 12.3125Z" fill="white"/>
</svg>
