<svg width="10" height="10" viewBox="0 0 10 10" fill="none" xmlns="http://www.w3.org/2000/svg">
<path d="M9.67578 4.99609C9.8125 4.85938 9.8125 4.66797 9.67578 4.53125L5.68359 0.484375C5.54688 0.347656 5.32812 0.347656 5.21875 0.484375L4.67188 1.03125C4.53516 1.14062 4.53516 1.35938 4.67188 1.49609L7.89844 4.75L4.67188 8.03125C4.53516 8.16797 4.53516 8.35938 4.67188 8.49609L5.21875 9.04297C5.32812 9.17969 5.54688 9.17969 5.68359 9.04297L9.67578 4.99609ZM5.30078 4.53125L1.30859 0.484375C1.17188 0.347656 0.953125 0.347656 0.84375 0.484375L0.296875 1.03125C0.160156 1.14062 0.160156 1.35938 0.296875 1.49609L3.52344 4.75L0.296875 8.03125C0.160156 8.16797 0.160156 8.35938 0.296875 8.49609L0.84375 9.04297C0.953125 9.17969 1.17188 9.17969 1.30859 9.04297L5.30078 4.99609C5.4375 4.85938 5.4375 4.66797 5.30078 4.53125Z" fill="#A0A4A8"/>
</svg>
