<svg width="166" height="94" viewBox="0 0 166 94" fill="none" xmlns="http://www.w3.org/2000/svg">
<g filter="url(#filter0_d)">
<path d="M65.3956 63.1996H58.3064V58.4909C58.3064 57.7775 57.7277 57.1592 56.9561 57.1592H56.5703C55.8469 57.1592 55.22 57.7299 55.22 58.4909V67.0522H52.9534C52.1818 67.0522 51.5548 66.4339 51.5548 65.6729V62.724C51.5548 61.0117 50.1563 59.6324 48.4202 59.6324H44.8515C44.3692 59.6324 43.9834 60.0129 43.9834 60.4886C43.9834 60.9642 44.3692 61.3447 44.8515 61.3447H48.3719C49.1435 61.3447 49.7705 61.963 49.7705 62.724V65.6729C49.7705 67.3851 51.169 68.7645 52.9051 68.7645H55.22V75.4232H52.0371C50.9761 75.4232 50.1563 76.2793 50.1563 77.2782V78.705C50.1563 78.8477 50.2527 78.9904 50.4456 78.9904H63.129C63.2736 78.9904 63.4183 78.8953 63.4183 78.705V77.2782C63.4183 76.2318 62.5503 75.4232 61.5375 75.4232H58.3064V66.1961L64.7686 65.2924C65.3473 65.1973 65.7814 64.8168 65.7814 64.3411V63.485C65.7814 63.3423 65.5885 63.1996 65.3956 63.1996Z" fill="white"/>
<path d="M146.849 36.6126L142.316 36.5175C140.435 36.5175 138.699 37.2785 137.541 38.6103C135.998 34.7577 134.455 30.9051 132.912 27.0525C131.513 23.5329 128.571 20.8694 124.906 19.7279C119.167 18.0157 112.271 16.3985 104.362 15.59C104.169 15.59 104.024 15.5424 103.832 15.5424C95.6814 14.7338 88.4476 14.9241 82.3712 15.4948C78.5613 15.8753 75.1373 17.9205 73.0154 21.0597L66.1674 31.4759C65.2993 30.0014 63.7561 28.8599 61.9235 28.527L57.4868 27.7184C55.1719 27.2904 52.9535 28.7648 52.5195 31.0478C52.0373 33.3308 53.5805 35.5187 55.8953 35.9467L62.6469 37.2309C61.2483 39.8469 60.3803 42.7482 60.0909 45.7446L58.8853 57.445C58.6442 59.8707 60.3321 62.0586 62.7916 62.4391C74.221 64.1038 86.181 65.6258 98.6232 66.8624C98.7197 66.8624 98.8161 66.8624 98.8643 66.91C111.21 68.1466 123.17 69.0027 134.6 69.621C137.059 69.7637 139.181 67.9564 139.422 65.5307L140.628 53.8303C140.917 50.8338 140.676 47.8374 139.856 44.9836L146.704 45.0788C149.067 45.1263 150.996 43.2714 150.996 40.9408C151.093 38.5151 149.212 36.6126 146.849 36.6126ZM76.6805 23.3902C78.0791 21.2975 80.2975 19.9657 82.8052 19.7279C89.6532 19.062 96.5977 19.1096 103.446 19.7755C103.639 19.7755 103.783 19.823 103.976 19.823C110.631 20.5365 117.287 21.8682 123.701 23.8183C126.112 24.5317 128.041 26.2915 128.957 28.6221C128.957 28.6221 131.995 36.0894 132.863 38.2297C122.688 36.2797 115.502 34.9479 103.349 33.7589C91.6305 32.6174 80.6833 32.1417 70.6523 32.0466L76.6805 23.3902ZM80.9244 50.6436C80.8762 50.8814 80.828 51.1192 80.7315 51.4046C80.4904 52.1656 79.767 52.7363 78.9472 52.8315C78.8989 52.8315 78.8989 52.8315 78.8507 52.8315C77.3075 52.9741 75.4749 52.9741 73.4012 52.7363C72.4367 52.5936 71.5204 52.451 70.6523 52.2607C68.9644 51.8802 67.4212 51.1192 66.0709 50.0253C65.2511 49.3594 64.8653 48.3606 64.9617 47.3618L65.2993 44.0799C65.3958 43.3665 65.9262 42.7958 66.6014 42.7482C66.6496 42.7482 66.7461 42.7482 66.7943 42.7482C67.7106 42.7482 68.6269 42.7482 69.4949 42.7482C70.5077 42.7482 71.5204 43.0811 72.3885 43.6519C72.8707 43.9848 73.4494 44.3653 74.0281 44.7934C75.8125 45.9825 76.4876 46.4581 77.838 47.3618C78.4167 47.7898 79.2365 48.3606 80.201 49.074C80.7797 49.407 81.0691 50.0253 80.9244 50.6436ZM112.512 63.1525L112.319 64.8172C112.223 65.6258 111.499 66.2441 110.631 66.149L86.5186 63.7709C85.6987 63.6757 85.0718 62.9623 85.1683 62.1062L85.3612 60.4415C85.4576 59.6329 86.181 59.0146 87.0491 59.1097L111.162 61.4879C111.982 61.583 112.609 62.2964 112.512 63.1525ZM134.648 50.9765L134.31 54.2583C134.214 55.2572 133.587 56.1608 132.67 56.6365C131.127 57.445 129.439 57.8731 127.703 57.9207C126.835 57.9682 125.919 57.9207 124.906 57.8731C122.832 57.7304 121.048 57.3499 119.553 56.9218C119.505 56.9218 119.505 56.9218 119.457 56.8743C118.685 56.5889 118.106 55.923 118.01 55.1145C117.962 54.8291 117.962 54.5913 117.962 54.3535C117.962 53.7352 118.347 53.1644 118.926 52.879C119.987 52.3558 120.903 51.9278 121.579 51.6424C123.025 51.0241 123.845 50.6911 125.822 49.8826C126.498 49.5972 127.125 49.3118 127.703 49.074C128.668 48.646 129.729 48.5508 130.741 48.7411C131.61 48.9313 132.526 49.1216 133.394 49.2643C133.442 49.2643 133.539 49.3118 133.587 49.3118C134.31 49.5972 134.744 50.2631 134.648 50.9765Z" fill="white"/>
<path d="M44.5141 71.2852H15V74.1865H44.5141V71.2852Z" fill="white"/>
<path d="M40.8972 66.5762H37.9072C37.8107 66.5762 37.7143 66.6713 37.7143 66.7664C37.7143 66.8615 37.6178 66.9567 37.5214 66.9567H21.9927C21.8963 66.9567 21.7998 66.8615 21.7998 66.7664C21.7998 66.6713 21.7034 66.5762 21.6069 66.5762H18.6169C16.6397 66.5762 15 67.8128 15 69.2872V70.7141H44.5141V69.2872C44.5141 67.8128 42.8744 66.5762 40.8972 66.5762Z" fill="white"/>
<path d="M15 76.2795C15 77.754 16.6397 78.9906 18.6169 78.9906H21.6069C21.7034 78.9906 21.7998 78.8955 21.7998 78.8003C21.7998 78.7052 21.8963 78.6101 21.9927 78.6101H37.5696C37.666 78.6101 37.7625 78.7052 37.7625 78.8003C37.7625 78.8955 37.8589 78.9906 37.9554 78.9906H40.9454C42.9226 78.9906 44.5623 77.8015 44.5623 76.2795V74.71H15V76.2795Z" fill="white"/>
<path d="M127.028 78.8006L130.597 78.9433L130.886 71.6187C129.633 71.5711 128.475 71.476 127.318 71.3809L127.028 78.8006Z" fill="white"/>
<path d="M131.61 71.619L131.321 78.9436L133.105 78.9912C135.275 79.1339 137.108 77.4692 137.204 75.3764L137.494 70.9531C136.577 71.4288 135.516 71.7141 134.407 71.7141C133.394 71.6666 132.478 71.6666 131.61 71.619Z" fill="white"/>
<path d="M121.097 74.6616C120.952 76.8019 122.64 78.6093 124.762 78.7045L126.353 78.752L126.642 71.3323C125.051 71.2371 123.363 71.0944 121.289 71.0469L121.097 74.6616Z" fill="white"/>
</g>
<defs>
<filter id="filter0_d" x="0" y="0" width="166" height="93.9997" filterUnits="userSpaceOnUse" color-interpolation-filters="sRGB">
<feFlood flood-opacity="0" result="BackgroundImageFix"/>
<feColorMatrix in="SourceAlpha" type="matrix" values="0 0 0 0 0 0 0 0 0 0 0 0 0 0 0 0 0 0 127 0" result="hardAlpha"/>
<feOffset/>
<feGaussianBlur stdDeviation="7.5"/>
<feComposite in2="hardAlpha" operator="out"/>
<feColorMatrix type="matrix" values="0 0 0 0 1 0 0 0 0 0.866667 0 0 0 0 0 0 0 0 0.5 0"/>
<feBlend mode="normal" in2="BackgroundImageFix" result="effect1_dropShadow"/>
<feBlend mode="normal" in="SourceGraphic" in2="effect1_dropShadow" result="shape"/>
</filter>
</defs>
</svg>
