<svg width="124" height="110" viewBox="0 0 124 110" fill="none" xmlns="http://www.w3.org/2000/svg">
<g filter="url(#filter0_d)">
<path d="M46.7407 53.0006C48.0593 53.0006 49.1581 51.9301 49.1581 50.5763V48.3095C45.9872 48.2151 42.8162 48.1206 39.6767 47.9632C38.986 47.9317 38.3581 47.7113 37.793 47.3965V50.6078C37.793 51.9301 38.8604 53.0321 40.2104 53.0321H46.7407V53.0006Z" fill="white"/>
<path d="M74.9023 48.3097V50.5766C74.9023 51.8989 75.9698 53.0008 77.3198 53.0008H83.8814C85.2001 53.0008 86.2989 51.9304 86.2989 50.5766V47.3652C85.7338 47.7116 85.1059 47.9005 84.4152 47.9319C81.2442 48.0894 78.0733 48.2153 74.9023 48.3097Z" fill="white"/>
<path d="M87.0524 43.9649V36.5978C87.0524 34.7087 86.7071 32.8512 86.0164 31.1196L90.2548 30.7418C91.699 30.6159 92.7664 29.325 92.6408 27.8768C92.5152 26.4286 91.228 25.3581 89.7838 25.484L86.9583 25.7359C85.7966 25.8304 84.792 26.46 84.1641 27.3416L80.6164 20.4152C79.5489 18.3058 77.5396 16.7946 75.2164 16.3538C71.5431 15.5667 67.0849 15 62.0303 15C61.9047 15 61.8105 15 61.6849 15C56.7872 15.0315 52.4233 15.5982 48.8128 16.3223C46.4895 16.7631 44.5116 18.2743 43.4442 20.3837C42.2511 22.682 41.0581 25.0118 39.8965 27.3101C39.2686 26.4286 38.2639 25.8304 37.1023 25.7044L34.2767 25.4526C32.8325 25.3266 31.5453 26.3971 31.4197 27.8453C31.2941 29.2936 32.3616 30.5844 33.8058 30.7103L38.0441 31.0881C37.3534 32.8512 37.0081 34.7087 37.0081 36.5978V43.9649C37.0081 45.5076 38.2011 46.767 39.7395 46.8299C46.8035 47.1763 54.2128 47.3652 61.8733 47.3652C61.9361 47.3652 61.9675 47.3652 62.0303 47.3652C69.7535 47.3652 77.2257 47.1763 84.3524 46.8299C85.8594 46.767 87.0524 45.5076 87.0524 43.9649ZM45.7988 21.6116C46.5209 20.2263 47.8081 19.2503 49.3151 18.9355C53.3965 18.1169 57.5407 17.7076 61.6849 17.6761C61.7791 17.6761 61.9047 17.6761 61.9989 17.6761C66.2373 17.6761 70.507 18.0854 74.6826 18.9355C76.221 19.2503 77.5082 20.2263 78.2303 21.6116L81.4327 27.3731C75.2478 26.8064 68.4977 26.4286 61.214 26.3971C53.6477 26.3971 49.1581 26.7749 42.7849 27.3731C43.4442 26.0822 45.7988 21.6116 45.7988 21.6116ZM50.8221 38.8331C50.6965 39.3368 50.3198 39.7461 49.8174 39.8721C49.786 39.8721 49.786 39.8721 49.7546 39.8721C48.8128 40.061 47.6825 40.1869 46.3953 40.1554C45.7674 40.1554 45.2023 40.0924 44.6686 40.0295C43.6325 39.8721 42.6279 39.4943 41.7174 38.8961C41.1837 38.5497 40.8697 37.9516 40.8697 37.2904V35.2125C40.8697 34.7717 41.1837 34.3939 41.5918 34.268C41.6232 34.268 41.686 34.2365 41.7174 34.2365C42.2825 34.205 42.8476 34.142 43.4128 34.1106C44.0407 34.0476 44.7 34.1735 45.2651 34.4884C45.5791 34.6773 45.9558 34.8662 46.3639 35.0865C47.5256 35.7162 47.9965 35.9681 48.8442 36.4403C49.2209 36.6607 49.7546 36.9756 50.4139 37.3849C50.7593 37.6052 50.9477 37.9516 50.9163 38.3608C50.8849 38.5183 50.8535 38.6757 50.8221 38.8331ZM70.5698 45.2558C70.5698 45.791 70.1617 46.2003 69.628 46.2003H54.6523C54.1186 46.2003 53.7105 45.791 53.7105 45.2558V44.1853C53.7105 43.6501 54.1186 43.2408 54.6523 43.2408H69.628C70.1617 43.2408 70.5698 43.6501 70.5698 44.1853V45.2558ZM83.0652 38.8961C82.1861 39.4943 81.1501 39.8721 80.114 40.0295C79.5803 40.0924 79.0152 40.1554 78.3873 40.1554C77.1001 40.1869 75.9698 40.061 75.0594 39.8721C75.028 39.8721 75.028 39.8721 74.9966 39.8721C74.4943 39.7461 74.1175 39.3683 73.9919 38.8646C73.9605 38.7072 73.9291 38.5183 73.9291 38.3923C73.8978 38.0145 74.0861 37.6367 74.4315 37.4163C75.0594 37.007 75.5931 36.7237 76.0012 36.4718C76.8489 35.9681 77.3199 35.7477 78.4815 35.118C78.8896 34.8976 79.2664 34.6773 79.5803 34.5198C80.1454 34.205 80.7734 34.0791 81.4327 34.142C81.9978 34.205 82.5315 34.268 83.0966 34.2995C83.128 34.2995 83.1908 34.2995 83.2222 34.3309C83.6303 34.4254 83.9443 34.8032 83.9443 35.2754V37.3534C83.9129 37.9516 83.5989 38.5497 83.0652 38.8961Z" fill="white"/>
<path d="M42.0943 90.8755H29.9442V35.4959C29.9442 34.7088 29.3163 34.0791 28.5314 34.0791H20.4628C19.6779 34.0791 19.05 34.7088 19.05 35.4959V90.907H18.2651C16.4442 90.8755 15 92.3238 15 94.1498C15 94.5906 15.3767 94.9684 15.8163 94.9684H44.5431C44.9827 94.9684 45.3594 94.5906 45.3594 94.1498C45.3594 92.3238 43.9152 90.8755 42.0943 90.8755Z" fill="white"/>
<path d="M53.5538 53.504H33.8375V50.1353C33.8375 48.9389 32.8642 47.9629 31.6712 47.9629C31.1689 47.9629 30.7607 48.3722 30.7607 48.8759V61.249C30.7607 61.7527 31.1689 62.162 31.6712 62.162C32.8642 62.162 33.8375 61.186 33.8375 59.9896V56.5579H51.9841C53.2713 56.5579 54.3073 55.519 54.3073 54.2281C54.3073 53.8503 53.962 53.504 53.5538 53.504Z" fill="white"/>
<path d="M105.827 90.8756H105.011V35.4959C105.011 34.7088 104.383 34.0791 103.598 34.0791H95.498C94.7131 34.0791 94.0852 34.7088 94.0852 35.4959V90.907H81.9038C80.1143 90.907 78.6387 92.3553 78.6387 94.1813C78.6387 94.6221 79.0154 94.9999 79.455 94.9999H108.182C108.621 94.9999 108.998 94.6221 108.998 94.1813C109.061 92.3238 107.617 90.8756 105.827 90.8756Z" fill="white"/>
<path d="M90.255 59.9584C90.255 61.1548 91.2283 62.1308 92.4213 62.1308C92.9236 62.1308 93.3317 61.7215 93.3317 61.2177V48.8447C93.3317 48.3409 92.9236 47.9316 92.4213 47.9316C91.2283 47.9316 90.255 48.9076 90.255 50.104V53.4728H70.5386C70.1305 53.4728 69.7852 53.8191 69.7852 54.2284C69.7852 55.5192 70.8212 56.5582 72.1084 56.5582H90.255V59.9584Z" fill="white"/>
</g>
<defs>
<filter id="filter0_d" x="0" y="0" width="124" height="110" filterUnits="userSpaceOnUse" color-interpolation-filters="sRGB">
<feFlood flood-opacity="0" result="BackgroundImageFix"/>
<feColorMatrix in="SourceAlpha" type="matrix" values="0 0 0 0 0 0 0 0 0 0 0 0 0 0 0 0 0 0 127 0" result="hardAlpha"/>
<feOffset/>
<feGaussianBlur stdDeviation="7.5"/>
<feComposite in2="hardAlpha" operator="out"/>
<feColorMatrix type="matrix" values="0 0 0 0 1 0 0 0 0 0.866667 0 0 0 0 0 0 0 0 0.5 0"/>
<feBlend mode="normal" in2="BackgroundImageFix" result="effect1_dropShadow"/>
<feBlend mode="normal" in="SourceGraphic" in2="effect1_dropShadow" result="shape"/>
</filter>
</defs>
</svg>
