<svg width="146" height="40" viewBox="0 0 146 40" fill="none" xmlns="http://www.w3.org/2000/svg">
<path d="M90.1894 35.5091C89.5401 34.8779 89.1975 33.9762 89.1975 32.8401V26.9789C89.1975 25.8247 89.5221 24.923 90.1894 24.3099C90.8386 23.6967 91.7584 23.3721 92.9667 23.3721H97.6556C98.8639 23.3721 99.7836 23.6787 100.433 24.3099C101.082 24.9411 101.425 25.8247 101.425 26.9789V32.8401C101.425 33.9943 101.1 34.896 100.433 35.5091C99.7836 36.1223 98.8639 36.4469 97.6556 36.4469H92.9667C91.7584 36.4289 90.8386 36.1223 90.1894 35.5091ZM92.2634 33.5434L98.3769 33.5254V26.2576H92.2634V33.5434Z" fill="#FFDD00"/>
<path d="M35.6898 7.0514C37.5834 2.83138 41.7854 0.108201 46.4021 0.108201C51.091 0.108201 55.3291 2.88548 57.1866 7.17764L67.8809 30.7304L62.5248 40H51.6682L46.5644 30.7304L39.3327 40H30.3516C28.0793 36.0505 25.807 32.083 23.6068 28.0974L18.1425 39.982H6.02344L0 29.5401L15.816 3.85933C17.3129 1.42471 20.1082 0 23.0297 0C26.33 0 29.3598 1.8936 30.8206 4.85121L34.1569 10.9288L35.6898 7.0514ZM25.4644 24.0757L27.5744 27.881L32.4436 15.3832L30.8566 12.4797C28.9991 16.321 27.2498 20.1984 25.4644 24.0757ZM24.6528 17.2588L24.5807 17.2768C24.0757 17.367 23.5527 17.4211 23.0297 17.4211C19.5491 17.4211 16.3751 15.3111 15.0225 12.101L4.16591 29.6483L8.07932 36.4292H15.8341L24.6528 17.2588ZM17.9621 8.72858C17.9621 11.5419 20.2344 13.7962 23.0297 13.7962C25.825 13.7962 28.0974 11.5239 28.0974 8.72858C28.0974 5.91524 25.8431 3.66095 23.0297 3.66095C20.2344 3.66095 17.9621 5.96934 17.9621 8.72858ZM57.3309 16.1948C56.9161 17.2227 56.3751 18.1785 55.7078 19.0442L48.9811 27.6646L53.8142 36.4292H60.4689L63.8593 30.55L57.3309 16.1948ZM52.8584 16.844C54.6258 14.5537 55.0586 11.4337 53.9405 8.74662C52.6781 5.69882 49.7024 3.71505 46.4021 3.71505C43.0297 3.71505 40 5.789 38.7917 8.92696L29.8467 31.9567L32.4256 36.4292H37.5834L52.8584 16.844Z" fill="#FFDD00"/>
<path d="M85.1218 9.08912L82.3084 12.3714C82.0018 12.732 81.6051 12.8583 81.1543 12.8583C80.6854 12.8583 80.2886 12.732 79.964 12.3533L77.1686 9.08912V16.0503C77.1686 16.4471 76.844 16.7537 76.4473 16.7537H74.8423C74.4455 16.7537 74.1208 16.4291 74.1208 16.0503V4.45432C74.1208 4.05756 74.4455 3.75098 74.8423 3.75098H76.0145C76.6276 3.75098 76.808 3.93132 77.0063 4.1838C78.413 5.75278 79.8017 7.52014 81.1543 9.14322C82.5249 7.52014 83.9856 5.87902 85.3021 4.21987C85.5185 3.94936 85.6988 3.75098 86.3481 3.75098H87.4662C87.863 3.75098 88.1876 4.0756 88.1876 4.45432V16.0503C88.1876 16.4471 87.863 16.7537 87.4662 16.7537H85.8612C85.4644 16.7537 85.1398 16.4291 85.1398 16.0503L85.1218 9.08912Z" fill="#FFDD00"/>
<path d="M116.177 6.65449H112.444V16.0503C112.444 16.4471 112.119 16.7537 111.722 16.7537H110.117C109.721 16.7537 109.396 16.4291 109.396 16.0503V6.65449H105.663C105.266 6.65449 104.942 6.32988 104.942 5.95116V4.45432C104.942 4.05756 105.266 3.75098 105.663 3.75098H116.177C116.574 3.75098 116.898 4.0756 116.898 4.45432V5.95116C116.898 6.32988 116.574 6.65449 116.177 6.65449Z" fill="#FFDD00"/>
<path d="M145.501 7.35828V9.17975C145.501 10.1897 145.212 11.0192 144.671 11.6144C144.328 12.0111 143.877 12.2997 143.354 12.4981L145.086 15.6721C145.158 15.7803 145.194 15.9246 145.194 16.0508C145.194 16.4476 144.869 16.7541 144.473 16.7541H142.759C142.507 16.7541 142.254 16.6099 142.128 16.3754L140.162 12.7686H136.592V16.0328C136.592 16.4295 136.267 16.7361 135.87 16.7361H134.265C133.868 16.7361 133.544 16.4115 133.544 16.0328V4.43673C133.544 4.03998 133.868 3.7334 134.265 3.7334H141.731C142.94 3.7334 143.859 4.03998 144.509 4.67118C145.176 5.30238 145.501 6.20409 145.501 7.35828ZM136.61 6.65495V9.88308L142.453 9.86505V6.65495H136.61Z" fill="#FFDD00"/>
<path d="M77.1686 28.3862H83.5708V24.1301C83.5708 23.7333 83.8954 23.4268 84.2922 23.4268H85.8972C86.294 23.4268 86.6186 23.7514 86.6186 24.1301V35.7261C86.6186 36.1229 86.294 36.4295 85.8972 36.4295H84.2922C83.8954 36.4295 83.5708 36.1048 83.5708 35.7261V31.2897H77.1686V35.7261C77.1686 36.1229 76.844 36.4295 76.4473 36.4295H74.8423C74.4455 36.4295 74.1208 36.1048 74.1208 35.7261V24.1301C74.1208 23.7333 74.4455 23.4268 74.8423 23.4268H76.4473C76.844 23.4268 77.1686 23.7514 77.1686 24.1301V28.3862Z" fill="#FFDD00"/>
<path d="M113.399 23.4082H115.005C115.401 23.4082 115.726 23.7328 115.726 24.1115V32.8041C115.726 35.1846 114.301 36.4109 111.957 36.4109H107.773C105.446 36.4109 104.004 35.1846 104.004 32.8041V24.1115C104.004 23.7148 104.328 23.4082 104.725 23.4082H106.33C106.727 23.4082 107.051 23.7328 107.051 24.1115V33.5074H112.642L112.66 24.1115C112.678 23.7328 113.003 23.4082 113.399 23.4082Z" fill="#FFDD00"/>
<path d="M126.474 33.544V32.4078C126.456 32.1012 126.348 31.8848 126.023 31.7947L120.559 30.2798C119.08 29.8109 118.269 28.5665 118.269 27.0697V26.5287C118.269 24.2563 119.874 23.4268 121.948 23.4268H125.735C127.881 23.4268 129.252 24.8154 129.252 26.9615C129.252 27.3582 128.927 27.6648 128.53 27.6648H126.925C126.528 27.6648 126.204 27.3402 126.204 26.9615V26.2762H121.172V27.1599C121.172 27.4484 121.317 27.5927 121.587 27.6648L127.069 29.2518C128.44 29.6666 129.432 31.0012 129.432 32.4259V33.2374C129.432 34.4277 129.089 35.2212 128.386 35.7442C127.737 36.2311 126.835 36.4114 125.663 36.4114H121.587C119.261 36.4114 118.088 35.0048 118.088 32.7505C118.088 32.3537 118.413 32.0471 118.81 32.0471H120.415C120.812 32.0471 121.136 32.3537 121.136 32.7505V33.526H126.474V33.544Z" fill="#FFDD00"/>
<path d="M134.932 31.1274V33.526H142.002C142.399 33.526 142.723 33.8506 142.723 34.2293V35.7261C142.723 36.1229 142.399 36.4295 142.002 36.4295H132.606C132.209 36.4295 131.885 36.1048 131.885 35.7261V24.1301C131.885 23.7333 132.209 23.4268 132.606 23.4268H142.002C142.399 23.4268 142.723 23.7514 142.723 24.1301V25.6269C142.723 26.0237 142.399 26.3303 142.002 26.3303H134.932V28.296H140.325C140.721 28.296 141.046 28.6206 141.046 28.9993V30.4421C141.046 30.8388 140.721 31.1454 140.325 31.1454H134.932V31.1274Z" fill="#FFDD00"/>
<path d="M91.6322 15.8705C90.9829 15.2393 90.6403 14.3556 90.6403 13.2014V7.34025C90.6403 6.18606 90.9649 5.28435 91.6322 4.67118C92.2814 4.05802 93.2011 3.7334 94.4094 3.7334H99.0983C100.307 3.7334 101.226 4.03998 101.876 4.67118C102.525 5.30238 102.867 6.18606 102.867 7.34025V13.2014C102.867 14.3556 102.543 15.2573 101.876 15.8705C101.226 16.4836 100.307 16.8082 99.0983 16.8082H94.4094C93.2011 16.8082 92.2814 16.4836 91.6322 15.8705ZM93.6881 13.9047L99.8017 13.8867V6.61888H93.6881V13.9047Z" fill="#FFDD00"/>
<path d="M119.856 15.8705C119.207 15.2393 118.864 14.3375 118.864 13.2014V7.34025C118.864 6.18606 119.188 5.28435 119.856 4.67118C120.505 4.05802 121.425 3.7334 122.633 3.7334H127.322C128.53 3.7334 129.45 4.03998 130.099 4.67118C130.748 5.30238 131.091 6.20409 131.091 7.34025V13.2014C131.091 14.3556 130.766 15.2573 130.099 15.8705C129.45 16.4836 128.53 16.8082 127.322 16.8082H122.633C121.443 16.8082 120.505 16.4836 119.856 15.8705ZM121.93 13.9047L128.043 13.8867V6.61888H121.93V13.9047Z" fill="#FFDD00"/>
</svg>
