<svg width="130" height="110" viewBox="0 0 130 110" fill="none" xmlns="http://www.w3.org/2000/svg">
<g filter="url(#filter0_d)">
<path d="M60.3846 28.8701H67.3833C67.598 28.8701 67.7698 28.6983 67.7698 28.4836V22.2571C67.7698 22.0424 67.9415 21.8706 68.1562 21.8706H79.0192C79.2339 21.8706 79.4057 21.6989 79.4057 21.4842V15.3865C79.4057 15.1718 79.2339 15 79.0192 15H48.7487C48.5341 15 48.3623 15.1718 48.3623 15.3865V21.4842C48.3623 21.6989 48.5341 21.8706 48.7487 21.8706H59.6118C59.8265 21.8706 59.9982 22.0424 59.9982 22.2571V28.5266C59.9982 28.6983 60.1699 28.8701 60.3846 28.8701Z" fill="white"/>
<path d="M64.2482 44.7155L74.2954 54.7638C76.1846 56.6532 76.1846 59.7021 74.2954 61.5915L69.9159 65.9715C68.0266 67.8609 64.9781 67.8609 63.0889 65.9715L53.0417 55.9232C51.3242 61.6344 52.7411 68.0756 57.2495 72.5845C63.7759 79.1116 74.3813 79.1116 80.9506 72.5845C87.477 66.0574 87.477 55.4508 80.9506 48.8808C76.3993 44.4149 69.9588 42.9978 64.2482 44.7155Z" fill="white"/>
<path d="M74.8105 77.6941L89.7955 92.6806C92.887 95.7724 97.9106 95.7724 101.002 92.6806C104.094 89.5889 104.094 84.5647 101.002 81.4729L86.0171 66.4863C85.2442 69.0628 83.8273 71.4675 81.8093 73.4858C79.7912 75.547 77.3438 76.9211 74.8105 77.6941ZM97.9106 85.1659C99.1558 86.4112 99.1558 88.3865 97.9106 89.6318C96.6654 90.8771 94.6903 90.8771 93.4452 89.6318C92.2 88.3865 92.2 86.4112 93.4452 85.1659C94.6903 83.9206 96.7084 83.9206 97.9106 85.1659Z" fill="white"/>
<path d="M114.571 41.7098H108.474C108.259 41.7098 108.087 41.8816 108.087 42.0963V46.4334C108.087 46.6481 107.915 46.8198 107.701 46.8198H98.9845C98.7699 46.8198 98.5981 46.6481 98.5981 46.4334V40.7651C98.5981 40.5504 98.4264 40.3786 98.2117 40.3786H89.1949C89.0661 40.3786 88.9373 40.3357 88.8944 40.2068L83.6131 32.3915C83.5273 32.3056 83.4414 32.2197 83.3126 32.2197H45.0129C44.8841 32.2197 44.7982 32.2627 44.7123 32.3485L36.4255 43.0839C36.3396 43.1698 36.2538 43.2127 36.1249 43.2127H29.3839C29.1692 43.2127 28.9974 43.3845 28.9974 43.5992V52.9175C28.9974 53.1322 28.8257 53.304 28.611 53.304H22.2563C22.0416 53.304 21.8699 53.1322 21.8699 52.9175V42.0533C21.8699 41.8386 21.6982 41.6669 21.4835 41.6669H15.3864C15.1717 41.7098 15 41.8386 15 42.0533V72.3271C15 72.5418 15.1717 72.7135 15.3864 72.7135H21.4835C21.6982 72.7135 21.8699 72.5418 21.8699 72.3271V61.4629C21.8699 61.2482 22.0416 61.0764 22.2563 61.0764H28.6539C28.8686 61.0764 29.0404 61.2482 29.0404 61.4629V71.2535C29.0404 71.4683 29.2121 71.64 29.4268 71.64H38.4006C38.5294 71.64 38.6153 71.683 38.7012 71.7688L47.9326 82.1607C48.0185 82.2466 48.1043 82.2895 48.2331 82.2895H77.2155L73.48 78.5536C72.0631 78.8971 70.6033 79.0689 69.1005 79.0689C64.2057 79.0689 59.6114 77.1795 56.1335 73.7012C51.3675 68.9347 49.6071 61.9352 51.5393 55.494L52.3121 53.0034L64.2057 64.8982C64.8068 65.4994 65.6226 65.8429 66.5243 65.8429C67.383 65.8429 68.1988 65.4994 68.8428 64.8982L73.2224 60.5182C74.5105 59.2299 74.5105 57.1687 73.2224 55.9234L61.3289 44.0286L63.8192 43.2557C70.3027 41.3233 77.2585 43.0839 82.0245 47.8504C85.5024 51.3287 87.3916 55.9234 87.3916 60.8188C87.3916 62.3217 87.2198 63.7817 86.8763 65.1988L95.6784 74.0018L99.5427 69.7076C99.6286 69.6218 99.7145 69.5788 99.8433 69.5788H107.744C107.958 69.5788 108.13 69.7506 108.13 69.9653V72.413C108.13 72.6277 108.302 72.7994 108.517 72.7994H114.614C114.828 72.7994 115 72.6277 115 72.413V42.0533C114.957 41.8386 114.785 41.7098 114.571 41.7098Z" fill="white"/>
</g>
<defs>
<filter id="filter0_d" x="0" y="0" width="130" height="109.999" filterUnits="userSpaceOnUse" color-interpolation-filters="sRGB">
<feFlood flood-opacity="0" result="BackgroundImageFix"/>
<feColorMatrix in="SourceAlpha" type="matrix" values="0 0 0 0 0 0 0 0 0 0 0 0 0 0 0 0 0 0 127 0" result="hardAlpha"/>
<feOffset/>
<feGaussianBlur stdDeviation="7.5"/>
<feComposite in2="hardAlpha" operator="out"/>
<feColorMatrix type="matrix" values="0 0 0 0 1 0 0 0 0 0.866667 0 0 0 0 0 0 0 0 0.5 0"/>
<feBlend mode="normal" in2="BackgroundImageFix" result="effect1_dropShadow"/>
<feBlend mode="normal" in="SourceGraphic" in2="effect1_dropShadow" result="shape"/>
</filter>
</defs>
</svg>
