<svg width="130" height="110" viewBox="0 0 130 110" fill="none" xmlns="http://www.w3.org/2000/svg">
<g filter="url(#filter0_d)">
<path d="M27.085 75.9453L24.0938 85.8041H105.907L102.643 75.9453H27.085Z" fill="white"/>
<path d="M114.841 91.9221L107.227 73.3736C106.878 72.5553 106.062 72.0098 105.168 72.0098H24.5986C23.6662 72.0098 22.8893 72.5553 22.5397 73.4126L15.1586 91.961C14.8867 92.6625 14.9644 93.4418 15.3917 94.0263C15.819 94.6498 16.4794 95.0005 17.2175 95.0005H112.782C113.521 95.0005 114.22 94.6498 114.608 94.0263C115.036 93.4028 115.113 92.6235 114.841 91.9221ZM76.4212 91.4934C76.0715 91.8441 75.5665 92.039 75.0227 92.039H54.9773C54.4335 92.039 53.9285 91.8441 53.6177 91.4934C53.268 91.1427 53.1515 90.7141 53.2681 90.2854L53.6177 89.0385C53.8119 88.3761 54.4723 87.9474 55.327 87.9474H74.6342C75.45 87.9474 76.1492 88.3761 76.3435 88.9995L76.732 90.2465C76.8485 90.6751 76.732 91.1038 76.4212 91.4934ZM106.839 86.1159C106.606 86.4277 106.256 86.6225 105.906 86.6225H24.1324C23.7828 86.6225 23.4331 86.4277 23.2001 86.1159C22.967 85.8042 22.9281 85.4145 23.0447 85.0638L26.3079 75.6337C26.4633 75.1661 26.8906 74.8544 27.3956 74.8544H102.41C102.915 74.8544 103.343 75.1272 103.498 75.5948L106.994 85.0638C107.111 85.4145 107.033 85.8042 106.839 86.1159Z" fill="white"/>
<path d="M103.226 15H26.6963C24.5597 15 22.8115 16.7535 22.8115 18.8967V65.5796C22.8115 67.7228 24.5597 69.4764 26.6963 69.4764H103.226C105.363 69.4764 107.111 67.7228 107.111 65.5796V18.8967C107.111 16.7535 105.363 15 103.226 15ZM64.9999 16.5197C65.6603 16.5197 66.2042 17.0653 66.2042 17.7277C66.2042 18.3902 65.6603 18.9357 64.9999 18.9357C64.3395 18.9357 63.7957 18.3902 63.7957 17.7277C63.8345 17.0653 64.3395 16.5197 64.9999 16.5197ZM102.294 61.566C102.294 62.9688 101.167 64.0989 99.7685 64.0989H29.9595C28.561 64.0989 27.4344 62.9688 27.4344 61.566V22.7545C27.4344 21.3517 28.561 20.2216 29.9595 20.2216H99.7685C101.167 20.2216 102.294 21.3517 102.294 22.7545V61.566Z" fill="white"/>
<path d="M95.9226 39.2773H94.7572C94.9125 39.0825 95.0679 38.8876 95.2622 38.6928C95.4564 38.498 95.6506 38.2641 95.8449 38.0693C96.2722 37.3289 96.311 36.3937 95.8837 35.6533C95.6506 35.2247 95.4953 34.7961 95.3787 34.3674C95.4176 34.3674 95.4564 34.3674 95.4953 34.3674C95.6895 34.3674 95.8449 34.2115 95.8449 34.0167V32.1852C95.8449 31.9904 95.6895 31.8345 95.4953 31.8345C95.4176 31.8345 95.301 31.8345 95.2233 31.8735C95.2622 31.6397 95.301 31.4059 95.3399 31.2111C95.3787 30.9773 95.301 30.7434 95.1456 30.6265C94.4852 30.1979 93.7471 29.9641 92.9702 29.9641H90.212C90.0566 29.9641 89.9012 29.9251 89.7847 29.8472C89.1631 29.4575 88.5415 29.0679 87.92 28.6782C85.5891 27.2364 83.064 26.1453 80.3836 25.5218C80.2282 25.4829 80.1116 25.4439 79.9562 25.4439C78.1304 25.0542 76.46 24.8983 75.0615 24.8594H70.089C65.0776 24.8594 60.1052 26.1843 55.7542 28.7171L50.471 31.7176L39.9045 33.5101C38.234 33.7829 36.6801 34.4453 35.3593 35.4585L37.8067 35.1857C38.0786 35.1468 38.2729 35.4975 38.0786 35.6923L37.0297 36.9393C36.2916 37.7965 35.2427 38.3811 34.1162 38.5369L33.8442 38.5759C33.8442 38.8876 33.8831 39.1604 33.9608 39.4721L34.66 42.044L34.5435 42.6285C34.4658 43.1351 34.8543 43.6027 35.3981 43.6416L40.1764 43.8754C40.526 43.8754 40.7979 43.6027 40.7591 43.2909C40.6814 42.7844 40.6426 42.2778 40.6037 41.6933C40.526 38.5759 42.9734 35.9261 46.0812 35.9261C49.0725 35.9651 51.481 38.381 51.5199 41.3815C51.5199 42.0829 51.5199 42.7064 51.481 43.3299C51.4422 43.6416 51.6753 43.9144 51.986 43.9144L78.5577 43.8365C78.9074 43.8365 79.1404 43.5247 79.1016 43.213C79.0239 42.6675 78.9851 42.1219 78.9851 41.4984C78.9462 38.459 81.3548 35.8482 84.3849 35.8482C87.415 35.8092 89.8624 38.2641 89.9012 41.3036C89.9012 41.4595 89.9012 41.6153 89.8624 41.7712C89.8235 42.1219 90.1731 42.3947 90.5228 42.3557L91.222 42.1999C91.5328 42.1609 92.504 42.044 93.3586 41.2646C93.6694 40.9919 93.8637 40.7191 94.019 40.4463H95.2622C95.7672 40.4463 96.1557 40.0177 96.1557 39.5111C96.1945 39.3942 96.078 39.2773 95.9226 39.2773ZM69.8947 26.4181L68.8459 30.7434C68.7293 31.2111 68.3408 31.5618 67.8358 31.5618L54.2392 32.3411C54.045 32.3411 53.8896 32.1852 53.9284 31.9904C53.9673 31.7176 54.1226 31.4838 54.3557 31.328L54.9384 30.9383C58.7067 28.4054 62.9799 26.7688 67.4473 26.1843L69.4286 25.9115C69.7005 25.8336 69.9724 26.1063 69.8947 26.4181ZM83.4525 30.5876C82.9087 31.0552 82.2094 31.289 81.4713 31.328L70.594 31.3669C70.3609 31.3669 70.2055 31.1721 70.2444 30.9773L70.8659 26.6908C70.9436 26.3012 71.2932 25.9894 71.6817 25.9894L74.4011 26.0284C76.9261 26.0674 79.4124 26.7688 81.6267 28.0157L82.4813 28.4833C82.9475 28.7561 83.3748 29.1848 83.6079 29.6524C83.8021 29.9641 83.7245 30.3538 83.4525 30.5876Z" fill="white"/>
<path d="M36.7578 36.8227L37.6124 35.8485C37.7678 35.6926 37.6124 35.4199 37.3794 35.4588L34.932 35.7316C34.2716 36.3941 33.8831 37.2903 33.8442 38.1866L34.4658 38.1086C35.3593 37.9528 36.1751 37.5241 36.7578 36.8227Z" fill="white"/>
<path d="M46.0813 36.354C43.2065 36.354 40.8757 38.692 40.9145 41.5756C40.9145 44.4592 43.2454 46.7972 46.1201 46.7583C48.9948 46.7583 51.3257 44.4202 51.2868 41.5367C51.248 38.6531 48.956 36.315 46.0813 36.354ZM46.1201 45.6282C43.9058 45.6282 42.08 43.8357 42.08 41.5756C42.08 39.3545 43.867 37.523 46.1201 37.523C48.3344 37.523 50.1602 39.3155 50.1602 41.5756C50.1602 43.7968 48.3733 45.5893 46.1201 45.6282Z" fill="white"/>
<path d="M46.1198 37.7969C45.1097 37.7969 44.1774 38.1865 43.4781 38.888C42.74 39.6283 42.3516 40.5636 42.3516 41.5767C42.3516 42.5899 42.74 43.5251 43.4393 44.2265C44.1385 44.9279 45.1097 45.3176 46.0809 45.3176C47.091 45.3176 48.0233 44.9279 48.7226 44.2265C49.4218 43.5251 49.8103 42.5509 49.8103 41.5767C49.8103 40.5636 49.4218 39.6283 48.7226 38.9269C48.0621 38.1865 47.091 37.7969 46.1198 37.7969ZM42.8566 41.5767C42.8566 40.8753 43.0897 40.2129 43.4781 39.6673C43.6335 39.4725 43.9443 39.4725 44.0997 39.6673L44.8378 40.6805C45.032 40.9532 44.9155 41.4208 44.527 41.5377L43.3616 41.9274C43.1285 42.0054 42.8566 41.8105 42.8566 41.5767ZM45.1097 44.6551C44.4493 44.4603 43.9055 44.0317 43.4781 43.4861C43.3616 43.2523 43.4393 42.9795 43.6724 42.9016L44.8378 42.5119C45.2263 42.395 45.6148 42.6678 45.6148 43.0575V44.3044C45.6148 44.5382 45.3428 44.7331 45.1097 44.6551ZM45.6536 40.057L44.9155 39.0438C44.7601 38.849 44.8767 38.5373 45.1097 38.4593C45.4205 38.3424 45.7701 38.3035 46.1198 38.3035C46.4694 38.3035 46.819 38.3424 47.1298 38.4593C47.3629 38.5373 47.4794 38.849 47.324 39.0438L46.5471 40.057C46.3529 40.3687 45.8867 40.3687 45.6536 40.057ZM48.7226 43.4471C48.3341 43.9927 47.7514 44.4213 47.1298 44.6162C46.8967 44.7331 46.6248 44.5382 46.6248 44.2655V43.0185C46.6248 42.6288 47.0133 42.3561 47.3629 42.473L48.5283 42.8626C48.8003 42.9406 48.8779 43.2523 48.7226 43.4471ZM49.3441 41.5377C49.3441 41.7715 49.111 41.9664 48.8391 41.8884L47.6348 41.4988C47.324 41.4208 47.1687 40.9532 47.4017 40.6415L48.1398 39.6283C48.2952 39.4335 48.606 39.4335 48.7614 39.6283C49.111 40.1739 49.3441 40.8363 49.3441 41.5377Z" fill="white"/>
<path d="M84.5402 36.2383C81.6655 36.2383 79.3347 38.5763 79.3735 41.4599C79.3735 44.3435 81.7044 46.6815 84.5791 46.6426C87.4538 46.6426 89.7847 44.3045 89.7458 41.4209C89.7458 38.5763 87.415 36.2383 84.5402 36.2383ZM84.5791 45.5125C82.3648 45.5125 80.539 43.72 80.539 41.4599C80.539 39.2388 82.3259 37.4073 84.5791 37.4073C86.7934 37.4073 88.6192 39.1998 88.6192 41.4599C88.6192 43.681 86.7934 45.5125 84.5791 45.5125Z" fill="white"/>
<path d="M84.5399 37.6797C83.5299 37.6797 82.5975 38.0694 81.8983 38.7708C81.199 39.4722 80.8105 40.4464 80.8105 41.4206C80.8105 42.4337 81.199 43.3689 81.8983 44.0703C82.5975 44.7717 83.5687 45.1614 84.5399 45.1614C85.5499 45.1614 86.4823 44.7717 87.1815 44.0703C87.8808 43.3689 88.2693 42.3947 88.2693 41.4206C88.2693 40.4074 87.8808 39.4722 87.1815 38.7708C86.4823 38.0694 85.5499 37.6797 84.5399 37.6797ZM81.3156 41.4595C81.3156 40.7581 81.5486 40.0957 81.9371 39.5501C82.0925 39.3553 82.4033 39.3553 82.5587 39.5501L83.2968 40.5633C83.5299 40.875 83.3745 41.3037 83.0249 41.4206L81.8206 41.8102C81.5487 41.8882 81.3156 41.7323 81.3156 41.4595ZM83.5687 44.5379C82.9083 44.3431 82.3644 43.9145 81.9371 43.3689C81.7817 43.1741 81.8594 42.8623 82.1314 42.7844L83.2968 42.3947C83.6464 42.2778 84.0349 42.5506 84.0349 42.9403V44.1872C84.0349 44.421 83.8018 44.6159 83.5687 44.5379ZM84.1126 39.9398L83.3745 38.9266C83.2191 38.7318 83.3356 38.4201 83.5687 38.3421C83.8795 38.2252 84.2291 38.1863 84.5788 38.1863C84.9284 38.1863 85.278 38.2252 85.5888 38.3421C85.8219 38.4201 85.9384 38.7318 85.783 38.9266L85.0061 39.9398C84.773 40.2515 84.3068 40.2515 84.1126 39.9398ZM87.1815 43.3689C86.7931 43.9145 86.2103 44.3431 85.5888 44.5379C85.3557 44.6159 85.0838 44.421 85.0838 44.1872V42.9403C85.0838 42.5506 85.4722 42.2778 85.8219 42.3947L86.9873 42.7844C87.2204 42.8623 87.3369 43.1351 87.1815 43.3689ZM87.8031 41.4595C87.8031 41.6933 87.57 41.8882 87.2981 41.8102L86.0938 41.4206C85.7442 41.3037 85.5888 40.875 85.8219 40.5633L86.56 39.5501C86.7154 39.3553 87.0261 39.3553 87.1815 39.5501C87.57 40.0567 87.8031 40.7191 87.8031 41.4595Z" fill="white"/>
<path d="M56.2979 57.2405H62.5524H67.4472H73.7016C74.5563 59.2278 76.5375 60.5916 78.8295 60.5916C80.8107 60.5916 82.5588 59.5395 83.5689 57.9808C83.6466 57.825 83.5689 57.6301 83.3746 57.6301H78.9849C78.441 57.6301 77.936 57.2794 77.7806 56.7339C77.6252 56.2663 77.5087 55.6428 77.5087 54.9414C77.5087 54.24 77.6252 53.6555 77.7806 53.1878C77.936 52.6423 78.441 52.2916 78.9849 52.2916H83.3746C83.53 52.2916 83.6466 52.0968 83.5689 51.9409C82.5588 50.3432 80.8107 49.3301 78.7906 49.3301C76.4986 49.369 74.5563 50.7329 73.7016 52.6813H67.4472H62.5524H56.2979C55.4433 50.6939 53.5009 49.3301 51.2089 49.3301C49.1888 49.3301 47.4407 50.3432 46.4307 51.9409C46.353 52.0968 46.4307 52.2916 46.6249 52.2916H51.0147C51.5585 52.2916 52.0635 52.6423 52.2189 53.1878C52.3743 53.6555 52.4909 54.24 52.4909 54.9414C52.4909 55.6428 52.3743 56.2663 52.2189 56.7339C52.0635 57.2794 51.5585 57.6301 51.0147 57.6301H46.6249C46.4695 57.6301 46.353 57.825 46.4307 57.9808C47.4407 59.5395 49.15 60.5916 51.1701 60.5916C53.4621 60.6306 55.4044 59.2278 56.2979 57.2405Z" fill="white"/>
</g>
<defs>
<filter id="filter0_d" x="0" y="0" width="130" height="110.001" filterUnits="userSpaceOnUse" color-interpolation-filters="sRGB">
<feFlood flood-opacity="0" result="BackgroundImageFix"/>
<feColorMatrix in="SourceAlpha" type="matrix" values="0 0 0 0 0 0 0 0 0 0 0 0 0 0 0 0 0 0 127 0" result="hardAlpha"/>
<feOffset/>
<feGaussianBlur stdDeviation="7.5"/>
<feComposite in2="hardAlpha" operator="out"/>
<feColorMatrix type="matrix" values="0 0 0 0 1 0 0 0 0 0.866667 0 0 0 0 0 0 0 0 0.5 0"/>
<feBlend mode="normal" in2="BackgroundImageFix" result="effect1_dropShadow"/>
<feBlend mode="normal" in="SourceGraphic" in2="effect1_dropShadow" result="shape"/>
</filter>
</defs>
</svg>
