<svg width="106" height="110" viewBox="0 0 106 110" fill="none" xmlns="http://www.w3.org/2000/svg">
<g filter="url(#filter0_d)">
<path d="M22.918 88.1152V92.0383C22.918 93.6537 24.242 94.9998 25.9165 94.9998H34.0553C35.6908 94.9998 37.0538 93.6922 37.0538 92.0383V89.2691C33.1207 89.1537 29.1876 89.0383 25.2934 88.846C24.3978 88.8075 23.6189 88.5383 22.918 88.1152Z" fill="white"/>
<path d="M68.9463 89.2691V92.0383C68.9463 93.6537 70.2703 94.9998 71.9448 94.9998H80.0836C81.7191 94.9998 83.0821 93.6922 83.0821 92.0383V88.1152C82.3811 88.5383 81.6023 88.7691 80.7456 88.8075C76.8125 89.0383 72.8794 89.1537 68.9463 89.2691Z" fill="white"/>
<path d="M87.4049 61.3845L83.9002 61.6922C82.4593 61.8075 81.2132 62.5768 80.4344 63.6537L76.034 55.1922C74.71 52.6152 72.2177 50.7691 69.336 50.2306C64.7409 49.346 59.2112 48.6152 52.9805 48.6152C52.8248 48.6152 52.7079 48.6152 52.5522 48.6152C46.4773 48.6152 41.1033 49.3075 36.5861 50.1922C33.7434 50.7691 31.29 52.5768 29.9271 55.1537C28.4473 57.9614 26.9675 60.8075 25.5267 63.6152C24.7479 62.5383 23.5017 61.8075 22.0609 61.6537L18.5561 61.346C16.7648 61.1922 15.1682 62.4999 15.0124 64.2691C14.8567 66.0383 16.1807 67.6152 17.972 67.7691L23.2291 68.2306C22.3724 70.346 21.9441 72.6537 21.9441 74.9229V83.9614C21.9441 85.846 23.4238 87.3845 25.332 87.4614C34.0938 87.8845 43.2841 88.1152 52.7858 88.1152C52.8637 88.1152 52.9026 88.1152 52.9805 88.1152C62.5602 88.1152 71.8283 87.8845 80.668 87.4614C82.5762 87.3845 84.0559 85.846 84.0559 83.9614V74.9229C84.0559 72.6152 83.6276 70.346 82.7709 68.2306L88.028 67.7691C89.8193 67.6152 91.1433 66.0383 90.9876 64.2691C90.7928 62.5383 89.1962 61.2306 87.4049 61.3845ZM32.8477 56.6537C33.7434 54.9614 35.34 53.7691 37.2092 53.3845C42.2716 52.3845 47.4508 51.8845 52.5911 51.846C52.7079 51.846 52.8637 51.846 52.9805 51.846C58.2376 51.846 63.5337 52.346 68.7129 53.3845C70.6211 53.7691 72.2177 54.9614 73.1133 56.6537L77.0854 63.6922C69.4139 62.9999 61.0414 62.5383 52.007 62.4999C42.6221 62.4999 37.0534 62.9614 29.1483 63.6922C29.966 62.1152 32.8477 56.6537 32.8477 56.6537ZM39.0784 77.6922C39.0784 77.7306 39.0784 77.7306 39.0784 77.6922C38.9226 78.3075 38.4553 78.8075 37.8322 78.9614C37.7933 78.9614 37.7933 78.9614 37.7544 78.9614C36.5861 79.1922 35.1842 79.346 33.6265 79.3075C32.8477 79.3075 32.1468 79.2306 31.4848 79.1537C30.1607 78.9614 28.9146 78.4999 27.8242 77.7691C27.1622 77.346 26.7728 76.6152 26.7728 75.8075V73.2691C26.7728 72.7306 27.1622 72.2691 27.6685 72.1152C27.7074 72.1152 27.7853 72.0768 27.8242 72.0768C28.5252 71.9999 29.1872 71.9229 29.8881 71.8845C30.667 71.8075 31.4848 71.9614 32.1857 72.346C32.5751 72.5768 33.0424 72.8075 33.5487 73.0768C34.9895 73.846 35.5736 74.1537 36.625 74.7306C37.0923 74.9999 37.7544 75.3845 38.5721 75.8845C39.0005 76.1537 39.2341 76.5768 39.1952 77.0768C39.1563 77.3075 39.1173 77.4998 39.0784 77.6922ZM63.5727 85.5383C63.5727 86.1922 63.0664 86.6922 62.4044 86.6922H43.8292C43.1672 86.6922 42.661 86.1922 42.661 85.5383V84.2691C42.661 83.6152 43.1672 83.1152 43.8292 83.1152H62.4044C63.0664 83.1152 63.5727 83.6152 63.5727 84.2691V85.5383ZM79.0714 77.7691C77.9811 78.4999 76.696 78.9614 75.4109 79.1537C74.7489 79.2306 74.0479 79.3075 73.2691 79.3075C71.6725 79.346 70.2706 79.1922 69.1024 78.9614C69.0634 78.9614 69.0634 78.9614 69.0245 78.9614C68.4014 78.8075 67.9341 78.346 67.7783 77.7306C67.7394 77.5383 67.7005 77.3075 67.7005 77.1537C67.6615 76.6922 67.8952 76.2306 68.3235 75.9614C69.1024 75.4614 69.7644 75.1152 70.2706 74.8075C71.322 74.1922 71.9062 73.9229 73.347 73.1537C73.8532 72.8845 74.3205 72.6152 74.71 72.4229C75.4109 72.0383 76.1897 71.8845 77.0075 71.9614C77.7085 72.0383 78.3705 72.1152 79.0714 72.1537C79.1104 72.1537 79.1882 72.1537 79.2272 72.1922C79.7334 72.3075 80.1228 72.7691 80.1228 73.346V75.8845C80.1618 76.6152 79.7334 77.346 79.0714 77.7691Z" fill="white"/>
<path d="M38.6499 15H67.5835C69.1412 15 70.4262 16.2692 70.4262 17.8077V19.6154C70.4262 21.1538 69.1412 22.4231 67.5835 22.4231H38.6499C37.0922 22.4231 35.8071 21.1538 35.8071 19.6154V17.8077C35.8461 16.2692 37.0922 15 38.6499 15Z" fill="white"/>
<path d="M27.6294 37.9229H29.1092C29.5376 37.9229 29.888 38.269 29.888 38.6921V44.6152C29.888 45.0382 29.5376 45.3844 29.1092 45.3844H27.6294C27.2011 45.3844 26.8506 45.0382 26.8506 44.6152V38.6921C26.8506 38.269 27.2011 37.9229 27.6294 37.9229Z" fill="white"/>
<path d="M40.0908 37.9229H41.5706C41.999 37.9229 42.3495 38.269 42.3495 38.6921V44.6152C42.3495 45.0382 41.999 45.3844 41.5706 45.3844H40.0908C39.6625 45.3844 39.312 45.0382 39.312 44.6152V38.6921C39.312 38.269 39.6625 37.9229 40.0908 37.9229Z" fill="white"/>
<path d="M40.0908 25.1152H41.5706C41.999 25.1152 42.3495 25.4614 42.3495 25.8845V31.8075C42.3495 32.2306 41.999 32.5768 41.5706 32.5768H40.0908C39.6625 32.5768 39.312 32.2306 39.312 31.8075V25.8845C39.312 25.4614 39.6625 25.1152 40.0908 25.1152Z" fill="white"/>
<path d="M52.5132 37.9229H53.993C54.4213 37.9229 54.7718 38.269 54.7718 38.6921V44.6152C54.7718 45.0382 54.4213 45.3844 53.993 45.3844H52.5132C52.0848 45.3844 51.7344 45.0382 51.7344 44.6152V38.6921C51.7344 38.269 52.0848 37.9229 52.5132 37.9229Z" fill="white"/>
<path d="M52.5132 25.1152H53.993C54.4213 25.1152 54.7718 25.4614 54.7718 25.8845V31.8075C54.7718 32.2306 54.4213 32.5768 53.993 32.5768H52.5132C52.0848 32.5768 51.7344 32.2306 51.7344 31.8075V25.8845C51.7344 25.4614 52.0848 25.1152 52.5132 25.1152Z" fill="white"/>
<path d="M64.9741 37.9229H66.4539C66.8823 37.9229 67.2328 38.269 67.2328 38.6921V44.6152C67.2328 45.0382 66.8823 45.3844 66.4539 45.3844H64.9741C64.5458 45.3844 64.1953 45.0382 64.1953 44.6152V38.6921C64.1953 38.269 64.5458 37.9229 64.9741 37.9229Z" fill="white"/>
<path d="M64.9741 25.1152H66.4539C66.8823 25.1152 67.2328 25.4614 67.2328 25.8845V31.8075C67.2328 32.2306 66.8823 32.5768 66.4539 32.5768H64.9741C64.5458 32.5768 64.1953 32.2306 64.1953 31.8075V25.8845C64.1953 25.4614 64.5458 25.1152 64.9741 25.1152Z" fill="white"/>
<path d="M71.2051 31.5H72.6849C73.1132 31.5 73.4637 31.8462 73.4637 32.2692V38.1923C73.4637 38.6154 73.1132 38.9615 72.6849 38.9615H71.2051C70.7767 38.9615 70.4263 38.6154 70.4263 38.1923V32.2692C70.4263 31.8462 70.7767 31.5 71.2051 31.5Z" fill="white"/>
<path d="M58.7046 31.5H60.1844C60.6128 31.5 60.9632 31.8462 60.9632 32.2692V38.1923C60.9632 38.6154 60.6128 38.9615 60.1844 38.9615H58.7046C58.2763 38.9615 57.9258 38.6154 57.9258 38.1923V32.2692C57.9258 31.8462 58.2763 31.5 58.7046 31.5Z" fill="white"/>
<path d="M46.2437 31.5H47.7235C48.1518 31.5 48.5023 31.8462 48.5023 32.2692V38.1923C48.5023 38.6154 48.1518 38.9615 47.7235 38.9615H46.2437C45.8153 38.9615 45.4648 38.6154 45.4648 38.1923V32.2692C45.4648 31.8462 45.8153 31.5 46.2437 31.5Z" fill="white"/>
<path d="M33.7823 31.5H35.262C35.6904 31.5 36.0409 31.8462 36.0409 32.2692V38.1923C36.0409 38.6154 35.6904 38.9615 35.262 38.9615H33.7823C33.3539 38.9615 33.0034 38.6154 33.0034 38.1923V32.2692C33.0034 31.8462 33.3539 31.5 33.7823 31.5Z" fill="white"/>
<path d="M77.397 37.9229H78.8768C79.3051 37.9229 79.6556 38.269 79.6556 38.6921V44.6152C79.6556 45.0382 79.3051 45.3844 78.8768 45.3844H77.397C76.9686 45.3844 76.6182 45.0382 76.6182 44.6152V38.6921C76.6182 38.269 76.9686 37.9229 77.397 37.9229Z" fill="white"/>
</g>
<defs>
<filter id="filter0_d" x="0" y="0" width="106" height="110" filterUnits="userSpaceOnUse" color-interpolation-filters="sRGB">
<feFlood flood-opacity="0" result="BackgroundImageFix"/>
<feColorMatrix in="SourceAlpha" type="matrix" values="0 0 0 0 0 0 0 0 0 0 0 0 0 0 0 0 0 0 127 0" result="hardAlpha"/>
<feOffset/>
<feGaussianBlur stdDeviation="7.5"/>
<feComposite in2="hardAlpha" operator="out"/>
<feColorMatrix type="matrix" values="0 0 0 0 1 0 0 0 0 0.866667 0 0 0 0 0 0 0 0 0.5 0"/>
<feBlend mode="normal" in2="BackgroundImageFix" result="effect1_dropShadow"/>
<feBlend mode="normal" in="SourceGraphic" in2="effect1_dropShadow" result="shape"/>
</filter>
</defs>
</svg>
