<svg width="166" height="110" viewBox="0 0 166 110" fill="none" xmlns="http://www.w3.org/2000/svg">
<g filter="url(#filter0_d)">
<path d="M150.945 52.4069C150.945 51.1931 150.065 50.1448 148.91 49.9241L143.247 48.8759C142.917 47.2207 142.477 45.6207 141.927 44.0207L146.326 40.2138C147.261 39.4414 147.481 38.1172 146.876 37.069L144.347 32.7655C143.742 31.7172 142.477 31.2759 141.322 31.6621L135.879 33.5931C134.779 32.3241 133.624 31.1103 132.304 30.0621L134.229 24.5448C134.614 23.3862 134.174 22.1172 133.129 21.5103L128.785 19.0276C127.74 18.4207 126.421 18.6414 125.651 19.5793L121.912 23.9931C120.317 23.4414 118.723 23 117.073 22.7241L115.973 16.9862C115.753 15.8828 114.709 15 113.499 15H108.55C107.34 15 106.296 15.8828 106.076 17.0414L105.031 22.7241C103.381 23.0552 101.787 23.4966 100.192 24.0483L96.3979 19.6345C95.6281 18.6966 94.3084 18.4759 93.2636 19.0828L88.9746 21.6207C87.9299 22.2276 87.49 23.4966 87.8749 24.6552L89.7995 30.1172C88.5348 31.2207 87.325 32.3793 86.2803 33.7034L80.7816 31.7724C79.6269 31.3862 78.3622 31.8276 77.7573 32.8759L75.2829 37.2345C74.678 38.2828 74.898 39.6069 75.8328 40.3793L80.2317 44.131C79.6819 45.731 79.242 47.331 78.967 48.9862L73.2484 50.0897C72.0387 50.3103 71.2139 51.3586 71.2139 52.5724V57.5379C71.2139 58.7517 72.0937 59.8 73.2484 60.0207L78.912 61.069C79.242 62.7241 79.6819 64.3241 80.2317 65.9241L75.8328 69.731C74.898 70.5034 74.678 71.8276 75.2829 72.8759L77.8123 77.1793C78.4172 78.2276 79.6819 78.669 80.8366 78.2828L86.2803 76.3517C87.38 77.6207 88.5348 78.8345 89.8544 79.8828L87.9299 85.4C87.545 86.5586 87.9849 87.8276 89.0296 88.4345L93.3736 90.9172C94.4184 91.5241 95.738 91.3035 96.5079 90.3655L100.247 85.9517C101.842 86.5034 103.436 86.9448 105.086 87.2207L106.186 92.9586C106.406 94.1724 107.45 95 108.66 95H113.664C114.874 95 115.918 94.1172 116.138 92.9586L117.183 87.2759C118.833 86.9448 120.427 86.5034 122.022 85.9517L125.816 90.3655C126.586 91.3035 127.96 91.5241 128.95 90.9172L133.239 88.3793C134.284 87.7724 134.724 86.5034 134.339 85.3448L132.414 79.8828C133.679 78.7793 134.889 77.6207 135.933 76.2966L141.432 78.2276C142.587 78.6138 143.852 78.1724 144.456 77.1241L146.931 72.7655C147.536 71.7172 147.316 70.3931 146.381 69.6207L141.982 65.869C142.532 64.269 142.972 62.669 143.247 61.0138L148.965 59.9103C150.175 59.6897 151 58.6414 151 57.4276L150.945 52.4069ZM111.079 83.1931C95.5731 83.1931 82.9811 70.5586 82.9811 55C82.9811 39.4414 95.5731 26.8069 111.079 26.8069C126.586 26.8069 139.178 39.4414 139.178 55C139.178 70.5586 126.586 83.1931 111.079 83.1931Z" fill="white"/>
<path d="M26.1797 78.4482V84.0758C26.1797 86.3931 28.0492 88.3241 30.4137 88.3241H41.906C44.2154 88.3241 46.1399 86.4482 46.1399 84.0758V80.1034C40.5863 79.9379 35.0326 79.7724 29.5339 79.4965C28.2692 79.4413 27.1695 79.0551 26.1797 78.4482Z" fill="white"/>
<path d="M73.9086 76.3516H55.7079C54.7731 76.3516 54.0583 75.6344 54.0583 74.6965V72.8758C54.0583 71.9379 54.7731 71.2206 55.7079 71.2206H71.9841C72.094 69.7861 72.7539 68.462 73.8536 67.4689L76.7679 64.9861C76.6579 64.5448 76.548 64.1585 76.438 63.7172L72.7539 62.9999C70.1695 62.5034 68.2449 60.2413 68.2449 57.593V52.6275C68.2449 49.9792 70.1145 47.662 72.6989 47.1654L76.438 46.4482C76.548 46.0068 76.6579 45.5654 76.7679 45.1792L73.9086 42.7517C73.5787 42.4758 73.3037 42.1448 73.0288 41.8137C71.1043 41.7585 69.1797 41.7034 67.2552 41.7034C54.0033 41.7034 46.1402 42.3654 34.9778 43.4137C36.1326 41.1517 40.2566 33.3172 40.2566 33.3172C41.5213 30.8896 43.7758 29.1792 46.4151 28.6275C53.5084 27.193 60.8217 26.4206 68.08 26.4206C68.2449 26.4206 68.4649 26.4206 68.6299 26.4206C74.3485 26.4206 80.0671 26.862 85.7308 27.7448L85.016 25.7585C84.686 24.8206 84.6311 23.8275 84.796 22.8896C79.9022 22.2275 74.5135 21.7861 68.6299 21.7861C68.4099 21.7861 68.2449 21.7861 68.025 21.7861C59.447 21.7861 51.8588 22.7241 45.4803 24.0482C41.4663 24.8206 38.0021 27.4689 36.0776 31.1654C33.9881 35.193 31.9536 39.2758 29.8641 43.3034C28.7643 41.7585 27.0047 40.7103 24.9702 40.4896L20.0214 40.0482C17.492 39.8827 15.2375 41.7585 15.0176 44.2965C14.7976 46.8344 16.6672 49.0965 19.1966 49.3172L26.6198 49.9792C25.4101 53.0137 24.8053 56.2689 24.8053 59.5792V72.5448C24.8053 75.2482 26.8948 77.4551 29.5891 77.5654C41.9612 78.1172 54.8831 78.4482 68.3549 78.4482C68.4649 78.4482 68.5199 78.4482 68.6299 78.4482C70.7743 78.4482 72.9188 78.4482 75.0633 78.4482L73.9086 76.3516ZM48.9995 63.4965C48.7796 64.3792 48.1197 65.0965 47.2399 65.3172C47.1849 65.3172 47.1849 65.3172 47.13 65.3172C45.4803 65.6482 43.5008 65.8689 41.3013 65.8137C40.2016 65.8137 39.2118 65.7034 38.2771 65.593C36.4075 65.3172 34.6479 64.6551 33.1083 63.6068C32.1735 62.9999 31.5687 61.9517 31.5687 60.793V57.1516C31.5687 56.3792 32.1185 55.7172 32.8334 55.4965C32.8883 55.4965 32.9983 55.4413 33.0533 55.4413C34.0431 55.3861 35.0328 55.2758 36.0226 55.1654C37.1223 55.0551 38.2771 55.2758 39.2668 55.8275C39.8167 56.1585 40.4765 56.4896 41.1914 56.8758C43.2259 57.9792 44.0507 58.4206 45.5353 59.2482C46.1952 59.6344 47.13 60.1861 48.2847 60.9034C48.8346 61.2896 49.1645 61.9517 49.1095 62.6689C49.1095 62.8896 49.0545 63.2206 48.9995 63.4965Z" fill="white"/>
<path d="M132.799 48.4895L116.688 32.3239C116.138 31.7722 115.204 31.7722 114.599 32.3239L106.461 40.4895C105.911 41.0412 105.911 41.9791 106.461 42.586L126.146 62.3377C126.696 62.8895 127.631 62.8895 128.236 62.3377L132.799 57.7584C133.074 57.4826 133.239 57.0964 133.239 56.7102V49.4826C133.239 49.0964 133.074 48.7653 132.799 48.4895Z" fill="white"/>
<path d="M130.82 43.9105C131.15 43.5795 131.15 43.0277 130.82 42.6967L126.036 37.8967C125.706 37.5657 125.156 37.5657 124.826 37.8967L123.892 38.8346L129.885 44.8484L130.82 43.9105Z" fill="white"/>
<path d="M93.9238 68.9031C93.209 69.6204 93.209 70.7238 93.9238 71.4411L97.388 74.9169C98.1028 75.6342 99.2026 75.6342 99.9174 74.9169L118.943 55.8273L112.949 49.8135L93.9238 68.9031Z" fill="white"/>
</g>
<defs>
<filter id="filter0_d" x="0" y="0" width="166" height="110" filterUnits="userSpaceOnUse" color-interpolation-filters="sRGB">
<feFlood flood-opacity="0" result="BackgroundImageFix"/>
<feColorMatrix in="SourceAlpha" type="matrix" values="0 0 0 0 0 0 0 0 0 0 0 0 0 0 0 0 0 0 127 0" result="hardAlpha"/>
<feOffset/>
<feGaussianBlur stdDeviation="7.5"/>
<feComposite in2="hardAlpha" operator="out"/>
<feColorMatrix type="matrix" values="0 0 0 0 1 0 0 0 0 0.866667 0 0 0 0 0 0 0 0 0.5 0"/>
<feBlend mode="normal" in2="BackgroundImageFix" result="effect1_dropShadow"/>
<feBlend mode="normal" in="SourceGraphic" in2="effect1_dropShadow" result="shape"/>
</filter>
</defs>
</svg>
