<svg width="136" height="110" viewBox="0 0 136 110" fill="none" xmlns="http://www.w3.org/2000/svg">
<g filter="url(#filter0_d)">
<path d="M21.873 88.9043V92.3779C21.873 93.8083 23.0224 95.0002 24.4759 95.0002H31.5409C32.9607 95.0002 34.1438 93.8423 34.1438 92.3779V89.926C30.7296 89.8238 27.3155 89.7216 23.9351 89.5513C23.1576 89.4832 22.4815 89.2449 21.873 88.9043Z" fill="white"/>
<path d="M61.8291 89.8919V92.3439C61.8291 93.7742 62.9784 94.9662 64.432 94.9662H71.497C72.9168 94.9662 74.0999 93.8083 74.0999 92.3439V88.9043C73.4914 89.2789 72.8153 89.4832 72.0717 89.5173C68.6575 89.6876 65.2433 89.8238 61.8291 89.8919Z" fill="white"/>
<path d="M77.8521 65.2009L74.8098 65.4734C73.559 65.5755 72.4773 66.2566 71.8012 67.2102L67.9814 59.718C66.8321 57.4363 64.6686 55.8016 62.1671 55.3249C58.1783 54.5416 53.3781 53.8945 47.9695 53.8945C47.8343 53.8945 47.7329 53.8945 47.5977 53.8945C42.3243 53.9286 37.6256 54.5416 33.7381 55.3249C31.2366 55.8357 29.107 57.4363 27.9577 59.718C26.6731 62.204 25.3886 64.7241 24.1378 67.2102C23.4618 66.2566 22.38 65.6096 21.1293 65.4734L18.087 65.2009C16.532 65.0647 15.146 66.2226 15.0108 67.7891C14.8756 69.3557 16.0249 70.7519 17.5799 70.8882L22.1434 71.2968C21.3997 73.1699 21.0279 75.2132 21.0279 77.2225V85.2255C21.0279 86.8942 22.3124 88.2564 23.9688 88.3245C31.5747 88.6991 39.5186 88.9035 47.8005 88.9035C47.8681 88.9035 47.9019 88.9035 47.9695 88.9035C56.2853 88.9035 64.3306 88.6991 72.0041 88.3245C73.6604 88.2564 74.945 86.8942 74.945 85.2255V77.2225C74.945 75.1791 74.5731 73.1699 73.8295 71.2968L78.393 70.8882C79.948 70.7519 81.0973 69.3557 80.9621 67.7891C80.793 66.2226 79.4071 65.0647 77.8521 65.2009ZM30.493 61.0121C31.2704 59.5137 32.6564 58.458 34.279 58.1174C38.6735 57.232 43.1356 56.7892 47.5977 56.7552C47.6991 56.7552 47.8343 56.7552 47.9357 56.7552C52.4992 56.7552 57.0966 57.1979 61.5925 58.1174C63.2489 58.458 64.6348 59.5137 65.4123 61.0121L68.8603 67.2442C62.2009 66.6312 54.9331 66.2226 47.0906 66.1885C38.9777 66.1885 34.11 66.5972 27.2478 67.2442C27.9915 65.882 30.493 61.0121 30.493 61.0121ZM35.9016 79.6744C35.7664 80.2193 35.3607 80.6621 34.8198 80.7983C34.786 80.7983 34.786 80.7983 34.7522 80.7983C33.7381 81.0026 32.5212 81.1388 31.169 81.1048C30.493 81.1048 29.8845 81.0367 29.3098 80.9686C28.1605 80.7983 27.0788 80.3896 26.1323 79.7426C25.5576 79.3679 25.2196 78.7209 25.2196 78.0057V75.7581C25.2196 75.2813 25.5576 74.8726 25.997 74.7364C26.0309 74.7364 26.0985 74.7024 26.1323 74.7024C26.7407 74.6343 27.3154 74.5661 27.9239 74.5321C28.5999 74.464 29.3098 74.6002 29.9183 74.9408C30.2563 75.1451 30.662 75.3494 31.1014 75.5878C32.3522 76.2689 32.8592 76.5413 33.7719 77.0522C34.1776 77.2906 34.7522 77.6311 35.4621 78.0738C35.834 78.3122 36.0368 78.6868 36.003 79.1296C35.9692 79.2998 35.9354 79.4701 35.9016 79.6744ZM57.1642 86.5877C57.1642 87.1666 56.7247 87.6093 56.1501 87.6093H40.0256C39.451 87.6093 39.0115 87.1666 39.0115 86.5877V85.4639C39.0115 84.8849 39.451 84.4422 40.0256 84.4422H56.1501C56.7247 84.4422 57.1642 84.8849 57.1642 85.4639V86.5877ZM70.6181 79.7426C69.6716 80.3896 68.5561 80.7983 67.4405 80.9686C66.8659 81.0367 66.2574 81.1048 65.5813 81.1048C64.1954 81.1388 62.9784 81.0026 61.9981 80.7983C61.9643 80.7983 61.9643 80.7983 61.9305 80.7983C61.3897 80.6621 60.984 80.2534 60.8488 79.7085C60.815 79.5382 60.7812 79.3339 60.7812 79.1977C60.7474 78.789 60.9502 78.3803 61.322 78.142C61.9981 77.6992 62.5728 77.3927 63.0122 77.1203C63.9249 76.5754 64.432 76.337 65.6827 75.6559C66.1222 75.4175 66.5278 75.1791 66.8659 75.0089C67.4743 74.6683 68.1504 74.5321 68.8603 74.6002C69.4688 74.6683 70.0434 74.7364 70.6519 74.7705C70.6857 74.7705 70.7533 74.7705 70.7871 74.8045C71.2266 74.9067 71.5646 75.3154 71.5646 75.8262V78.0738C71.5646 78.6868 71.1928 79.3339 70.6181 79.7426Z" fill="white"/>
<path d="M75.2152 48.0052C75.4181 48.4482 75.8915 48.6185 76.331 48.4482L77.5144 47.9371C77.954 47.7327 78.1231 47.2557 77.954 46.8127L77.4468 45.6202C77.2439 45.1773 76.7706 45.0069 76.331 45.1773L75.1476 45.6884C74.7081 45.8928 74.539 46.3698 74.708 46.8127L75.2152 48.0052Z" fill="white"/>
<path d="M71.8011 51.4102L72.3083 52.6027C72.5112 53.0456 72.9845 53.216 73.4241 53.0456L74.6075 52.4664C75.0471 52.262 75.2161 51.785 75.0471 51.342L74.5399 50.1495C74.337 49.7066 73.8636 49.5362 73.4241 49.7066L72.2407 50.2177C71.8011 50.4562 71.5982 50.9672 71.8011 51.4102Z" fill="white"/>
<path d="M69.9086 47.1195C70.1115 47.5624 70.5848 47.7328 71.0244 47.5624L72.2078 47.0513C72.6473 46.8469 72.8164 46.3699 72.6473 45.927L72.1402 44.7345C71.9373 44.2916 71.4639 44.1212 71.0244 44.2916L69.841 44.8026C69.4014 45.0071 69.2324 45.4841 69.4014 45.927L69.9086 47.1195Z" fill="white"/>
<path d="M70.4834 54.3383L69.2999 54.8494C68.8604 55.0538 68.6913 55.5308 68.8604 55.9738L69.3676 57.1663C69.5704 57.6092 70.0438 57.7796 70.4834 57.6092L71.6668 57.0981C72.1063 56.8937 72.2754 56.4167 72.1063 55.9738L71.5991 54.7813C71.3963 54.3383 70.9229 54.1339 70.4834 54.3383Z" fill="white"/>
<path d="M66.494 50.5246L67.0012 51.7171C67.204 52.1601 67.6774 52.3304 68.117 52.1601L69.3004 51.649C69.7399 51.4446 69.909 50.9676 69.7399 50.5246L69.2327 49.3321C69.0299 48.8892 68.5565 48.7189 68.117 48.8892L66.9335 49.4003C66.494 49.5706 66.2911 50.0817 66.494 50.5246Z" fill="white"/>
<path d="M64.6016 46.2337C64.7706 46.6767 65.2778 46.847 65.7174 46.6767L66.9008 46.1656C67.3403 45.9612 67.5094 45.4842 67.3403 45.0412L66.8332 43.8487C66.6303 43.4058 66.1569 43.2355 65.7174 43.4058L64.5001 43.951C64.0606 44.1554 63.8915 44.6324 64.0606 45.0753L64.6016 46.2337Z" fill="white"/>
<path d="M94.6869 31.1461L95.1264 23.8242H88.3656L87.96 30.7375C87.96 30.8737 88.0276 30.9758 88.0614 31.0099C88.0952 31.044 88.1966 31.1121 88.3318 31.1461L94.3489 31.5207C94.4841 31.5207 94.5855 31.4526 94.6193 31.4186C94.6193 31.3505 94.6869 31.2823 94.6869 31.1461Z" fill="white"/>
<path d="M120.344 49.1954C119.6 47.2202 118.282 45.2109 116.794 43.8487C115.78 42.8952 114.665 42.1459 113.515 41.3967L114.496 40.2729C114.732 40.0005 114.665 39.5918 114.36 39.4215L102.698 31.725C102.529 31.6228 102.326 31.5888 102.157 31.6909L92.7597 35.9138L92.8611 33.3937L94.4161 33.4959C94.7541 33.5299 95.0922 33.4618 95.3626 33.3256C96.0387 33.0191 96.5119 32.3721 96.5795 31.5547L97.4246 17.6261C97.4922 16.5023 96.6471 15.5146 95.4978 15.4465L88.9737 15.0038C87.8581 14.9357 86.8778 15.7871 86.8102 16.945L85.9651 30.8736C85.8975 31.9974 86.7426 32.9851 87.8919 33.0532L89.2103 33.1213L89.0075 37.5485L83.7679 39.8983C83.4636 40.0345 83.3622 40.3751 83.4636 40.6475L83.5989 40.9881C83.7341 41.2946 83.5989 41.6351 83.2946 41.7373L80.5903 42.9633C80.2861 43.0995 80.1847 43.4401 80.2861 43.7125L81.1312 45.6537C81.2664 45.9601 81.6044 46.0623 81.8749 45.9601L84.5792 44.7342C84.8834 44.5979 85.1876 44.7342 85.3228 45.0407C85.4581 45.3131 85.7961 45.4493 86.0665 45.3131L97.695 40.1026L97.8303 40.0345L99.7571 43.1676C99.9599 43.5082 100.433 43.6444 100.805 43.406C101.143 43.2017 101.278 42.7249 101.042 42.3503L99.25 39.4215L100.264 39.0129L102.833 40.5453L110 44.7342C110.236 44.8704 110.54 44.8363 110.71 44.5979L111.859 43.2698C113.042 44.019 114.124 44.7342 115.104 45.6196C117.538 47.8672 119.194 52.0561 118.18 53.4864C117.876 53.9291 117.2 53.9632 115.51 53.8951C113.684 53.8269 111.149 53.7588 107.971 54.8145C106.011 55.4616 100.839 57.1644 100.264 60.9445C99.9937 62.5792 100.67 64.3841 102.123 66.0528C103.475 67.5853 105.402 68.9475 107.701 69.9011C107.87 69.9692 108.005 70.0032 108.174 70.0032C108.647 70.0032 109.121 69.7308 109.324 69.254C109.594 68.607 109.29 67.8918 108.681 67.6194C104.456 65.8144 102.428 63.0219 102.698 61.3191C103.07 59.0374 107.363 57.6411 108.749 57.1644C111.521 56.2449 113.684 56.313 115.442 56.347C117.301 56.4151 119.093 56.4492 120.208 54.8827C121.223 53.6226 121.256 51.5793 120.344 49.1954ZM87.9595 31.4185C87.8243 31.4185 87.7229 31.3163 87.6891 31.2823C87.6553 31.2482 87.5877 31.1461 87.5877 30.9758L88.4328 17.0471C88.4328 16.9109 88.5342 16.8088 88.568 16.7747C88.6018 16.7406 88.6356 16.7406 88.6694 16.7066C88.7032 16.6725 88.7708 16.6725 88.8722 16.6725L95.4302 17.0812C95.5654 17.0812 95.6668 17.1834 95.7006 17.2174C95.7344 17.2515 95.802 17.3536 95.802 17.5239L94.9569 31.4526C94.9569 31.5888 94.8555 31.6909 94.8217 31.725C94.7879 31.7591 94.6865 31.8272 94.5175 31.8272L87.9595 31.4185Z" fill="white"/>
</g>
<defs>
<filter id="filter0_d" x="0" y="0" width="136" height="110" filterUnits="userSpaceOnUse" color-interpolation-filters="sRGB">
<feFlood flood-opacity="0" result="BackgroundImageFix"/>
<feColorMatrix in="SourceAlpha" type="matrix" values="0 0 0 0 0 0 0 0 0 0 0 0 0 0 0 0 0 0 127 0" result="hardAlpha"/>
<feOffset/>
<feGaussianBlur stdDeviation="7.5"/>
<feComposite in2="hardAlpha" operator="out"/>
<feColorMatrix type="matrix" values="0 0 0 0 1 0 0 0 0 0.866667 0 0 0 0 0 0 0 0 0.5 0"/>
<feBlend mode="normal" in2="BackgroundImageFix" result="effect1_dropShadow"/>
<feBlend mode="normal" in="SourceGraphic" in2="effect1_dropShadow" result="shape"/>
</filter>
</defs>
</svg>
