<svg width="146" height="134" viewBox="0 0 146 134" fill="none" xmlns="http://www.w3.org/2000/svg">
<g opacity="0.75">
<path d="M24.7081 48.9652L0.9114 52.21L2.96918 67.3014L26.7659 64.0566L24.7081 48.9652Z" fill="#EBEBEB"/>
<path d="M24.7097 48.9668C23.8729 50.0164 23.0145 51.0299 22.1705 52.0686C21.3157 53.0858 20.4572 54.1065 19.5952 55.1164C18.6935 56.1696 17.7882 57.2156 16.8829 58.2543C16.854 58.2868 16.8288 58.3192 16.8035 58.3553C15.9992 59.2714 15.1949 60.1912 14.387 61.1073L14.268 61.2371L14.1129 61.1434C13.0885 60.4761 12.0714 59.8052 11.0507 59.1344C11.0146 59.1127 10.9786 59.0911 10.9425 59.0659C9.78831 58.3084 8.63413 57.5438 7.48356 56.7647C6.38709 56.0289 5.28702 55.2751 4.19055 54.5249C3.09769 53.753 2.00122 53.0064 0.911964 52.2165C2.04089 52.8658 3.159 53.5547 4.28072 54.2255C5.40244 54.9108 6.52055 55.5961 7.63505 56.2958C8.87579 57.0677 10.1201 57.854 11.3609 58.6511C11.3645 58.6511 11.3645 58.6511 11.3681 58.6547C12.2986 59.2462 13.2256 59.8413 14.1562 60.44C14.8883 59.6177 15.6241 58.7881 16.3599 57.973C16.3635 57.9622 16.3635 57.9622 16.3671 57.9622C17.3482 56.8657 18.3328 55.7764 19.3247 54.6944C20.212 53.7278 21.1029 52.7612 22.001 51.809C22.9027 50.8568 23.7971 49.8937 24.7097 48.9668Z" fill="white"/>
<path d="M11.4433 58.9834C11.4325 58.9906 11.4289 59.005 11.4181 59.0123C11.3063 59.1349 11.198 59.2611 11.0862 59.3801C10.5596 59.9645 10.0114 60.5307 9.45596 61.0826C8.77788 61.7642 8.07816 62.4243 7.37484 63.0807C6.6643 63.7263 5.95376 64.372 5.21797 64.9959C4.48579 65.6199 3.74278 66.2331 2.96371 66.8102C3.59851 66.078 4.26938 65.3855 4.94746 64.7074C5.62914 64.0257 6.32886 63.3657 7.02858 62.7092C7.73912 62.06 8.45327 61.4144 9.18906 60.7904C9.77336 60.2927 10.3685 59.7985 10.9816 59.3297C11.1223 59.2178 11.2666 59.1132 11.4109 59.005C11.4181 59.0014 11.4325 58.9906 11.4433 58.9834Z" fill="white"/>
<path d="M26.646 63.582C25.7443 63.2358 24.8606 62.8426 23.9878 62.4387C23.1149 62.0347 22.2529 61.6055 21.3945 61.1727C20.5397 60.7291 19.6885 60.2818 18.8517 59.8057C18.17 59.4234 17.4919 59.0267 16.8319 58.6047C16.6876 58.5145 16.5506 58.4243 16.4099 58.3341C16.3991 58.3269 16.3882 58.3197 16.3774 58.3125C16.3882 58.3197 16.4027 58.3233 16.4171 58.3269C16.5866 58.3955 16.7525 58.4604 16.9184 58.5289C17.6362 58.8175 18.3359 59.1312 19.0356 59.4559C19.9085 59.8598 20.7705 60.289 21.6253 60.7255C22.4801 61.1691 23.3313 61.6163 24.1681 62.0924C25.0049 62.5613 25.8381 63.0482 26.646 63.582Z" fill="white"/>
<path d="M100.232 84.1934L94.675 107.674L131.7 116.436L137.257 92.9559L100.232 84.1934Z" fill="#EBEBEB"/>
<path d="M137.263 92.9593C135.427 94.0341 133.58 95.044 131.741 96.0936C129.898 97.1107 128.048 98.1278 126.197 99.1269C124.264 100.173 122.331 101.201 120.398 102.222C120.336 102.254 120.282 102.29 120.221 102.323C118.511 103.221 116.794 104.115 115.081 105.013L114.829 105.136L114.663 104.912C113.53 103.343 112.405 101.774 111.28 100.194C111.24 100.144 111.2 100.086 111.161 100.029C109.884 98.2468 108.618 96.4615 107.359 94.6544C106.158 92.9376 104.957 91.2027 103.767 89.4643C102.594 87.7005 101.393 85.9693 100.236 84.1875C101.534 85.7889 102.793 87.4444 104.07 89.0747C105.336 90.723 106.602 92.3749 107.85 94.0449C109.245 95.8916 110.634 97.7635 112.012 99.6499C112.019 99.6499 112.019 99.6499 112.023 99.6607C113.058 101.064 114.093 102.478 115.128 103.888C116.679 103.087 118.237 102.283 119.792 101.5C119.802 101.486 119.802 101.486 119.806 101.489C121.884 100.429 123.958 99.3794 126.039 98.3478C127.903 97.4209 129.768 96.5047 131.636 95.6066C133.519 94.723 135.384 93.8069 137.263 92.9593Z" fill="white"/>
<path d="M111.947 100.202C111.929 100.209 111.911 100.224 111.893 100.231C111.658 100.35 111.424 100.473 111.193 100.588C110.079 101.151 108.95 101.677 107.81 102.179C106.418 102.799 105.007 103.376 103.593 103.946C102.176 104.498 100.755 105.042 99.3158 105.547C97.8767 106.052 96.4268 106.536 94.9516 106.947C96.3078 106.229 97.6928 105.587 99.0814 104.97C100.477 104.35 101.891 103.773 103.298 103.203C104.722 102.648 106.14 102.103 107.583 101.598C108.73 101.194 109.891 100.804 111.063 100.462C111.334 100.379 111.604 100.303 111.882 100.227C111.9 100.217 111.925 100.209 111.947 100.202Z" fill="white"/>
<path d="M131.795 115.664C130.659 114.636 129.577 113.554 128.52 112.458C127.46 111.361 126.432 110.236 125.407 109.107C124.398 107.964 123.395 106.817 122.428 105.637C121.638 104.681 120.863 103.711 120.127 102.708C119.965 102.496 119.81 102.283 119.655 102.07C119.64 102.056 119.633 102.034 119.618 102.02C119.633 102.034 119.651 102.052 119.669 102.059C119.882 102.258 120.087 102.445 120.293 102.644C121.187 103.477 122.046 104.346 122.893 105.219C123.954 106.315 124.982 107.441 125.999 108.573C127.009 109.716 128.012 110.863 128.978 112.043C129.956 113.222 130.904 114.416 131.795 115.664Z" fill="white"/>
<path d="M129.169 8.48633H107.309V22.3509H129.169V8.48633Z" fill="#EBEBEB"/>
<path d="M129.169 8.48505C128.286 9.32904 127.388 10.137 126.497 10.9701C125.602 11.7817 124.701 12.5968 123.799 13.4011C122.858 14.2415 121.913 15.0711 120.968 15.897C120.939 15.9223 120.914 15.9511 120.881 15.9764C120.044 16.705 119.204 17.4335 118.363 18.1621L118.237 18.2631L118.115 18.1621C117.274 17.4335 116.437 16.705 115.601 15.9728C115.572 15.9511 115.543 15.9223 115.511 15.897C114.562 15.0711 113.617 14.2379 112.676 13.3939C111.777 12.5932 110.876 11.7817 109.981 10.9665C109.09 10.137 108.192 9.32544 107.309 8.48145C108.246 9.20641 109.17 9.96384 110.1 10.7068C111.027 11.4607 111.951 12.2181 112.87 12.9863C113.895 13.8339 114.919 14.696 115.94 15.5688C115.943 15.5688 115.943 15.5688 115.947 15.5724C116.712 16.2216 117.476 16.8709 118.241 17.5237C119.002 16.8709 119.767 16.2144 120.531 15.5724C120.535 15.5652 120.535 15.5652 120.538 15.5652C121.559 14.6996 122.58 13.8376 123.608 12.9827C124.528 12.2181 125.451 11.4607 126.374 10.7105C127.308 9.96745 128.232 9.21002 129.169 8.48505Z" fill="white"/>
<path d="M115.972 15.8857C115.961 15.893 115.954 15.9038 115.947 15.9074C115.832 16.0048 115.716 16.1058 115.601 16.1995C115.053 16.6612 114.49 17.1048 113.92 17.5341C113.224 18.0643 112.513 18.5764 111.796 19.0814C111.078 19.5755 110.353 20.0696 109.617 20.5421C108.878 21.0146 108.135 21.4763 107.363 21.9019C108.026 21.3212 108.715 20.7802 109.411 20.25C110.111 19.7198 110.822 19.2076 111.536 18.7027C112.257 18.2049 112.979 17.7108 113.718 17.2383C114.306 16.8596 114.905 16.4881 115.514 16.1418C115.655 16.0589 115.796 15.9795 115.94 15.9038C115.951 15.9002 115.961 15.893 115.972 15.8857Z" fill="white"/>
<path d="M129.115 21.9016C128.344 21.4796 127.597 21.0143 126.861 20.5418C126.122 20.0693 125.4 19.5752 124.679 19.0811C123.965 18.5761 123.251 18.0676 122.555 17.5338C121.988 17.1045 121.426 16.6645 120.881 16.1992C120.762 16.1019 120.647 16.0009 120.535 15.9035C120.524 15.8963 120.517 15.8854 120.51 15.8818C120.52 15.889 120.531 15.8963 120.542 15.8999C120.686 15.9828 120.827 16.0622 120.968 16.1415C121.577 16.4878 122.172 16.8593 122.764 17.238C123.503 17.7105 124.225 18.2046 124.942 18.7024C125.656 19.2073 126.371 19.7159 127.067 20.2497C127.766 20.7799 128.455 21.3209 129.115 21.9016Z" fill="white"/>
<path d="M100.987 94.987H37.3797V41.3441L69.1784 21.209L100.987 41.3441V94.987Z" fill="#FFC727"/>
<path opacity="0.2" d="M100.987 94.987H37.3797V41.3441L69.1784 21.209L100.987 41.3441V94.987Z" fill="black"/>
<path d="M97.4028 90.8823H40.9693V18.6582H82.8717L97.4028 32.4207V90.8823Z" fill="#EBEBEB"/>
<path d="M82.8718 18.6582L97.4028 32.4207H82.8718V18.6582Z" fill="#DBDBDB"/>
<path d="M46.4727 32.6318L77.85 32.6318V30.7793L46.4727 30.7793V32.6318Z" fill="#DBDBDB"/>
<path d="M46.4727 37.3115L77.85 37.3115V35.459L46.4727 35.459V37.3115Z" fill="#DBDBDB"/>
<path d="M46.4727 41.9922L77.85 41.9922V40.1396L46.4727 40.1396V41.9922Z" fill="#DBDBDB"/>
<path d="M46.4717 46.6719L92.446 46.6719V44.8193L46.4717 44.8193V46.6719Z" fill="#DBDBDB"/>
<path d="M46.4717 51.3564L92.446 51.3564V49.5039L46.4717 49.5039V51.3564Z" fill="#DBDBDB"/>
<path d="M46.4717 56.0371L92.446 56.0371V54.1846L46.4717 54.1846V56.0371Z" fill="#DBDBDB"/>
<path d="M46.4717 60.7168L92.446 60.7168V58.8643L46.4717 58.8643V60.7168Z" fill="#DBDBDB"/>
<path d="M46.4717 65.3965H92.446V63.5439L46.4717 63.5439V65.3965Z" fill="#DBDBDB"/>
<path d="M46.4717 70.0771H92.446V68.2246H46.4717V70.0771Z" fill="#DBDBDB"/>
<path d="M46.4717 74.7627H92.446V72.9101H46.4717V74.7627Z" fill="#DBDBDB"/>
<path d="M46.4717 79.4414H92.446V77.5889H46.4717V79.4414Z" fill="#DBDBDB"/>
<path d="M46.4717 84.1211H92.446V82.2685H46.4717V84.1211Z" fill="#DBDBDB"/>
<path d="M100.987 54.7676V94.9821H37.3797V54.7676C40.1113 56.3114 42.7971 57.9311 45.4982 59.5103C48.1942 61.1199 50.8852 62.7295 53.5609 64.3695C56.5412 66.1765 59.5215 68.0189 62.4917 69.8714C62.5222 69.8512 62.5577 69.8309 62.5882 69.8158C62.5577 69.836 62.5425 69.8613 62.512 69.8816C64.7358 71.2634 66.9648 72.6503 69.1886 74.0422C71.4073 72.6503 73.6312 71.2532 75.855 69.8816C75.8245 69.8613 75.8093 69.836 75.7788 69.8158C75.8093 69.836 75.8448 69.8562 75.8753 69.8613C78.8455 68.0138 81.8157 66.1765 84.8062 64.3593C87.4819 62.7295 90.1626 61.1098 92.8586 59.5103C95.575 57.9311 98.2557 56.3114 100.987 54.7676Z" fill="#FFC727"/>
<g opacity="0.2">
<path opacity="0.2" d="M100.987 54.7676C98.4182 56.5695 95.7984 58.2905 93.2141 60.062C90.6044 61.7931 87.9896 63.5292 85.3596 65.2401C82.6179 67.0319 79.866 68.8034 77.1141 70.5649C77.0278 70.6206 76.9517 70.6813 76.8654 70.737C74.4283 72.2909 71.9861 73.8397 69.5389 75.3936L69.1784 75.6113L68.823 75.3936C66.3758 73.8397 63.9438 72.2909 61.5067 70.7268C61.4204 70.6813 61.3341 70.6206 61.2478 70.5649C58.4858 68.8034 55.7339 67.0319 52.9922 65.2299C50.3724 63.5242 47.7576 61.7931 45.1479 60.057C42.5686 58.2905 39.9488 56.5695 37.3797 54.7676C40.1113 56.3114 42.7971 57.9311 45.4982 59.5103C48.1942 61.1199 50.8852 62.7295 53.5609 64.3695C56.5412 66.1765 59.5215 68.0189 62.4917 69.8714C62.5019 69.8714 62.5019 69.8714 62.512 69.8816C64.7358 71.2634 66.9648 72.6503 69.1886 74.0422C71.4073 72.6503 73.6312 71.2532 75.855 69.8816C75.8651 69.8613 75.8651 69.8613 75.8753 69.8613C78.8455 68.0138 81.8157 66.1765 84.8062 64.3593C87.4819 62.7295 90.1626 61.1098 92.8586 59.5103C95.575 57.9311 98.2557 56.3114 100.987 54.7676Z" fill="black"/>
<path opacity="0.2" d="M62.5881 69.8164C62.5577 69.8367 62.5424 69.862 62.512 69.8822C62.1769 70.1657 61.8418 70.4542 61.5067 70.7275C59.9124 72.0688 58.2776 73.3545 56.6173 74.6047C54.5915 76.1485 52.52 77.6214 50.4383 79.0893C48.3465 80.5268 46.2445 81.9541 44.0969 83.3258C41.9492 84.6975 39.7812 86.0389 37.532 87.2688C39.4613 85.5833 41.4668 84.0142 43.4927 82.4806C45.5286 80.9368 47.6001 79.4638 49.6717 77.996C51.7736 76.5483 53.8756 75.121 56.0233 73.7493C57.7343 72.656 59.4707 71.5778 61.2477 70.5706C61.659 70.3327 62.0703 70.1049 62.4917 69.8771C62.5221 69.8569 62.5577 69.8367 62.5881 69.8164Z" fill="black"/>
<path opacity="0.2" d="M100.835 87.2737C98.5909 86.0438 96.4127 84.7024 94.2701 83.3307C92.1225 81.959 90.0205 80.5317 87.9185 79.0942C85.8368 77.6263 83.7653 76.1534 81.7395 74.6096C80.0843 73.3644 78.4545 72.0838 76.8654 70.7425C76.5201 70.4591 76.185 70.1705 75.855 69.8871C75.8245 69.8668 75.8093 69.8415 75.7788 69.8213C75.8093 69.8415 75.8448 69.8618 75.8753 69.8668C76.2967 70.1047 76.708 70.3325 77.1192 70.5704C78.8963 71.5777 80.6225 72.6558 82.3437 73.7491C84.4914 75.1208 86.5934 76.5482 88.6852 77.9958C90.7668 79.4637 92.8384 80.9366 94.8642 82.4804C96.9001 84.0141 98.9056 85.5882 100.835 87.2737Z" fill="black"/>
</g>
<path d="M49.79 33.7912H49.2326V33.4975H49.79C50.1236 33.4975 50.4612 33.4975 50.7988 33.4936L50.8027 33.7873C50.4612 33.7873 50.1236 33.7912 49.79 33.7912ZM47.266 33.7638C46.7321 33.752 46.2101 33.7364 45.6959 33.7168L45.7076 33.4232C46.2219 33.4427 46.7439 33.4584 47.2738 33.4701L47.266 33.7638ZM52.7653 33.7559L52.7575 33.4623C53.2717 33.4506 53.7977 33.4349 54.3237 33.4192L54.3355 33.7129C53.8055 33.7285 53.2835 33.7442 52.7653 33.7559ZM56.2981 33.6307L56.2824 33.337C56.7966 33.3135 57.3187 33.2861 57.8486 33.2587L57.8643 33.5524C57.3383 33.5837 56.8163 33.6072 56.2981 33.6307ZM43.7293 33.6228C43.1954 33.5915 42.6734 33.5563 42.1592 33.5171L42.1827 33.2235C42.693 33.2626 43.2151 33.2979 43.745 33.3292L43.7293 33.6228ZM59.8309 33.431L59.8113 33.1374C60.3255 33.1021 60.8475 33.0669 61.3775 33.0277L61.401 33.3214C60.8672 33.3605 60.3451 33.3997 59.8309 33.431ZM40.2044 33.3449C39.6744 33.29 39.1524 33.2313 38.6421 33.1687L38.6774 32.879C39.1877 32.9416 39.7059 33.0003 40.2318 33.0551L40.2044 33.3449ZM63.3558 33.1648L63.3323 32.8711C63.8465 32.8281 64.3685 32.7811 64.8945 32.7341L64.922 33.0277C64.3921 33.0747 63.87 33.1217 63.3558 33.1648ZM36.6951 32.8946C36.1652 32.8124 35.651 32.7224 35.1446 32.6284L35.1996 32.3387C35.702 32.4326 36.2163 32.5188 36.7422 32.601L36.6951 32.8946ZM66.8729 32.8398L66.8415 32.5462C67.3557 32.4953 67.8778 32.4405 68.4038 32.3857L68.4352 32.6793C67.9092 32.7341 67.391 32.7889 66.8729 32.8398ZM70.39 32.464L70.3546 32.1703L70.7629 32.1234C71.1475 32.0803 71.5283 32.0333 71.913 31.9824L71.9522 32.2721C71.5676 32.323 71.1829 32.37 70.7982 32.417L70.39 32.464ZM33.2134 32.2369C32.6953 32.1194 32.181 31.9942 31.6825 31.865L31.7571 31.5792C32.2478 31.7084 32.7581 31.8336 33.2762 31.9511L33.2134 32.2369ZM73.8953 31.9863L73.8482 31.6966C74.3663 31.6144 74.8805 31.5244 75.3947 31.4304L75.4497 31.7201C74.9315 31.8141 74.4134 31.9041 73.8953 31.9863ZM77.3809 31.3364L77.3221 31.0506C77.8323 30.9449 78.3426 30.8314 78.8529 30.7139L78.9197 30.9997C78.4054 31.1172 77.8951 31.2307 77.3809 31.3364ZM29.7945 31.3169C29.2881 31.1563 28.7856 30.9841 28.3028 30.8079L28.4049 30.5338C28.8799 30.71 29.3784 30.8784 29.8847 31.0389L29.7945 31.3169ZM80.8274 30.5378L80.7528 30.252C81.2591 30.1228 81.7655 29.9897 82.2679 29.8526L82.3464 30.1345C81.8401 30.2755 81.3337 30.4086 80.8274 30.5378ZM26.4776 30.068C25.9908 29.8526 25.5119 29.6256 25.0527 29.3907L25.1861 29.1283C25.6376 29.3593 26.1125 29.5864 26.5953 29.7978L26.4776 30.068ZM84.2345 29.5982L84.1521 29.3163C84.6506 29.1675 85.1491 29.0148 85.6476 28.8621L85.734 29.144C85.2355 29.2967 84.737 29.4494 84.2345 29.5982ZM87.6064 28.5372L87.5121 28.2592C88.0107 28.0948 88.5052 27.9225 88.9959 27.7502L89.094 28.0282C88.5995 28.2005 88.1049 28.3727 87.6064 28.5372ZM23.3334 28.4276C22.882 28.1496 22.4384 27.856 22.0184 27.5545L22.1911 27.3157C22.6072 27.6132 23.0429 27.9029 23.4904 28.177L23.3334 28.4276ZM90.9429 27.3627L90.8408 27.0886C91.3315 26.9046 91.8221 26.7206 92.3089 26.5327L92.4149 26.8067C91.9281 26.9946 91.4375 27.1787 90.9429 27.3627ZM20.4719 26.333C20.0754 25.9885 19.6868 25.6244 19.3217 25.2524L19.5298 25.045C19.8909 25.413 20.2717 25.7692 20.6642 26.1098L20.4719 26.333ZM94.244 26.0864L94.1341 25.8123C94.6209 25.6165 95.1037 25.4169 95.5826 25.2172L95.6964 25.4874C95.2175 25.687 94.7308 25.8867 94.244 26.0864ZM97.5021 24.7122L97.3843 24.442C97.8671 24.2306 98.346 24.0192 98.817 23.8039L98.9387 24.0701C98.4677 24.2893 97.9888 24.5008 97.5021 24.7122ZM18.0028 23.7843C17.6535 23.3497 17.3591 22.9034 17.1196 22.4571L17.3787 22.3201C17.6064 22.7507 17.8929 23.1814 18.2305 23.6003L18.0028 23.7843ZM100.725 23.2558L100.599 22.9895C101.078 22.7664 101.549 22.5393 102.016 22.3162L102.146 22.5824C101.679 22.8055 101.208 23.0287 100.725 23.2558ZM103.912 21.7132L103.779 21.4509C104.254 21.216 104.721 20.9772 105.18 20.7423L105.313 21.0046C104.854 21.2395 104.387 21.4783 103.912 21.7132ZM16.4563 20.5779C16.3895 20.2255 16.3581 19.8653 16.3581 19.5052C16.3581 19.329 16.366 19.1528 16.3817 18.9805L16.6761 19.004C16.6604 19.1685 16.6525 19.3368 16.6525 19.5052C16.6525 19.8458 16.6839 20.1903 16.7467 20.5231L16.4563 20.5779ZM107.056 20.0963L106.919 19.8379C107.39 19.5874 107.853 19.3407 108.304 19.098L108.446 19.3564C107.99 19.5991 107.531 19.8497 107.056 20.0963ZM110.165 18.405L110.02 18.1505C110.487 17.8882 110.942 17.6298 111.386 17.3793L111.531 17.6338C111.091 17.8843 110.636 18.1427 110.165 18.405ZM17.1236 17.1561L16.8488 17.0504C17.0333 16.5806 17.2727 16.103 17.5632 15.6293L17.8144 15.7819C17.5318 16.24 17.3002 16.702 17.1236 17.1561ZM113.235 16.6433L113.086 16.3888C113.553 16.1108 114.004 15.8446 114.432 15.5823L114.585 15.8328C114.157 16.0991 113.706 16.3653 113.235 16.6433ZM116.261 14.8071L116.104 14.5565C116.583 14.259 117.027 13.9771 117.431 13.7187L117.592 13.9654C117.187 14.2277 116.744 14.5096 116.261 14.8071ZM18.9488 14.2159L18.7251 14.028C19.0509 13.6443 19.412 13.2528 19.8006 12.8691L20.0087 13.0766C19.624 13.4564 19.2707 13.8362 18.9488 14.2159ZM119.24 12.8887L119.076 12.646C119.919 12.0822 120.375 11.7612 120.375 11.7573L120.548 11.9961C120.548 11.9961 120.092 12.321 119.24 12.8887ZM21.4571 11.7729L21.2687 11.5459C21.6573 11.2248 22.0773 10.896 22.513 10.5749L22.6896 10.8098C22.2539 11.1309 21.8418 11.4558 21.4571 11.7729ZM24.2912 9.69795L24.1302 9.45131C24.562 9.16942 25.0095 8.89145 25.4688 8.6174L25.6179 8.86796C25.1665 9.14202 24.719 9.41999 24.2912 9.69795ZM27.3254 7.90878L27.1841 7.65038C27.6395 7.40765 28.1105 7.16492 28.5855 6.93001L28.715 7.19232C28.244 7.42331 27.7768 7.66604 27.3254 7.90878ZM30.4892 6.36233L30.3715 6.09219C30.8582 5.87687 31.3489 5.67328 31.8238 5.48145L31.9337 5.7555C31.4588 5.94342 30.972 6.147 30.4892 6.36233Z" fill="#263238"/>
<path d="M122.746 5.06988L120.461 11.8782L125.521 7.71646L145.088 0.046875L122.746 5.06988Z" fill="#FFC727"/>
<path opacity="0.1" d="M122.746 5.06988L120.461 11.8782L125.521 7.71646L145.088 0.046875L122.746 5.06988Z" fill="black"/>
<path d="M126.227 9.27107L120.461 11.8785L125.521 7.7168L126.227 9.27107Z" fill="#263238"/>
<path d="M125.521 7.71646L145.088 0.046875L129.305 16.2474L125.521 7.71646Z" fill="#FFC727"/>
<path d="M122.746 5.06999L114.393 0L145.088 0.0469806L122.746 5.06999Z" fill="#FFC727"/>
<path d="M114.942 86.8552C114.754 86.6751 114.565 86.495 114.373 86.3188L114.573 86.1035C114.765 86.2836 114.958 86.4637 115.146 86.6438L114.942 86.8552Z" fill="#263238"/>
<path d="M112.359 117.886L112.351 117.593C112.877 117.581 113.403 117.546 113.914 117.495L113.941 117.789C113.427 117.84 112.893 117.875 112.359 117.886ZM110.381 117.855C109.867 117.824 109.333 117.781 108.803 117.718L108.838 117.428C109.364 117.491 109.89 117.534 110.401 117.565L110.381 117.855ZM115.904 117.491L115.845 117.205C116.363 117.096 116.873 116.966 117.356 116.814L117.443 117.096C116.948 117.244 116.43 117.378 115.904 117.491ZM106.844 117.421C106.338 117.327 105.816 117.217 105.298 117.096L105.364 116.81C105.883 116.931 106.397 117.041 106.899 117.131L106.844 117.421ZM103.386 116.591C102.888 116.446 102.381 116.285 101.879 116.117L101.973 115.839C102.471 116.007 102.974 116.168 103.468 116.313L103.386 116.591ZM119.291 116.375L119.166 116.109C119.641 115.886 120.1 115.635 120.528 115.361L120.685 115.608C120.249 115.89 119.778 116.144 119.291 116.375ZM100.026 115.44C99.5392 115.248 99.0486 115.048 98.5658 114.841L98.6835 114.57C99.1624 114.778 99.6531 114.978 100.136 115.166L100.026 115.44ZM122.275 114.41L122.078 114.195C122.463 113.846 122.824 113.466 123.146 113.071L123.374 113.255C123.04 113.662 122.671 114.05 122.275 114.41ZM96.7641 114.022C96.2969 113.799 95.8259 113.564 95.3509 113.322L95.4844 113.059C95.9554 113.302 96.4265 113.533 96.8897 113.756L96.7641 114.022ZM93.616 112.386C93.1528 112.127 92.6974 111.861 92.2539 111.595L92.407 111.344C92.8505 111.611 93.3019 111.873 93.7651 112.131L93.616 112.386ZM124.477 111.603L124.218 111.462C124.461 111.012 124.673 110.538 124.85 110.049L125.128 110.146C124.944 110.655 124.728 111.141 124.477 111.603ZM90.5817 110.554C90.1381 110.268 89.7024 109.974 89.2706 109.681L89.4394 109.438C89.8673 109.731 90.303 110.021 90.7426 110.307L90.5817 110.554ZM87.6613 108.541C87.2373 108.228 86.8173 107.911 86.4012 107.594L86.5818 107.363C86.994 107.684 87.4101 107.997 87.834 108.306L87.6613 108.541ZM125.631 108.228L125.34 108.177C125.427 107.676 125.482 107.159 125.505 106.635L125.8 106.646C125.772 107.187 125.717 107.719 125.631 108.228ZM84.8625 106.365C84.4543 106.032 84.0539 105.691 83.6535 105.351L83.8459 105.127C84.2423 105.468 84.6427 105.805 85.0509 106.137L84.8625 106.365ZM125.45 104.697C125.403 104.192 125.325 103.675 125.226 103.158L125.517 103.103C125.619 103.628 125.697 104.156 125.745 104.669L125.45 104.697ZM82.1776 104.051C81.789 103.702 81.4004 103.346 81.0157 102.99L81.2159 102.774C81.5967 103.131 81.9853 103.483 82.3739 103.831L82.1776 104.051ZM79.5908 101.639C79.214 101.275 78.8372 100.907 78.4643 100.539L78.6723 100.331C79.0452 100.699 79.4181 101.067 79.795 101.432L79.5908 101.639ZM124.748 101.267C124.598 100.786 124.43 100.288 124.237 99.7951L124.512 99.6894C124.708 100.19 124.881 100.696 125.03 101.185L124.748 101.267ZM77.0787 99.1452C76.7136 98.7732 76.3446 98.3974 75.9796 98.0215L76.1915 97.818C76.5566 98.1938 76.9216 98.5696 77.2906 98.9416L77.0787 99.1452ZM123.456 98.0059C123.232 97.5439 122.989 97.078 122.738 96.6199L122.997 96.479C123.256 96.9449 123.499 97.4147 123.723 97.8806L123.456 98.0059ZM74.6096 96.6082C74.2485 96.2324 73.8874 95.8526 73.5223 95.4728L73.7343 95.2693C74.0993 95.649 74.4605 96.0288 74.8216 96.4046L74.6096 96.6082ZM121.737 94.9365C121.462 94.5058 121.168 94.0713 120.865 93.6367L121.105 93.4683C121.411 93.9029 121.709 94.3453 121.984 94.7799L121.737 94.9365ZM72.1681 94.0517L71.0808 92.9124L71.2928 92.7088L72.3801 93.8481L72.1681 94.0517ZM119.696 92.0667C119.382 91.6674 119.052 91.2563 118.707 90.8492L118.93 90.6612C119.276 91.0723 119.609 91.4834 119.923 91.8867L119.696 92.0667ZM69.7226 91.4951C69.3615 91.1193 68.9964 90.7435 68.6275 90.3676L68.8394 90.164C69.2084 90.5399 69.5735 90.9196 69.9346 91.2916L69.7226 91.4951ZM117.411 89.3771C117.066 88.9973 116.705 88.6176 116.336 88.2378L116.548 88.0342C116.92 88.4179 117.282 88.8016 117.631 89.1814L117.411 89.3771ZM67.2497 88.966C66.8846 88.598 66.5117 88.2261 66.1388 87.8542L66.3469 87.6467C66.7198 88.0186 67.0927 88.3905 67.4577 88.7585L67.2497 88.966ZM64.7375 86.4839C64.3646 86.1237 63.9838 85.7596 63.6031 85.3955L63.8072 85.1841C64.1919 85.5482 64.5687 85.9123 64.9455 86.2725L64.7375 86.4839ZM62.1664 84.0566C61.7857 83.7042 61.3971 83.3518 61.0045 82.9995L61.2008 82.7803C61.5933 83.1326 61.9819 83.485 62.3666 83.8373L62.1664 84.0566ZM59.5325 81.7036C59.14 81.363 58.7436 81.0224 58.3392 80.6818L58.5277 80.4586C58.932 80.7992 59.3323 81.1398 59.7249 81.4805L59.5325 81.7036ZM56.828 79.429C56.4237 79.1001 56.0155 78.7752 55.6033 78.4463L55.7839 78.2153C56.1999 78.5442 56.6082 78.8691 57.0125 79.198L56.828 79.429ZM54.0489 77.2483C53.6367 76.9351 53.2167 76.6219 52.7889 76.3087L52.9655 76.0738C53.3934 76.387 53.8134 76.7002 54.2255 77.0173L54.0489 77.2483ZM51.1991 75.1616C50.7752 74.864 50.3473 74.5626 49.9077 74.265L50.0725 74.0223C50.5083 74.3198 50.94 74.6213 51.364 74.9227L51.1991 75.1616ZM48.2787 73.1688C47.843 72.883 47.4033 72.6011 46.9598 72.3153L47.1168 72.0687C47.5643 72.3545 48.0039 72.6403 48.4396 72.9222L48.2787 73.1688ZM45.2915 71.2778C44.848 71.0077 44.4005 70.7376 43.9451 70.4674L44.0943 70.2169C44.5496 70.487 45.0011 70.7571 45.4446 71.0273L45.2915 71.2778ZM42.2455 69.4847C41.7941 69.2303 41.3387 68.9719 40.8716 68.7174L41.0129 68.459C41.4761 68.7135 41.9354 68.9719 42.3868 69.2264L42.2455 69.4847ZM39.1445 67.7895C38.6852 67.5468 38.222 67.308 37.751 67.0652L37.8845 66.8029C38.3555 67.0457 38.8226 67.2845 39.2819 67.5272L39.1445 67.7895ZM35.9925 66.1844C35.5254 65.9534 35.0543 65.7263 34.5754 65.4992L34.701 65.233C35.1799 65.4601 35.651 65.6911 36.1181 65.9181L35.9925 66.1844ZM32.7973 64.6692C32.3262 64.4539 31.8474 64.2386 31.3645 64.0233L31.4823 63.7531C31.9651 63.9684 32.444 64.1838 32.919 64.3991L32.7973 64.6692ZM29.5628 63.2442C29.0839 63.0406 28.6011 62.837 28.1105 62.6373L28.2243 62.3672C28.715 62.5708 29.1978 62.7744 29.6767 62.9779L29.5628 63.2442Z" fill="#263238"/>
<path d="M26.1949 61.8577C25.9516 61.7598 25.7082 61.6659 25.4648 61.568L25.5708 61.2939C25.8181 61.3879 26.0615 61.4858 26.3048 61.5837L26.1949 61.8577Z" fill="#263238"/>
<path d="M27.1292 56.9529L29.7199 64.0587L24.2755 59.8187L3.45571 52.2861L27.1292 56.9529Z" fill="#FFC727"/>
<path opacity="0.1" d="M27.1292 56.9529L29.7199 64.0587L24.2755 59.8187L3.45571 52.2861L27.1292 56.9529Z" fill="black"/>
<path d="M23.5768 61.4744L29.7199 64.0584L24.2755 59.8184L23.5768 61.4744Z" fill="#263238"/>
<path d="M24.2755 59.8187L3.45571 52.2861L20.5347 68.9094L24.2755 59.8187Z" fill="#FFC727"/>
<path d="M27.1292 56.952L35.7806 51.3809L3.4557 52.2852L27.1292 56.952Z" fill="#FFC727"/>
<path d="M30.8313 88.5294C35.2092 90.5877 37.946 99.0336 35.7398 105.898C33.3548 113.316 25.7238 114.734 21.3373 113.149C16.6826 111.467 15.2724 106.346 17.3892 103.28C19.4339 100.32 22.7937 99.4442 23.7079 96.7399C24.1434 95.4451 24.0857 93.0538 24.6452 91.1131C25.271 88.9456 28.1838 87.2834 30.8313 88.5294Z" fill="#263238"/>
<path d="M32.5213 89.707C34.2344 91.5271 35.5725 93.7061 36.4291 96.063C36.8617 97.2429 37.1299 98.4802 37.251 99.7319C37.3058 100.358 37.3173 100.989 37.2914 101.618C37.2625 102.247 37.1847 102.87 37.0866 103.49C36.6656 105.956 35.6533 108.384 33.9056 110.222C33.0375 111.138 32.008 111.898 30.8775 112.452C29.7441 113.001 28.5213 113.357 27.2754 113.489C29.7527 113.121 32.0887 111.918 33.7557 110.081C35.437 108.25 36.4291 105.878 36.8242 103.444C36.9222 102.835 37.0059 102.218 37.0376 101.601C37.0693 100.984 37.0607 100.366 37.0116 99.7491C36.902 98.5175 36.6338 97.3003 36.2359 96.1261C35.8379 94.952 35.3101 93.8209 34.6843 92.7443C34.0614 91.6707 33.3404 90.6458 32.5213 89.707Z" fill="#263238"/>
<path d="M24.1925 93.582C24.1492 94.271 24.0656 94.96 23.8983 95.6375C23.7253 96.3122 23.4571 96.9667 23.0764 97.561C22.6986 98.1552 22.191 98.6691 21.62 99.0825C21.0489 99.4815 20.4866 99.8777 19.9473 100.303C18.8629 101.141 17.8708 102.123 17.196 103.311C16.5154 104.494 16.2645 105.906 16.4721 107.276C16.325 106.601 16.2789 105.898 16.3741 105.206C16.4173 104.859 16.5009 104.517 16.6105 104.187C16.7172 103.854 16.8557 103.529 17.0201 103.219C17.6718 101.968 18.6985 100.966 19.7829 100.099C20.3308 99.6653 20.9105 99.2777 21.4758 98.8873C22.0324 98.4997 22.514 98.0088 22.9004 97.449C23.6878 96.3236 23.9992 94.9428 24.1925 93.582Z" fill="#263238"/>
<path d="M93.0902 129.768C92.4471 130.015 73.7561 130.845 73.0236 130.428C72.9429 130.382 72.9659 129.561 72.692 127.437C72.6775 127.336 72.2507 126.94 71.5874 126.386C69.087 124.299 63.2153 119.904 63.2153 119.904L72.542 111.837L81.5803 120.682L83.9307 122.981C83.9307 122.981 91.5675 126.596 92.323 127.135C93.0758 127.681 93.7333 129.521 93.0902 129.768Z" fill="#F7A9A0"/>
<path d="M93.0931 129.767C92.45 130.011 73.759 130.844 73.0265 130.427C72.9458 130.381 72.9688 129.56 72.6949 127.436C75.3683 127.838 89.6179 128.576 90.114 126.905C90.3072 126.247 88.1904 125.047 87.8068 124.838C89.8227 125.814 91.9453 126.862 92.326 127.135C93.0729 127.677 93.7333 129.52 93.0931 129.767Z" fill="#263238"/>
<path d="M78.284 116.55L76.8449 118.184L69.6667 126.34C69.6667 126.34 59.7863 119.191 56.885 116.832C56.7898 116.754 45.3838 124.789 37.0405 126.34C30.6468 127.528 26.2949 125.128 23.7887 119.191L34.3584 114.535C43.2179 110.189 53.1993 103.27 59.2354 103.996C65.7936 104.789 78.284 116.55 78.284 116.55Z" fill="#37474F"/>
<path d="M76.0259 115.957C74.5522 117.544 74.953 117.068 73.4966 118.672C72.7843 119.456 69.1938 123.392 68.6516 124.233C68.6401 124.25 68.666 124.276 68.6833 124.262C69.4591 123.627 72.9631 119.617 73.661 118.819C75.0886 117.191 74.6617 117.642 76.0691 116C76.098 115.965 76.0547 115.928 76.0259 115.957Z" fill="#263238"/>
<path d="M75.7028 119.485L69.6667 126.343C69.6667 126.343 59.7834 119.192 56.885 116.835C56.7927 116.758 45.3838 124.793 37.0434 126.343C30.6468 127.532 26.2978 125.129 23.7916 119.192L34.3613 114.536C35.5351 113.959 36.7262 113.338 37.9288 112.698C47.2094 114.383 67.5499 118.026 75.7028 119.485Z" fill="#263238"/>
<path d="M91.553 133.224C90.9099 133.471 72.219 134.301 71.4864 133.884C71.4057 133.838 71.4288 133.017 71.1548 130.893C71.1404 130.792 70.7135 130.396 70.0502 129.842C67.5498 127.755 61.6781 123.36 61.6781 123.36L71.0048 115.293L80.0431 124.138L82.3936 126.437C82.3936 126.437 90.0303 130.052 90.7859 130.591C91.5357 131.134 92.1961 132.977 91.553 133.224Z" fill="#F7A9A0"/>
<path d="M91.5529 133.223C90.9098 133.467 72.2189 134.3 71.4864 133.883C71.4085 133.835 71.4287 133.016 71.1547 130.892C73.8281 131.294 88.0778 132.032 88.5738 130.361C88.767 129.704 86.6502 128.504 86.2666 128.294C88.2825 129.27 90.4051 130.318 90.7858 130.591C91.5356 131.133 92.1961 132.976 91.5529 133.223Z" fill="#263238"/>
<path d="M85.7736 128.1C85.0151 127.698 84.2595 127.288 83.4866 126.909C83.1204 126.731 82.7772 126.556 82.4715 126.28C82.1571 125.993 81.8572 125.689 81.5486 125.396C80.297 124.205 79.0482 123.007 77.7821 121.828C77.0986 121.187 76.4209 120.541 75.7461 119.895C75.7288 119.881 75.7028 119.901 75.7143 119.921C75.7576 119.987 76.8968 121.199 77.4418 121.747C78.0561 122.364 78.6848 122.97 79.3078 123.576C79.9278 124.179 80.5479 124.782 81.1679 125.384C81.4794 125.689 81.7937 125.99 82.1081 126.289C82.3994 126.567 82.6964 126.791 83.0598 126.963C83.9452 127.38 84.8478 127.761 85.7476 128.146C85.7794 128.163 85.8053 128.117 85.7736 128.1Z" fill="#263238"/>
<path d="M22.0698 117.346C22.0698 117.346 20.6971 124.819 24.6221 128.011C27.4513 130.311 31.1601 130.54 34.3728 130.084C43.2496 128.826 50.771 118.153 53.7242 117.584C55.2382 117.292 67.149 129.016 67.149 129.016L76.4007 120.102C74.0474 118.067 60.0141 103.942 52.9311 103.942C48.0831 103.942 35.7888 113.97 35.4947 113.852C35.0102 113.66 32.8587 112.632 32.8587 112.632L22.0698 117.346Z" fill="#37474F"/>
<path d="M74.5262 119.159C73.3697 120.13 72.2854 121.186 71.1923 122.219C70.1022 123.25 69.0207 124.284 67.9537 125.334C67.348 125.931 66.7453 126.529 66.1598 127.143C66.1454 127.157 66.1685 127.18 66.1829 127.166C67.3278 126.178 68.4237 125.142 69.5197 124.108C70.6098 123.081 71.6913 122.044 72.7612 120.996C73.3669 120.402 73.9811 119.811 74.555 119.188C74.5781 119.168 74.5493 119.139 74.5262 119.159Z" fill="#263238"/>
<path d="M29.4268 116.193C29.4095 116.153 29.349 116.182 29.3576 116.222C29.6201 117.31 29.4874 118.553 28.9654 119.549C28.3655 120.692 27.2754 121.507 26.3064 122.322C26.2141 122.4 26.3324 122.546 26.4333 122.489C27.0562 122.13 27.6503 121.682 28.181 121.197C28.6655 120.755 29.0865 120.241 29.3576 119.641C29.8537 118.53 29.8969 117.316 29.4268 116.193Z" fill="#263238"/>
<path d="M35.6648 114.604C35.3908 114.403 35.1053 114.219 34.8256 114.027C34.1651 113.573 33.499 113.117 32.8212 112.692C32.7578 112.652 32.6799 112.755 32.7434 112.801C33.2221 113.163 33.7153 113.504 34.2055 113.849C34.4564 114.027 34.7073 114.202 34.9611 114.377C35.1976 114.541 35.4745 114.69 35.6735 114.899C35.8811 115.115 35.76 115.382 35.5033 115.482C35.2726 115.571 35.0217 115.511 34.8025 115.422C34.3036 115.221 33.8566 114.859 33.4067 114.569C33.1327 114.391 32.8587 114.213 32.5819 114.041C32.2877 113.857 31.982 113.688 31.6878 113.504C31.6676 113.493 31.6475 113.521 31.6648 113.536C31.9359 113.751 32.1954 113.984 32.4694 114.199C32.7405 114.414 33.0145 114.627 33.2942 114.836C33.5566 115.034 33.8248 115.224 34.0959 115.41C34.3266 115.568 34.5804 115.712 34.8515 115.786C35.2899 115.904 35.9619 115.772 36.0282 115.232C36.057 114.963 35.8638 114.753 35.6648 114.604Z" fill="#263238"/>
<path d="M75.7865 119.392C75.2039 118.795 74.5897 118.223 73.9783 117.652C73.3726 117.084 72.7612 116.521 72.1469 115.961C70.9097 114.842 69.661 113.734 68.3805 112.66C67.1029 111.586 65.7849 110.553 64.4352 109.568C63.1028 108.592 61.733 107.665 60.3083 106.824C59.5931 106.402 58.8692 105.994 58.1251 105.624C57.3984 105.262 56.663 104.883 55.8987 104.602C55.6911 104.524 55.4863 104.449 55.2844 104.363C55.2527 104.352 55.2268 104.395 55.2585 104.409C55.6392 104.579 56.0025 104.78 56.3746 104.966C56.7408 105.147 57.1013 105.336 57.4618 105.529C58.1915 105.911 58.9096 106.315 59.6161 106.735C61.0408 107.576 62.4309 108.48 63.7777 109.439C65.1303 110.401 66.4396 111.417 67.7201 112.47C69.0092 113.533 70.2781 114.618 71.524 115.726C72.7641 116.831 73.9898 117.951 75.2328 119.053C75.3885 119.191 75.5471 119.329 75.7057 119.464C75.7663 119.507 75.8326 119.438 75.7865 119.392Z" fill="#263238"/>
<path d="M66.6674 125.955C63.8151 123.253 56.0919 116.375 54.3442 115.223C53.9981 114.994 53.554 114.925 53.1387 115.025C52.6888 115.137 52.3254 115.468 51.9707 115.749C51.5468 116.082 51.1228 116.415 50.7018 116.751C49.8337 117.437 48.9628 118.123 48.0947 118.809C46.4652 120.095 44.8445 121.399 43.2006 122.665C41.7327 123.793 40.2244 124.884 38.6007 125.782C35.5004 127.496 31.584 128.593 28.1694 127.114C26.5919 126.431 25.4066 125.194 24.6654 123.658C23.9271 122.128 23.6157 120.425 23.4282 118.749C23.3821 118.344 23.3446 117.936 23.3128 117.532C23.31 117.512 23.2782 117.512 23.2811 117.532C23.4397 120.692 23.9415 124.356 26.6294 126.434C29.4845 128.642 33.5019 128.257 36.6569 126.968C40.1926 125.521 43.1573 122.998 46.1221 120.655C47.8467 119.291 49.5742 117.925 51.2988 116.561C51.7169 116.231 52.1265 115.884 52.5562 115.568C53.0003 115.241 53.4935 115.017 53.9866 115.301C55.6247 116.248 66.2261 125.699 66.601 126.026C66.6472 126.064 66.7135 125.998 66.6674 125.955Z" fill="#263238"/>
<path d="M30.7651 100.897C32.6685 102.046 40.8273 106.791 44.0746 105.445C46.0184 104.638 49.531 99.034 50.8836 96.8092C51.6421 95.5604 44.19 93.258 43.6074 94.4436C42.6124 96.4704 41.3233 99.235 41.0205 99.4991C40.7321 99.7517 35.6506 98.7872 31.9389 98.5345C28.5964 98.3077 29.4241 100.088 30.7651 100.897Z" fill="#F7A9A0"/>
<path d="M51.864 94.2013C51.639 95.7315 49.9462 98.6855 49.2627 99.2425C48.5792 99.7994 43.44 97.1008 43.2842 96.2138C43.1285 95.3267 44.2878 90.2281 45.4501 89.1516C46.6123 88.075 52.0976 92.6138 51.864 94.2013Z" fill="#F7A9A0"/>
<path d="M43.3305 95.3094C43.3305 95.3094 42.8835 93.3457 41.9347 91.8443C41.1358 90.584 39.8063 88.8012 40.4696 88.3477C41.8366 87.4175 45.1503 91.8644 45.1503 91.8644C45.1503 91.8644 46.2981 94.0606 45.0263 95.1027C44.2303 95.7572 43.3305 95.3094 43.3305 95.3094Z" fill="#F7A9A0"/>
<path d="M47.8554 95.7004L49.978 94.6411L46.895 88.5205L44.2101 89.8612L47.8554 95.7004Z" fill="#FFC727"/>
<path d="M44.2101 89.8612L45.6001 92.0889L47.8554 95.7004L49.978 94.6411L46.8979 88.5205L44.2101 89.8612Z" fill="#455A64"/>
<path d="M44.2101 89.8612L45.6001 92.0889L48.0717 90.8545L46.8979 88.5205L44.2101 89.8612Z" fill="#263238"/>
<path d="M44.4159 90.8869L47.7573 89.2197L46.4844 86.6917L43.143 88.3589L44.4159 90.8869Z" fill="#455A64"/>
<path d="M40.4379 88.555L43.1661 87.5186L41.1069 83.4277L38.6383 84.9808L40.4379 88.555Z" fill="#455A64"/>
<path d="M42.0326 81.9525L45.0723 87.9869L49.6895 86.3333L61.6868 84.9898L54.3904 70.4951L46.1279 79.2597L42.0326 81.9525Z" fill="#455A64"/>
<path d="M55.9218 78.7977C57.9463 82.8197 60.6428 85.5556 61.9406 84.9068C63.2384 84.258 62.6501 80.4714 60.6255 76.4494C58.601 72.4274 55.9045 69.6915 54.6067 70.3403C53.3089 70.9891 53.8973 74.7757 55.9218 78.7977Z" fill="#455A64"/>
<path d="M56.4092 78.3981C58.2088 81.9694 60.5275 84.4326 61.5917 83.9043C62.6559 83.3732 62.0589 80.0488 60.2622 76.4776C58.4597 72.9063 56.141 70.4403 55.0768 70.9714C54.0155 71.5025 54.6096 74.8269 56.4092 78.3981Z" fill="#263238"/>
<path d="M56.7207 78.2437C56.96 78.7202 57.2081 79.1738 57.4647 79.6044C57.8166 79.6819 58.1973 79.6446 58.5433 79.4724C59.3451 79.0733 59.6681 78.1001 59.2672 77.302L58.924 76.6188C58.5203 75.8207 57.5455 75.4963 56.7437 75.8953C56.4034 76.0647 56.1468 76.3432 55.9968 76.6618C56.2102 77.1786 56.4525 77.7068 56.7207 78.2437Z" fill="#455A64"/>
<path d="M42.892 89.4939L48.1639 87.4872L44.1812 79.5781L39.4111 82.5839L42.892 89.4939Z" fill="#FFC727"/>
<path d="M42.892 89.4939L48.1639 87.4872L44.1812 79.5781L39.4111 82.5839L42.892 89.4939Z" fill="#263238"/>
<path d="M54.2088 71.8271C54.0531 72.4214 54.0963 73.0444 54.1627 73.6501C54.2434 74.2558 54.3732 74.8558 54.5491 75.4415C54.6299 75.7372 54.7366 76.0243 54.8317 76.3142C54.9442 76.5984 55.048 76.8855 55.1663 77.1697C55.2903 77.4482 55.4028 77.7324 55.5354 78.0109C55.6681 78.2865 55.795 78.5649 55.9334 78.8376C56.4929 79.9228 57.1129 80.985 57.8657 81.9553C58.2435 82.4376 58.6472 82.9027 59.1058 83.3104C59.5672 83.7094 60.0719 84.0883 60.666 84.2635C60.0892 84.051 59.6047 83.6635 59.1663 83.2472C58.7251 82.8309 58.3357 82.3601 57.9752 81.8721C57.2543 80.896 56.6371 79.8453 56.092 78.7573C55.5412 77.675 55.0451 76.5611 54.6818 75.4042C54.4914 74.8271 54.3501 74.2358 54.2521 73.6386C54.1511 73.0415 54.0934 72.4271 54.2088 71.8271Z" fill="#263238"/>
<path d="M59.4171 68.8291C59.172 69.1765 58.947 69.5324 58.7221 69.8913C58.4971 70.2501 58.2837 70.6147 58.0732 70.9793C57.8655 71.3468 57.6579 71.7143 57.4618 72.0875L57.1705 72.6501C57.0782 72.8396 56.983 73.0291 56.8965 73.2214C57.0205 73.0492 57.133 72.8712 57.2512 72.6961L57.5887 72.1592C57.8136 71.8004 58.027 71.4358 58.2375 71.0712C58.4452 70.7037 58.6528 70.3363 58.8489 69.9631C59.0479 69.5927 59.2412 69.2167 59.4171 68.8291Z" fill="#263238"/>
<path d="M60.6975 81.327C61.1763 81.3098 61.6521 81.2724 62.128 81.2322C62.6038 81.1921 63.0797 81.1404 63.5527 81.0858C64.0256 81.0284 64.5015 80.9681 64.9716 80.8964L65.681 80.7844C65.9175 80.7413 66.1511 80.704 66.3876 80.6523C66.1482 80.6581 65.9088 80.6782 65.6695 80.6897L64.9543 80.7471C64.4784 80.7873 64.0025 80.8389 63.5296 80.8935C63.0566 80.9509 62.5808 81.0112 62.1107 81.083C61.6406 81.1576 61.1676 81.2322 60.6975 81.327Z" fill="#263238"/>
<path d="M68.6515 77.2324C67.9652 77.3788 67.2817 77.5453 66.601 77.7176C65.9204 77.887 65.2427 78.0678 64.565 78.2516C63.8872 78.4382 63.2124 78.6248 62.5404 78.8286L61.5311 79.1329C61.1965 79.242 60.862 79.3425 60.5274 79.4544C60.8706 79.3827 61.2138 79.2994 61.5541 79.2219L62.5779 78.9693C63.2585 78.7999 63.9363 78.619 64.614 78.4353C65.2917 78.2487 65.9666 78.0592 66.6385 77.8583C67.3134 77.6602 67.9853 77.4563 68.6515 77.2324Z" fill="#263238"/>
<path d="M63.2124 67.8477C62.7481 68.3874 62.2982 68.9386 61.8541 69.4898C61.4071 70.0409 60.9716 70.6036 60.5361 71.1634C60.1035 71.7261 59.6738 72.2917 59.2527 72.8629L58.624 73.7242C58.4193 74.0141 58.2116 74.3012 58.0126 74.5969C58.2462 74.3299 58.4712 74.0543 58.699 73.7816L59.371 72.9548C59.818 72.4036 60.2535 71.8409 60.689 71.2811C61.1215 70.7185 61.5513 70.1529 61.9723 69.5816C62.3934 69.0075 62.8115 68.4333 63.2124 67.8477Z" fill="#263238"/>
<path d="M59.4835 76.9509C60.2333 76.6121 60.9716 76.2533 61.7099 75.8944C62.4482 75.5327 63.1778 75.1595 63.9132 74.792C64.64 74.4102 65.3725 74.037 66.0964 73.6494L67.1807 73.0638C67.5384 72.8628 67.9017 72.6676 68.2565 72.4609C67.8815 72.6274 67.5124 72.8083 67.1375 72.9806L66.0272 73.5174C65.2889 73.8791 64.5592 74.2523 63.8238 74.6198C63.0971 75.0016 62.3645 75.3748 61.6407 75.7624C60.9197 76.1499 60.1958 76.5403 59.4835 76.9509Z" fill="#263238"/>
<path d="M43.9994 91.1639C44.3196 91.9189 45.0319 91.1122 45.0319 91.1122C45.0319 91.1122 44.2878 92.5218 44.9194 93.1735C45.5308 93.7993 46.3556 92.7945 46.4162 92.7228C46.3787 92.7974 45.7298 94.1094 46.4306 94.7007C47.1631 95.3151 47.8178 94.1639 47.8582 94.0893C47.8438 94.1725 47.6736 95.2605 48.311 95.5878C49.404 96.1505 49.9173 93.3802 50.7594 92.8491C50.7594 92.8491 51.8236 94.1696 51.8611 94.2012C51.8611 94.2012 52.4004 91.5744 51.6217 90.4807C51.2093 89.9036 50.5893 90.1735 50.5893 90.1735C50.5893 90.1735 50.8575 89.3467 50.3182 88.8644C50.0413 88.6175 49.3982 88.8386 49.3982 88.8386C49.3982 88.8386 49.5857 88.1668 49.0781 87.7678C48.6743 87.4491 48.0918 87.719 48.0918 87.719C48.0918 87.719 47.9707 86.9898 47.4515 86.7974C46.4133 86.4041 43.3188 89.5448 43.9994 91.1639Z" fill="#F7A9A0"/>
<path d="M47.9995 87.7478C48.0111 87.7392 47.9995 87.722 47.9851 87.7277C46.7133 88.5143 45.5597 89.7631 44.9887 91.1497C44.9714 91.1956 45.0348 91.2444 45.0665 91.1985C45.9288 89.8837 46.7998 88.7842 47.9995 87.7478Z" fill="#263238"/>
<path d="M49.4098 88.8151C49.4242 88.8036 49.404 88.7835 49.3896 88.7921C48.0832 89.6074 46.8229 91.0514 46.3528 92.728C46.3355 92.7854 46.3816 92.8543 46.4047 92.7883C46.8027 91.6974 48.3283 89.7424 49.4098 88.8151Z" fill="#263238"/>
<path d="M47.8697 94.2161C48.3802 92.6285 49.352 91.3625 50.5374 90.2027C50.5518 90.1884 50.5287 90.1683 50.5143 90.1769C49.7789 90.5845 49.1011 91.4027 48.6282 92.0802C48.1754 92.7319 47.8957 93.4094 47.8149 94.196C47.8091 94.2276 47.8582 94.2505 47.8697 94.2161Z" fill="#263238"/>
<path d="M45.006 91.1182C44.9829 91.1727 45.0896 91.144 45.0665 91.2014C44.98 91.434 44.5762 92.878 45.029 93.1679C45.3924 93.3976 45.9548 93.0732 46.122 92.8636L46.5431 92.3383L46.3326 92.9784C46.2403 93.2569 46.1826 93.5641 46.1855 93.8569C46.1884 94.1497 46.2691 94.4368 46.4739 94.6091C46.6815 94.7899 46.9526 94.8272 47.1805 94.6751C47.4112 94.5344 47.6044 94.2818 47.7399 94.0292L48.1177 93.3258L47.9908 94.1095C47.9562 94.322 47.9476 94.5516 47.9707 94.7698C47.9937 94.9851 48.0543 95.2004 48.1812 95.3469C48.3052 95.4933 48.5128 95.5708 48.6888 95.5191C48.8762 95.4674 49.0435 95.3067 49.1877 95.1373C49.479 94.7899 49.6953 94.3737 49.9346 93.9717C50.0529 93.7708 50.1682 93.567 50.298 93.3689C50.4278 93.1765 50.5633 92.9698 50.7652 92.8464C50.5778 92.9899 50.471 93.2024 50.3557 93.4033C50.2461 93.6071 50.1452 93.8167 50.0413 94.0263C49.8395 94.4454 49.6289 94.8674 49.3405 95.255C49.1906 95.4416 49.0233 95.6397 48.758 95.7315C48.4811 95.8263 48.1783 95.7086 47.9995 95.5047C47.8178 95.298 47.7486 95.0368 47.7169 94.7957C47.688 94.5488 47.6938 94.3105 47.7284 94.0607L47.9793 94.1411C47.8207 94.4397 47.6304 94.7124 47.3275 94.9105C47.1776 95.0081 46.9815 95.0655 46.7882 95.0397C46.595 95.0167 46.4306 94.9277 46.2922 94.8071C46.0096 94.5574 45.9259 94.1813 45.9259 93.8569C45.9288 93.521 45.9923 93.2052 46.1019 92.8923L46.3124 93.0072C46.0903 93.2655 45.502 93.6961 44.8935 93.4091C44.161 92.9182 44.856 91.388 45.006 91.1182Z" fill="#263238"/>
<path d="M45.0319 91.1121C44.8877 91.2183 44.7349 91.3073 44.5878 91.3561C44.4407 91.4049 44.2994 91.382 44.2042 91.2958C44.1061 91.2126 44.0514 91.0576 44.011 90.8997C43.9764 90.7389 43.9446 90.5667 43.9216 90.3887C43.8552 90.558 43.8235 90.7389 43.8322 90.9226C43.8408 91.1064 43.887 91.3102 44.0542 91.4681C44.1436 91.5399 44.2475 91.5829 44.3571 91.5915C44.4666 91.5973 44.5734 91.5686 44.6599 91.5198C44.8358 91.425 44.954 91.2729 45.0319 91.1121Z" fill="#263238"/>
<path d="M39.2006 98.726L34.9237 103.552C34.9237 103.552 32.0455 102.053 30.5689 101C28.6165 99.6074 28.677 98.5566 31.61 98.2753C33.5711 98.0858 39.2006 98.726 39.2006 98.726Z" fill="#FFC727"/>
<path opacity="0.2" d="M35.8639 102.47C35.6562 102.47 35.489 102.636 35.489 102.843C35.489 102.863 35.4918 102.886 35.4976 102.906L35.6216 102.766C35.6418 102.694 35.688 102.642 35.7543 102.613H35.7572L35.76 102.611C35.7629 102.608 35.7629 102.608 35.7629 102.608L35.8812 102.473C35.8754 102.47 35.8696 102.47 35.8639 102.47ZM37.8999 100.196C37.8653 100.03 37.7183 99.9062 37.5423 99.9062C37.3347 99.9062 37.1674 100.073 37.1674 100.279C37.1674 100.469 37.3145 100.627 37.5048 100.641L37.6115 100.521C37.5885 100.529 37.5654 100.532 37.5423 100.532C37.3981 100.532 37.2885 100.417 37.2885 100.279C37.2885 100.136 37.3981 100.024 37.5423 100.024C37.6808 100.024 37.7961 100.136 37.7961 100.279C37.7961 100.291 37.7961 100.305 37.7932 100.317L37.8999 100.196ZM34.1825 99.9062C33.9806 99.9062 33.8134 100.073 33.8134 100.279C33.8134 100.48 33.9806 100.647 34.1825 100.647C34.3902 100.647 34.5574 100.48 34.5574 100.279C34.5574 100.073 34.3902 99.9062 34.1825 99.9062ZM34.1825 100.532C34.0441 100.532 33.9287 100.417 33.9287 100.279C33.9287 100.136 34.0441 100.024 34.1825 100.024C34.321 100.024 34.4363 100.136 34.4363 100.279C34.4363 100.417 34.321 100.532 34.1825 100.532ZM30.8256 99.9062C30.618 99.9062 30.4507 100.073 30.4507 100.279C30.4507 100.48 30.618 100.647 30.8256 100.647C31.0304 100.647 31.1976 100.48 31.1976 100.279C31.1976 100.073 31.0304 99.9062 30.8256 99.9062ZM30.8256 100.532C30.6872 100.532 30.5718 100.417 30.5718 100.279C30.5718 100.136 30.6872 100.024 30.8256 100.024C30.9669 100.024 31.0823 100.136 31.0823 100.279C31.0823 100.417 30.9669 100.532 30.8256 100.532Z" fill="black"/>
<path d="M38.3065 98.8127C37.6345 99.473 36.9741 100.139 36.3425 100.837C36.0282 101.184 35.7167 101.537 35.4139 101.893C35.1111 102.249 34.8429 102.64 34.5343 102.99C34.517 103.01 34.5487 103.036 34.566 103.016C34.8544 102.648 35.1976 102.318 35.5062 101.965C35.8176 101.612 36.1291 101.262 36.4406 100.914C37.0664 100.217 37.6922 99.519 38.3353 98.8357C38.3555 98.8185 38.3238 98.7955 38.3065 98.8127Z" fill="#263238"/>
<path opacity="0.1" d="M36.9337 101.285L34.9236 103.553C34.9236 103.553 32.0425 102.054 30.5688 101.001C29.1701 100.004 28.8067 99.1804 29.7902 98.6924C31.5811 99.3441 34.9149 100.553 36.9337 101.285Z" fill="black"/>
<path d="M36.5905 110.941L37.1817 113.094C37.1817 113.094 21.4872 125.025 20.7749 124.644C20.7749 124.644 23.0994 103.796 27.1196 99.6589C29.1297 97.5891 31.4253 97.8044 32.8558 99.3202C33.2163 99.7049 37.1471 104.602 37.5595 106.839C37.92 108.814 36.5905 110.941 36.5905 110.941Z" fill="#FFC727"/>
<path d="M36.3021 104.029C36.0628 103.589 35.809 103.162 35.535 102.742C35.4773 102.582 35.3937 102.432 35.3158 102.28C35.2034 102.062 35.0966 101.841 34.9986 101.617C34.9899 101.597 34.9582 101.608 34.9698 101.631C35.0736 101.855 35.1659 102.082 35.2553 102.309C35.261 102.32 35.2639 102.332 35.2697 102.346C35.1687 102.203 35.0678 102.062 34.9611 101.921C34.7967 101.703 34.641 101.471 34.4564 101.273C34.4478 101.264 34.4333 101.275 34.4391 101.287C34.5689 101.522 34.7362 101.743 34.8832 101.97C35.0361 102.206 35.1861 102.441 35.3418 102.673C35.6504 103.133 35.9647 103.589 36.2762 104.046C36.2848 104.063 36.3108 104.046 36.3021 104.029Z" fill="#263238"/>
<path opacity="0.2" d="M27.4657 99.9062C27.2639 99.9062 27.0966 100.073 27.0966 100.279C27.0966 100.48 27.2639 100.647 27.4657 100.647C27.6734 100.647 27.8407 100.48 27.8407 100.279C27.8407 100.073 27.6734 99.9062 27.4657 99.9062ZM27.4657 100.532C27.3273 100.532 27.2119 100.417 27.2119 100.279C27.2119 100.136 27.3273 100.024 27.4657 100.024C27.6099 100.024 27.7195 100.136 27.7195 100.279C27.7195 100.417 27.6099 100.532 27.4657 100.532ZM30.8255 99.9062C30.6179 99.9062 30.4506 100.073 30.4506 100.279C30.4506 100.48 30.6179 100.647 30.8255 100.647C31.0303 100.647 31.1976 100.48 31.1976 100.279C31.1976 100.073 31.0303 99.9062 30.8255 99.9062ZM30.8255 100.532C30.6871 100.532 30.5718 100.417 30.5718 100.279C30.5718 100.136 30.6871 100.024 30.8255 100.024C30.9669 100.024 31.0822 100.136 31.0822 100.279C31.0822 100.417 30.9669 100.532 30.8255 100.532ZM24.4607 105.234C24.4174 105.369 24.377 105.504 24.3366 105.642C24.426 105.576 24.4808 105.473 24.4808 105.355C24.4808 105.312 24.4751 105.272 24.4607 105.234ZM27.4657 104.982C27.2639 104.982 27.0966 105.148 27.0966 105.355C27.0966 105.556 27.2639 105.722 27.4657 105.722C27.6734 105.722 27.8407 105.556 27.8407 105.355C27.8407 105.148 27.6734 104.982 27.4657 104.982ZM27.4657 105.608C27.3273 105.608 27.2119 105.493 27.2119 105.355C27.2119 105.211 27.3273 105.102 27.4657 105.102C27.6099 105.102 27.7195 105.211 27.7195 105.355C27.7195 105.493 27.6099 105.608 27.4657 105.608ZM30.8255 104.982C30.6179 104.982 30.4506 105.148 30.4506 105.355C30.4506 105.556 30.6179 105.722 30.8255 105.722C31.0303 105.722 31.1976 105.556 31.1976 105.355C31.1976 105.148 31.0303 104.982 30.8255 104.982ZM30.8255 105.608C30.6871 105.608 30.5718 105.493 30.5718 105.355C30.5718 105.211 30.6871 105.102 30.8255 105.102C30.9669 105.102 31.0822 105.211 31.0822 105.355C31.0822 105.493 30.9669 105.608 30.8255 105.608ZM34.1825 104.982C33.9806 104.982 33.8133 105.148 33.8133 105.355C33.8133 105.556 33.9806 105.722 34.1825 105.722C34.3901 105.722 34.5574 105.556 34.5574 105.355C34.5574 105.148 34.3901 104.982 34.1825 104.982ZM34.1825 105.608C34.044 105.608 33.9287 105.493 33.9287 105.355C33.9287 105.211 34.044 105.102 34.1825 105.102C34.3209 105.102 34.4363 105.211 34.4363 105.355C34.4363 105.493 34.3209 105.608 34.1825 105.608ZM25.7902 102.47C25.5825 102.47 25.4152 102.636 25.4152 102.843C25.4152 103.044 25.5825 103.211 25.7902 103.211C25.992 103.211 26.1593 103.044 26.1593 102.843C26.1593 102.636 25.992 102.47 25.7902 102.47ZM25.7902 103.096C25.646 103.096 25.5364 102.981 25.5364 102.843C25.5364 102.7 25.646 102.588 25.7902 102.588C25.9286 102.588 26.0411 102.7 26.0411 102.843C26.0411 102.981 25.9286 103.096 25.7902 103.096ZM29.1471 102.47C28.9394 102.47 28.7722 102.636 28.7722 102.843C28.7722 103.044 28.9394 103.211 29.1471 103.211C29.3518 103.211 29.5191 103.044 29.5191 102.843C29.5191 102.636 29.3518 102.47 29.1471 102.47ZM29.1471 103.096C29.0058 103.096 28.8904 102.981 28.8904 102.843C28.8904 102.7 29.0058 102.588 29.1471 102.588C29.2855 102.588 29.4009 102.7 29.4009 102.843C29.4009 102.981 29.2855 103.096 29.1471 103.096ZM32.5011 102.47C32.2992 102.47 32.132 102.636 32.132 102.843C32.132 103.044 32.2992 103.211 32.5011 103.211C32.7088 103.211 32.876 103.044 32.876 102.843C32.876 102.636 32.7088 102.47 32.5011 102.47ZM32.5011 103.096C32.3627 103.096 32.2502 102.981 32.2502 102.843C32.2502 102.7 32.3627 102.588 32.5011 102.588C32.6453 102.588 32.7578 102.7 32.7578 102.843C32.7578 102.981 32.6453 103.096 32.5011 103.096ZM35.4918 102.826C35.4889 102.832 35.4889 102.837 35.4889 102.843C35.4889 102.998 35.5898 103.133 35.7312 103.188C35.6533 103.067 35.5725 102.946 35.4918 102.826ZM24.1088 110.06C23.9041 110.06 23.7368 110.227 23.7368 110.431C23.7368 110.634 23.9041 110.801 24.1088 110.801C24.3136 110.801 24.4808 110.634 24.4808 110.431C24.4808 110.227 24.3136 110.06 24.1088 110.06ZM24.1088 110.686C23.9704 110.686 23.855 110.571 23.855 110.431C23.855 110.29 23.9704 110.178 24.1088 110.178C24.2501 110.178 24.3655 110.29 24.3655 110.431C24.3655 110.571 24.2501 110.686 24.1088 110.686ZM27.4657 110.06C27.2639 110.06 27.0966 110.227 27.0966 110.431C27.0966 110.634 27.2639 110.801 27.4657 110.801C27.6734 110.801 27.8407 110.634 27.8407 110.431C27.8407 110.227 27.6734 110.06 27.4657 110.06ZM27.4657 110.686C27.3273 110.686 27.2119 110.571 27.2119 110.431C27.2119 110.29 27.3273 110.178 27.4657 110.178C27.6099 110.178 27.7195 110.29 27.7195 110.431C27.7195 110.571 27.6099 110.686 27.4657 110.686ZM30.8255 110.06C30.6179 110.06 30.4506 110.227 30.4506 110.431C30.4506 110.634 30.6179 110.801 30.8255 110.801C31.0303 110.801 31.1976 110.634 31.1976 110.431C31.1976 110.227 31.0303 110.06 30.8255 110.06ZM30.8255 110.686C30.6871 110.686 30.5718 110.571 30.5718 110.431C30.5718 110.29 30.6871 110.178 30.8255 110.178C30.9669 110.178 31.0822 110.29 31.0822 110.431C31.0822 110.571 30.9669 110.686 30.8255 110.686ZM34.1825 110.06C33.9806 110.06 33.8133 110.227 33.8133 110.431C33.8133 110.634 33.9806 110.801 34.1825 110.801C34.3901 110.801 34.5574 110.634 34.5574 110.431C34.5574 110.227 34.3901 110.06 34.1825 110.06ZM34.1825 110.686C34.044 110.686 33.9287 110.571 33.9287 110.431C33.9287 110.29 34.044 110.178 34.1825 110.178C34.3209 110.178 34.4363 110.29 34.4363 110.431C34.4363 110.571 34.3209 110.686 34.1825 110.686ZM25.7902 107.545C25.5825 107.545 25.4152 107.712 25.4152 107.919C25.4152 108.122 25.5825 108.289 25.7902 108.289C25.992 108.289 26.1593 108.122 26.1593 107.919C26.1593 107.712 25.992 107.545 25.7902 107.545ZM25.7902 108.174C25.646 108.174 25.5364 108.059 25.5364 107.919C25.5364 107.778 25.646 107.666 25.7902 107.666C25.9286 107.666 26.0411 107.778 26.0411 107.919C26.0411 108.059 25.9286 108.174 25.7902 108.174ZM29.1471 107.545C28.9394 107.545 28.7722 107.712 28.7722 107.919C28.7722 108.122 28.9394 108.289 29.1471 108.289C29.3518 108.289 29.5191 108.122 29.5191 107.919C29.5191 107.712 29.3518 107.545 29.1471 107.545ZM29.1471 108.174C29.0058 108.174 28.8904 108.059 28.8904 107.919C28.8904 107.778 29.0058 107.666 29.1471 107.666C29.2855 107.666 29.4009 107.778 29.4009 107.919C29.4009 108.059 29.2855 108.174 29.1471 108.174ZM32.5011 107.545C32.2992 107.545 32.132 107.712 32.132 107.919C32.132 108.122 32.2992 108.289 32.5011 108.289C32.7088 108.289 32.876 108.122 32.876 107.919C32.876 107.712 32.7088 107.545 32.5011 107.545ZM32.5011 108.174C32.3627 108.174 32.2502 108.059 32.2502 107.919C32.2502 107.778 32.3627 107.666 32.5011 107.666C32.6453 107.666 32.7578 107.778 32.7578 107.919C32.7578 108.059 32.6453 108.174 32.5011 108.174ZM35.8638 107.545C35.6562 107.545 35.4889 107.712 35.4889 107.919C35.4889 108.122 35.6562 108.289 35.8638 108.289C36.0686 108.289 36.2358 108.122 36.2358 107.919C36.2358 107.712 36.0686 107.545 35.8638 107.545ZM35.8638 108.174C35.7225 108.174 35.6071 108.059 35.6071 107.919C35.6071 107.778 35.7225 107.666 35.8638 107.666C36.0022 107.666 36.1176 107.778 36.1176 107.919C36.1176 108.059 36.0022 108.174 35.8638 108.174ZM24.1088 115.136C23.9041 115.136 23.7368 115.302 23.7368 115.509C23.7368 115.71 23.9041 115.877 24.1088 115.877C24.3136 115.877 24.4808 115.71 24.4808 115.509C24.4808 115.302 24.3136 115.136 24.1088 115.136ZM24.1088 115.762C23.9704 115.762 23.855 115.647 23.855 115.509C23.855 115.366 23.9704 115.256 24.1088 115.256C24.2501 115.256 24.3655 115.366 24.3655 115.509C24.3655 115.647 24.2501 115.762 24.1088 115.762ZM27.4657 115.136C27.2639 115.136 27.0966 115.302 27.0966 115.509C27.0966 115.71 27.2639 115.877 27.4657 115.877C27.6734 115.877 27.8407 115.71 27.8407 115.509C27.8407 115.302 27.6734 115.136 27.4657 115.136ZM27.4657 115.762C27.3273 115.762 27.2119 115.647 27.2119 115.509C27.2119 115.366 27.3273 115.256 27.4657 115.256C27.6099 115.256 27.7195 115.366 27.7195 115.509C27.7195 115.647 27.6099 115.762 27.4657 115.762ZM30.8255 115.136C30.6179 115.136 30.4506 115.302 30.4506 115.509C30.4506 115.71 30.6179 115.877 30.8255 115.877C31.0303 115.877 31.1976 115.71 31.1976 115.509C31.1976 115.302 31.0303 115.136 30.8255 115.136ZM30.8255 115.762C30.6871 115.762 30.5718 115.647 30.5718 115.509C30.5718 115.366 30.6871 115.256 30.8255 115.256C30.9669 115.256 31.0822 115.366 31.0822 115.509C31.0822 115.647 30.9669 115.762 30.8255 115.762ZM34.1825 115.136C33.9806 115.136 33.8133 115.302 33.8133 115.509C33.8133 115.546 33.8191 115.584 33.8335 115.618C33.8681 115.595 33.8998 115.569 33.9316 115.544C33.9287 115.532 33.9287 115.521 33.9287 115.509C33.9287 115.366 34.044 115.256 34.1825 115.256C34.22 115.256 34.2546 115.265 34.2863 115.279C34.3238 115.254 34.3584 115.225 34.393 115.199C34.3324 115.159 34.2603 115.136 34.1825 115.136ZM22.6409 112.69C22.6293 112.736 22.6207 112.779 22.612 112.822C22.6582 112.868 22.6841 112.928 22.6841 112.997C22.6841 113.098 22.6207 113.187 22.5342 113.227C22.5255 113.27 22.5169 113.313 22.5082 113.356C22.6784 113.322 22.7995 113.172 22.7995 112.997C22.7995 112.868 22.7389 112.756 22.6409 112.69ZM25.7902 112.624C25.5825 112.624 25.4152 112.79 25.4152 112.997C25.4152 113.198 25.5825 113.365 25.7902 113.365C25.992 113.365 26.1593 113.198 26.1593 112.997C26.1593 112.79 25.992 112.624 25.7902 112.624ZM25.7902 113.25C25.646 113.25 25.5364 113.135 25.5364 112.997C25.5364 112.856 25.646 112.742 25.7902 112.742C25.9286 112.742 26.0411 112.856 26.0411 112.997C26.0411 113.135 25.9286 113.25 25.7902 113.25ZM29.1471 112.624C28.9394 112.624 28.7722 112.79 28.7722 112.997C28.7722 113.198 28.9394 113.365 29.1471 113.365C29.3518 113.365 29.5191 113.198 29.5191 112.997C29.5191 112.79 29.3518 112.624 29.1471 112.624ZM29.1471 113.25C29.0058 113.25 28.8904 113.135 28.8904 112.997C28.8904 112.856 29.0058 112.742 29.1471 112.742C29.2855 112.742 29.4009 112.856 29.4009 112.997C29.4009 113.135 29.2855 113.25 29.1471 113.25ZM32.5011 112.624C32.2992 112.624 32.132 112.79 32.132 112.997C32.132 113.198 32.2992 113.365 32.5011 113.365C32.7088 113.365 32.876 113.198 32.876 112.997C32.876 112.79 32.7088 112.624 32.5011 112.624ZM32.5011 113.25C32.3627 113.25 32.2502 113.135 32.2502 112.997C32.2502 112.856 32.3627 112.742 32.5011 112.742C32.6453 112.742 32.7578 112.856 32.7578 112.997C32.7578 113.135 32.6453 113.25 32.5011 113.25ZM35.8638 112.624C35.6562 112.624 35.4889 112.79 35.4889 112.997C35.4889 113.198 35.6562 113.365 35.8638 113.365C36.0686 113.365 36.2358 113.198 36.2358 112.997C36.2358 112.79 36.0686 112.624 35.8638 112.624ZM35.8638 113.25C35.7225 113.25 35.6071 113.135 35.6071 112.997C35.6071 112.856 35.7225 112.742 35.8638 112.742C36.0022 112.742 36.1176 112.856 36.1176 112.997C36.1176 113.135 36.0022 113.25 35.8638 113.25ZM24.1088 120.214C23.9041 120.214 23.7368 120.381 23.7368 120.585C23.7368 120.788 23.9041 120.955 24.1088 120.955C24.3136 120.955 24.4808 120.788 24.4808 120.585C24.4808 120.381 24.3136 120.214 24.1088 120.214ZM24.1088 120.84C23.9704 120.84 23.855 120.725 23.855 120.585C23.855 120.444 23.9704 120.332 24.1088 120.332C24.2501 120.332 24.3655 120.444 24.3655 120.585C24.3655 120.725 24.2501 120.84 24.1088 120.84ZM27.4657 120.214C27.2667 120.214 27.1024 120.375 27.0966 120.573C27.1456 120.539 27.1946 120.504 27.2408 120.473V120.47C27.2783 120.398 27.3446 120.346 27.4282 120.335H27.4311C27.4773 120.3 27.5234 120.266 27.5724 120.232C27.5378 120.22 27.5032 120.214 27.4657 120.214ZM22.4303 117.699C22.2227 117.699 22.0583 117.866 22.0583 118.073C22.0583 118.274 22.2227 118.44 22.4303 118.44C22.638 118.44 22.7995 118.274 22.7995 118.073C22.7995 117.866 22.638 117.699 22.4303 117.699ZM22.4303 118.325C22.289 118.325 22.1737 118.21 22.1737 118.073C22.1737 117.935 22.289 117.82 22.4303 117.82C22.5688 117.82 22.6841 117.935 22.6841 118.073C22.6841 118.21 22.5688 118.325 22.4303 118.325ZM25.7902 117.699C25.5825 117.699 25.4152 117.866 25.4152 118.073C25.4152 118.274 25.5825 118.44 25.7902 118.44C25.992 118.44 26.1593 118.274 26.1593 118.073C26.1593 117.866 25.992 117.699 25.7902 117.699ZM25.7902 118.325C25.646 118.325 25.5364 118.21 25.5364 118.073C25.5364 117.935 25.646 117.82 25.7902 117.82C25.9286 117.82 26.0411 117.935 26.0411 118.073C26.0411 118.21 25.9286 118.325 25.7902 118.325ZM29.1471 117.699C28.9394 117.699 28.7722 117.866 28.7722 118.073C28.7722 118.274 28.9394 118.44 29.1471 118.44C29.3518 118.44 29.5191 118.274 29.5191 118.073C29.5191 117.866 29.3518 117.699 29.1471 117.699ZM29.1471 118.325C29.0058 118.325 28.8904 118.21 28.8904 118.073C28.8904 117.935 29.0058 117.82 29.1471 117.82C29.2855 117.82 29.4009 117.935 29.4009 118.073C29.4009 118.21 29.2855 118.325 29.1471 118.325ZM22.4303 122.778C22.2227 122.778 22.0583 122.944 22.0583 123.151C22.0583 123.352 22.2227 123.519 22.4303 123.519C22.638 123.519 22.7995 123.352 22.7995 123.151C22.7995 122.944 22.638 122.778 22.4303 122.778ZM22.4303 123.404C22.289 123.404 22.1737 123.289 22.1737 123.151C22.1737 123.01 22.289 122.896 22.4303 122.896C22.5688 122.896 22.6841 123.01 22.6841 123.151C22.6841 123.289 22.5688 123.404 22.4303 123.404Z" fill="black"/>
<path d="M27.0303 99.8782C21.496 105.614 13.4238 120.14 12.4259 122.224C11.7482 123.64 19.1744 127.366 19.4887 126.338C19.8925 125.021 26.3612 108.766 28.08 102.631C29.0289 99.2466 28.1752 98.6925 27.0303 99.8782Z" fill="#F7A9A0"/>
<path d="M19.8406 125.365C19.581 126.068 18.7014 129.06 18.0843 129.433C17.4671 129.806 14.2313 129.726 12.6019 129.726C10.9695 129.726 10.6494 129.272 10.6754 128.715C10.7013 128.155 14.1246 128.049 14.1246 128.049C14.1246 128.049 9.55351 129.352 8.40281 129.568C7.25212 129.78 4.60464 130.446 4.22108 129.496C4.04804 129.068 4.7748 128.635 4.7748 128.635C4.7748 128.635 3.66447 128.959 3.48567 128.408C3.28379 127.782 4.16917 127.438 4.16917 127.438C4.16917 127.438 3.47413 127.578 3.45971 127.067C3.4251 125.927 7.77123 125.368 7.77123 125.368C7.77123 125.368 4.44314 126.981 4.33643 126.051C4.18935 124.762 11.0099 123.349 11.7194 122.79C12.4288 122.227 12.8585 121.392 12.8585 121.392L19.8406 125.365Z" fill="#F7A9A0"/>
<path d="M10.6984 128.996C10.6782 128.826 10.7359 128.665 10.8541 128.562C10.9666 128.453 11.105 128.373 11.2521 128.307C11.5463 128.175 11.8664 128.083 12.1865 128.005C12.8297 127.842 13.4872 127.727 14.1447 127.56C13.467 127.552 12.7922 127.626 12.1317 127.787C11.803 127.873 11.4713 127.974 11.1714 128.152C11.0214 128.238 10.8772 128.35 10.7705 128.496C10.658 128.637 10.6263 128.841 10.6984 128.996Z" fill="#263238"/>
<path d="M4.77188 128.633C5.24197 128.518 5.70628 128.386 6.16772 128.254C6.63203 128.122 7.09058 127.979 7.55202 127.841L8.92766 127.41C9.38621 127.267 9.84476 127.126 10.3091 126.988C9.82746 127.034 9.35161 127.135 8.88152 127.241C8.40855 127.347 7.94712 127.482 7.4828 127.623C7.02137 127.766 6.56282 127.916 6.11292 128.088C5.66014 128.254 5.21024 128.429 4.77188 128.633Z" fill="#263238"/>
<path d="M9.20742 125.852C8.76329 125.875 8.32493 125.946 7.88945 126.032C7.45397 126.116 7.02426 126.233 6.60032 126.363C6.17638 126.497 5.7582 126.644 5.35157 126.828C4.94204 127.003 4.54694 127.204 4.16914 127.433C4.5902 127.29 4.99972 127.129 5.4179 126.988C5.83319 126.848 6.25136 126.707 6.66953 126.578C7.08771 126.443 7.51165 126.322 7.93271 126.199C8.35377 126.081 8.77771 125.966 9.20742 125.852Z" fill="#263238"/>
<path d="M8.53541 124.764C7.81731 124.807 7.1165 124.979 6.43589 125.206C5.75816 125.438 5.10062 125.737 4.50364 126.136C5.17849 125.895 5.83603 125.642 6.50799 125.421C7.17707 125.191 7.85191 124.985 8.53541 124.764Z" fill="#263238"/>
<path d="M21.2133 106.064L27.6734 106.291C27.6734 106.291 28.5617 103.179 28.8068 101.388C29.1327 99.0195 28.3252 98.342 26.1045 100.265C24.6193 101.554 21.2133 106.064 21.2133 106.064Z" fill="#FFC727"/>
<path opacity="0.2" d="M25.7902 102.47C25.5825 102.47 25.4153 102.636 25.4153 102.843C25.4153 103.044 25.5825 103.211 25.7902 103.211C25.9921 103.211 26.1593 103.044 26.1593 102.843C26.1593 102.636 25.9921 102.47 25.7902 102.47ZM25.7902 103.096C25.646 103.096 25.5364 102.981 25.5364 102.843C25.5364 102.7 25.646 102.588 25.7902 102.588C25.9286 102.588 26.0411 102.7 26.0411 102.843C26.0411 102.981 25.9286 103.096 25.7902 103.096ZM27.4658 104.982C27.2639 104.982 27.0966 105.148 27.0966 105.355C27.0966 105.556 27.2639 105.722 27.4658 105.722C27.6734 105.722 27.8407 105.556 27.8407 105.355C27.8407 105.148 27.6734 104.982 27.4658 104.982ZM27.4658 105.608C27.3273 105.608 27.212 105.493 27.212 105.355C27.212 105.211 27.3273 105.102 27.4658 105.102C27.61 105.102 27.7195 105.211 27.7195 105.355C27.7195 105.493 27.61 105.608 27.4658 105.608ZM24.1088 104.982C23.9041 104.982 23.7368 105.148 23.7368 105.355C23.7368 105.556 23.9041 105.722 24.1088 105.722C24.3136 105.722 24.4809 105.556 24.4809 105.355C24.4809 105.148 24.3136 104.982 24.1088 104.982ZM24.1088 105.608C23.9704 105.608 23.855 105.493 23.855 105.355C23.855 105.211 23.9704 105.102 24.1088 105.102C24.2501 105.102 24.3655 105.211 24.3655 105.355C24.3655 105.493 24.2501 105.608 24.1088 105.608ZM27.4658 99.9062C27.2639 99.9062 27.0966 100.073 27.0966 100.279C27.0966 100.48 27.2639 100.647 27.4658 100.647C27.6734 100.647 27.8407 100.48 27.8407 100.279C27.8407 100.073 27.6734 99.9062 27.4658 99.9062ZM27.4658 100.532C27.3273 100.532 27.212 100.417 27.212 100.279C27.212 100.136 27.3273 100.024 27.4658 100.024C27.61 100.024 27.7195 100.136 27.7195 100.279C27.7195 100.417 27.61 100.532 27.4658 100.532Z" fill="black"/>
<path d="M26.8861 106.265C26.9553 106.254 27.6215 106.257 27.6676 106.271C27.7628 105.904 27.8522 105.533 27.9531 105.166C28.0021 104.982 28.0569 104.798 28.1117 104.618C28.1723 104.417 28.2329 104.187 28.2848 104.009C28.2934 103.98 28.328 103.989 28.3223 104.018C28.2761 104.256 28.2329 104.431 28.1896 104.638C28.1521 104.821 28.1088 105.005 28.0627 105.186C27.9647 105.571 27.8781 105.984 27.7628 106.363C27.7541 106.392 26.9495 106.308 26.8803 106.291C26.8716 106.285 26.8745 106.268 26.8861 106.265Z" fill="#263238"/>
<path d="M21.8911 105.479C22.8341 105.447 23.7743 105.43 24.7173 105.453C25.1874 105.464 25.6575 105.485 26.1276 105.51C26.5977 105.536 27.0649 105.611 27.5321 105.628C27.558 105.628 27.5552 105.671 27.5292 105.668C27.062 105.625 26.5861 105.645 26.1161 105.625C25.646 105.608 25.1759 105.591 24.7058 105.579C23.7656 105.553 22.8255 105.525 21.8882 105.519C21.8622 105.519 21.8651 105.479 21.8911 105.479Z" fill="#263238"/>
<path d="M29.8883 98.2209C27.9503 98.4133 28.4665 100.357 29.323 101.25C29.8941 101.847 31.0477 102.444 31.711 102.208C32.3743 101.973 31.8494 100.497 31.8494 100.497C31.8494 100.497 32.9424 101.554 33.3462 101.097C33.7528 100.638 31.8955 98.02 29.8883 98.2209Z" fill="white"/>
<path d="M28.8817 99.2413C28.9913 99.5169 30.4708 100.628 31.7657 100.378C32.1867 100.295 31.9935 98.5179 31.9935 98.5179L32.0079 98.3428L32.1954 95.871L29.1067 94.4758L28.6626 94.2949C28.6626 94.2949 28.6568 94.9753 28.6568 95.8222C28.6568 95.8624 28.6568 95.8997 28.6568 95.9428C28.6568 95.9916 28.6539 96.0346 28.6539 96.0806C28.651 96.2069 28.651 96.3361 28.6539 96.4652C28.6539 96.5629 28.6539 96.6576 28.6597 96.7609C28.6625 96.8643 28.6654 96.9648 28.6683 97.0681C28.7087 98.0815 28.8385 99.1236 28.8817 99.2413Z" fill="#F7A9A0"/>
<path d="M28.6577 95.8193C29.6267 97.625 31.2677 98.1791 32.0089 98.3398L32.1963 95.8681L29.1076 94.4729L28.6635 94.292C28.6635 94.2949 28.6577 94.9752 28.6577 95.8193Z" fill="#263238"/>
<path d="M34.7074 90.8693C36.507 94.8339 34.3238 96.3554 33.4644 96.7401C32.6857 97.0903 29.9835 98.1812 27.783 94.4234C25.5825 90.6655 26.8659 88.5784 28.6078 87.6856C30.3497 86.7899 32.9107 86.9047 34.7074 90.8693Z" fill="#F7A9A0"/>
<path d="M33.1126 90.214C33.0116 90.2398 32.9165 90.2456 32.8155 90.2628C32.7002 90.28 32.6108 90.3058 32.5012 90.2542C32.4435 90.2255 32.4118 90.1365 32.4319 90.079C32.481 89.9412 32.6165 89.8867 32.755 89.8609C32.9049 89.8322 33.026 89.8494 33.1587 89.9211C33.2885 89.9872 33.2423 90.1824 33.1126 90.214Z" fill="#263238"/>
<path d="M30.3699 91.4232C30.4622 91.3744 30.5372 91.317 30.6237 91.2595C30.7189 91.1964 30.8025 91.1562 30.8486 91.0442C30.8746 90.984 30.8371 90.8978 30.7794 90.8691C30.6496 90.8002 30.5112 90.849 30.393 90.9208C30.2632 90.9983 30.1824 91.093 30.1334 91.2337C30.0844 91.3686 30.2488 91.4863 30.3699 91.4232Z" fill="#263238"/>
<path d="M31.4023 92.2319C31.3965 92.2233 31.385 92.2549 31.3907 92.2635C31.5119 92.5334 31.607 92.8635 31.3965 93.0559C31.3907 93.0616 31.3965 93.076 31.4052 93.0702C31.6907 92.9037 31.5638 92.4673 31.4023 92.2319Z" fill="#263238"/>
<path d="M31.0389 92.0458C30.5832 92.1951 30.912 93.0908 31.3359 92.953C31.7512 92.8209 31.4225 91.9223 31.0389 92.0458Z" fill="#263238"/>
<path d="M30.8803 92.1574C30.8197 92.2378 30.7765 92.3555 30.6842 92.3986C30.5775 92.4503 30.4592 92.3871 30.3554 92.3211C30.3439 92.3153 30.341 92.3239 30.3439 92.3383C30.4044 92.5105 30.5371 92.6627 30.7303 92.6225C30.9091 92.5852 30.9726 92.3871 30.9524 92.1976C30.9495 92.1632 30.9033 92.1259 30.8803 92.1574Z" fill="#263238"/>
<path d="M32.9798 91.4911C32.9769 91.4796 33.0058 91.4968 33.0115 91.5083C33.1038 91.7897 33.2567 92.0968 33.5422 92.0997C33.5508 92.0997 33.5566 92.1141 33.5451 92.1169C33.2192 92.183 33.0202 91.7724 32.9798 91.4911Z" fill="#263238"/>
<path d="M33.1241 91.1129C33.5624 90.9176 33.92 91.8047 33.5163 91.9856C33.1154 92.1636 32.7578 91.2765 33.1241 91.1129Z" fill="#263238"/>
<path d="M33.3346 91.0954C33.424 91.1155 33.5279 91.1729 33.6144 91.1442C33.7153 91.1127 33.747 90.9863 33.773 90.8686C33.7759 90.8572 33.7845 90.86 33.7903 90.8715C33.8624 91.038 33.8797 91.239 33.7269 91.3366C33.5884 91.4256 33.4212 91.3251 33.3116 91.1729C33.2943 91.1471 33.2972 91.0897 33.3346 91.0954Z" fill="#263238"/>
<path d="M32.2848 94.3308C32.3742 94.3767 32.4694 94.4456 32.5761 94.4227C32.6771 94.3997 32.778 94.3193 32.8587 94.2562C32.8674 94.2504 32.8789 94.2562 32.876 94.2676C32.8357 94.3997 32.703 94.5145 32.5646 94.5346C32.429 94.5519 32.331 94.4629 32.2618 94.3538C32.2502 94.3394 32.2704 94.3251 32.2848 94.3308Z" fill="#263238"/>
<path d="M33.0635 92.8901C33.0635 92.8901 33.2798 93.2806 33.3547 93.4758C33.3605 93.493 33.3173 93.5217 33.2538 93.5504C33.2509 93.5533 33.2509 93.5533 33.2452 93.5533C32.9193 93.737 32.527 93.7514 32.2069 93.5504C32.1867 93.5361 32.204 93.5074 32.2271 93.5131C32.5588 93.605 32.8616 93.5447 33.1702 93.4327C33.1644 93.3724 32.778 92.7753 32.8097 92.761C32.9135 92.7122 33.1529 92.7035 33.2942 92.6921C32.8702 91.8624 32.3136 91.1074 31.9041 90.2777C31.8897 90.249 31.9301 90.2232 31.9503 90.2461C32.5876 90.9954 33.0981 91.9399 33.5595 92.7839C33.6143 92.8873 33.1558 92.8959 33.0635 92.8901Z" fill="#263238"/>
<path d="M33.1991 93.4209C33.1991 93.4209 33.1414 93.7597 32.9367 93.975C32.8617 94.0553 32.7694 94.1185 32.6511 94.1443C32.4089 94.196 32.3022 94.0037 32.256 93.8171C32.2186 93.6649 32.2214 93.5128 32.2214 93.5128C32.2214 93.5128 32.6829 93.6448 33.1991 93.4209Z" fill="#263238"/>
<path d="M32.9366 93.9748C32.8616 94.0552 32.7694 94.1184 32.6511 94.1442C32.4089 94.1959 32.3022 94.0035 32.256 93.8169C32.4983 93.7222 32.804 93.7624 32.9366 93.9748Z" fill="#FF9ABB"/>
<path d="M27.8204 94.4932C28.2646 94.2865 28.9567 92.5726 28.1261 90.3707C28.1261 90.3707 28.7346 92.4004 28.7029 92.7478C28.6683 93.0951 29.0865 91.786 28.4405 89.9975C28.4405 89.9975 29.7037 90.3162 30.6323 90.2215C31.5638 90.1267 32.0714 89.9172 32.1089 89.8339C32.1435 89.7506 30.7592 89.8483 30.2747 89.5956C30.2747 89.5956 32.9135 89.7506 33.9719 89.4262C34.093 89.3889 33.2711 86.8999 31.2754 86.4923C29.2768 86.0846 27.2033 88.1861 26.7851 89.1047C26.7851 89.1047 26.0353 89.5296 25.6344 91.0368C25.2306 92.5439 27.3417 94.7143 27.8204 94.4932Z" fill="#263238"/>
<path d="M28.5558 94.4412C28.5558 94.4412 27.2033 93.4737 26.7332 93.9991C26.2631 94.5216 27.5926 96.1436 28.3684 96.1579C29.1442 96.1723 29.1701 95.4574 29.1701 95.4574L28.5558 94.4412Z" fill="#F7A9A0"/>
<path d="M27.1253 94.4558C27.1138 94.4587 27.1167 94.4759 27.1282 94.4759C27.6761 94.5017 28.0857 94.8577 28.426 95.2539C28.2212 95.1276 27.9905 95.0989 27.8117 95.3515C27.803 95.3659 27.8203 95.3802 27.8348 95.3716C28.0164 95.2596 28.1722 95.2453 28.3596 95.3544C28.4923 95.4319 28.6077 95.5496 28.7201 95.6558C28.7576 95.6903 28.8268 95.6415 28.7922 95.5984C28.7893 95.5955 28.7865 95.5926 28.7836 95.5898C28.5817 94.9726 27.8059 94.2864 27.1253 94.4558Z" fill="#263238"/>
<path d="M26.8341 88.897C26.3208 89.4281 24.5212 89.4626 23.7137 88.6415C22.6033 87.5076 23.9098 85.1363 25.6228 85.6473C27.3388 86.1583 27.2292 88.4865 26.8341 88.897Z" fill="#263238"/>
<path d="M23.7339 86.3428C23.4513 86.7877 23.2465 87.2873 23.2119 87.7868C23.2004 88.0365 23.2407 88.2834 23.3619 88.4873C23.4801 88.6911 23.6647 88.8576 23.8867 88.9696C24.103 89.0901 24.3511 89.1619 24.5991 89.2222C24.8471 89.2882 25.1038 89.3112 25.3576 89.3169C25.868 89.3169 26.39 89.1935 26.8313 88.8978C26.4535 89.2739 25.9084 89.4863 25.3633 89.5179C25.0894 89.5351 24.8125 89.515 24.5443 89.4605C24.279 89.4002 24.0108 89.3313 23.7627 89.1935C23.5147 89.0614 23.2869 88.8605 23.1484 88.6021C23.0129 88.3437 22.9725 88.0452 23.0129 87.7696C23.0879 87.2155 23.3734 86.7303 23.7339 86.3428Z" fill="#263238"/>
</g>
</svg>
