<svg width="128" height="110" viewBox="0 0 128 110" fill="none" xmlns="http://www.w3.org/2000/svg">
<g filter="url(#filter0_d)">
<path d="M33.8022 86.8262V91.4837C33.8022 93.4015 35.3427 94.9997 37.2909 94.9997H46.7602C48.6631 94.9997 50.2488 93.4472 50.2488 91.4837V88.196C45.6728 88.0591 41.0967 87.9221 36.5207 87.6938C35.5239 87.6481 34.6178 87.3285 33.8022 86.8262Z" fill="white"/>
<path d="M87.4014 88.196V91.4837C87.4014 93.4015 88.9418 94.9997 90.89 94.9997H100.359C102.262 94.9997 103.848 93.4472 103.848 91.4837V86.8262C103.032 87.3285 102.126 87.6024 101.13 87.6481C96.5082 87.9221 91.9774 88.0591 87.4014 88.196Z" fill="white"/>
<path d="M46.1262 15.0905C46.0356 14.9535 45.8091 14.9992 45.8091 15.1362C45.5825 16.2321 45.2654 17.5563 44.6764 19.0175C43.589 18.6065 42.411 18.2412 41.1424 18.0129C41.0518 18.0129 40.9159 17.9672 40.8252 17.9672C40.7346 17.9672 40.5987 17.9216 40.5081 17.9216C40.2816 17.8759 40.055 17.8759 39.8285 17.8303C39.7379 17.7389 39.6019 17.7389 39.5113 17.7389C39.4207 17.7389 39.2848 17.6933 39.1942 17.6933C39.1036 17.6933 38.9223 17.6933 38.8317 17.6476H38.6505H38.4693C38.0162 17.6019 37.5631 17.6019 37.0647 17.6019C36.9288 17.6019 36.8382 17.6019 36.7023 17.6019C36.5663 17.6019 36.4757 17.6019 36.3398 17.6019C36.1133 17.6019 35.8867 17.6019 35.6149 17.6476C35.3884 17.6476 35.1618 17.6933 34.89 17.6933C34.754 17.6933 34.6634 17.6933 34.5275 17.7389C34.3916 17.7389 34.301 17.7389 34.165 17.7846C33.8026 17.7846 33.3042 17.8303 32.8058 17.9216C32.6699 17.9216 32.5793 17.9672 32.4434 17.9672L32.3074 18.0586C32.2621 18.0586 32.1715 18.1042 32.1262 18.1042C31.8544 18.1499 31.6278 18.1955 31.4013 18.2412L31.2201 18.2869L31.0388 18.3325C30.9029 18.3782 30.8123 18.4239 30.6764 18.4695C30.5858 18.4695 30.4498 18.5152 30.3139 18.5608C30.2686 18.5608 30.178 18.6065 30.1327 18.6065L29.9968 18.6522C29.7249 18.7435 29.4984 18.8348 29.2718 18.9261C29.1812 18.9261 29.0453 19.0175 28.9094 19.0631L28.5922 19.2001L28.2298 19.3371C28.1845 19.3371 28.0939 19.3828 28.0485 19.4284L27.9126 19.4741C27.6861 19.5654 27.4595 19.6567 27.233 19.7937C27.0065 19.885 26.7799 20.022 26.5534 20.1134L26.2362 20.296C26.1003 20.3417 26.0097 20.433 25.9191 20.4787L25.2848 20.8439L24.6505 21.2549L24.3333 21.4832L24.0162 21.7115L23.3819 22.1681C23.246 22.3051 23.0647 22.4421 22.8835 22.5791L22.5663 22.8074C22.521 22.8531 22.521 22.8074 22.521 22.8531L22.4757 22.8987L22.4304 22.9444L22.2945 23.0814L22.0227 23.3554C21.932 23.401 21.8414 23.4924 21.7508 23.5837C21.5696 23.7663 21.3884 23.949 21.2071 24.086C21.0259 24.2686 20.89 24.4513 20.7087 24.6339C20.5275 24.8166 20.3916 24.9992 20.2104 25.1818C19.8932 25.5471 19.5761 25.9124 19.3042 26.3234C19.1683 26.506 19.0324 26.6887 18.8964 26.8713C18.8058 26.9627 18.7605 27.0997 18.7152 27.191C18.6246 27.2823 18.5793 27.3736 18.4887 27.465C17.9903 28.2412 17.4919 29.0631 17.1294 29.885C16.3139 31.5745 15.7702 33.264 15.4531 34.9079C15.4531 34.9992 15.4078 35.0905 15.4078 35.2275C15.4078 35.3188 15.3625 35.4102 15.3625 35.5471C15.3172 35.6841 15.2718 35.9124 15.2265 36.0951C15.1812 36.506 15.1359 36.917 15.0906 37.2823C15 38.0586 15 38.8348 15 39.5197C15.0453 40.9809 15.1812 42.2595 15.4078 43.401C15.6343 44.5426 15.9515 45.5015 16.2233 46.2777C16.4951 47.054 16.767 47.6476 16.9482 48.0586C17.1295 48.4695 17.2201 48.6522 17.2201 48.6522C17.2201 48.6522 17.1294 48.5152 16.9935 48.1042C16.8123 47.6933 16.6311 47.054 16.4045 46.2777C16.178 45.4558 15.9968 44.4969 15.8608 43.3554C15.7249 42.2595 15.6343 40.9353 15.7249 39.5654C15.7702 38.8805 15.8608 38.1499 15.9968 37.4193C16.0421 37.054 16.1327 36.6887 16.2233 36.3234C16.2686 36.0951 16.3139 35.9124 16.3592 35.7298C16.3592 35.6385 16.4045 35.5471 16.4045 35.4558C16.4498 35.3645 16.4498 35.2732 16.4951 35.1818C16.9482 33.675 17.5825 32.1225 18.4434 30.6613C18.8511 29.9307 19.3495 29.2001 19.8932 28.5152C19.9385 28.4239 20.0291 28.3325 20.0744 28.2412C20.1197 28.1499 20.2104 28.0586 20.301 27.9672C20.4369 27.7846 20.5728 27.6019 20.7087 27.465C21.0259 27.1453 21.2977 26.8257 21.6149 26.506C21.7508 26.3691 21.932 26.1864 22.1133 26.0494C22.2945 25.9124 22.4304 25.7298 22.6117 25.5928C22.7929 25.4558 22.9741 25.3188 23.11 25.1818C23.2006 25.0905 23.2913 25.0449 23.3819 24.9535L23.6537 24.7709L23.8803 24.5882L24.1521 24.4056C24.3333 24.2686 24.5599 24.1316 24.7411 23.9946L25.2848 23.675L25.5566 23.4924L25.8738 23.3097L26.4628 22.9901L27.0518 22.7161C27.1424 22.6248 27.233 22.5791 27.3689 22.5334L27.6861 22.3965C27.8673 22.3051 28.0939 22.2138 28.2751 22.1225C28.5016 22.0312 28.6828 21.9855 28.9094 21.8942H29.0453C29.0906 21.8942 29.1359 21.8485 29.1812 21.8485L29.4984 21.7115L29.8155 21.6202C29.9061 21.5745 30.0421 21.5745 30.1327 21.5289C30.3139 21.4832 30.5405 21.4376 30.767 21.3919L30.9029 21.3462C30.9482 21.3462 30.9935 21.3462 31.0388 21.3006C31.1294 21.3006 31.2654 21.2549 31.356 21.2549C31.4466 21.2549 31.5825 21.2092 31.6731 21.2092L31.8091 21.1636L31.945 21.1179C32.2168 21.0723 32.4434 21.0723 32.6246 21.0266C32.6699 21.0266 32.7152 21.0266 32.7605 20.9809H32.8964C32.9871 20.9809 33.123 20.9809 33.2136 20.9353C33.6214 20.8896 34.0291 20.8896 34.4369 20.8439C34.5275 20.8439 34.6634 20.8439 34.754 20.8439C34.8447 20.8439 34.9806 20.8439 35.0712 20.8439C35.2977 20.8439 35.479 20.8439 35.6602 20.8439C37.2913 20.8896 38.8317 21.1179 40.2362 21.5289C41.1424 21.8029 42.0485 22.1225 42.8188 22.4878C41.9579 23.9946 40.9612 25.1818 40.1003 26.0038C39.9644 26.1408 40.055 26.3234 40.2362 26.3234C41.7767 26.3234 43.4078 26.4147 45.1748 26.5974C48.5275 26.9627 51.4272 27.6476 53.7832 28.3782C52.9676 26.2321 51.835 23.7663 50.2945 21.1179C48.89 18.7435 47.4854 16.7344 46.1262 15.0905Z" fill="white"/>
<path d="M26.6438 65.0446C26.7344 65.1816 26.9609 65.1359 26.9609 64.9532C27.1422 63.8574 27.5046 62.5332 28.0483 61.1176C29.1357 61.5286 30.359 61.8939 31.5823 62.1222C31.6729 62.1222 31.8088 62.1679 31.8994 62.1679C31.9901 62.1679 32.126 62.2135 32.2166 62.2135C32.4431 62.2592 32.6697 62.3048 32.8962 62.3048C32.9868 62.3048 33.1227 62.3505 33.2134 62.3505C33.304 62.3505 33.4399 62.3962 33.5305 62.3962C33.6211 62.3962 33.757 62.4418 33.8477 62.4418H34.0289H34.2101C34.6632 62.4875 35.1163 62.4875 35.6146 62.4875C35.7506 62.4875 35.8412 62.4875 35.9771 62.4875C36.113 62.4875 36.2036 62.4875 36.3396 62.4875C36.5661 62.4875 36.7926 62.4875 37.0645 62.4418C37.291 62.4418 37.5176 62.3962 37.7894 62.3962C37.9253 62.3962 38.0159 62.3962 38.1519 62.3505C38.2878 62.3505 38.3784 62.3505 38.5143 62.3048C39.0127 62.2592 39.4658 62.1679 39.9642 62.0765C40.1001 62.0765 40.1907 62.0309 40.3266 62.0309L40.5079 61.9852C40.5532 61.9852 40.6438 61.9396 40.6891 61.9396C40.9156 61.8939 41.1422 61.8482 41.414 61.7569L41.5952 61.7112L41.7765 61.6656C41.9124 61.6199 42.003 61.6199 42.1389 61.5743C42.2748 61.5286 42.3655 61.4829 42.5014 61.4829C42.5467 61.4829 42.6373 61.4373 42.6826 61.4373L42.8638 61.3916C43.0904 61.3003 43.3169 61.209 43.5434 61.1633C43.6794 61.1176 43.77 61.072 43.9059 61.0263L44.2684 60.8893L44.6308 60.7523C44.6761 60.7523 44.7667 60.7067 44.8121 60.661H44.8574C45.0839 60.5697 45.3104 60.4327 45.537 60.3414C45.7635 60.2501 45.99 60.1131 46.2166 59.9761L46.5337 59.7934C46.6697 59.7478 46.7603 59.7021 46.8509 59.6108L47.4852 59.2455L48.1195 58.8345L48.4367 58.6519L48.7538 58.4236L49.3881 57.9669C49.5693 57.83 49.7506 57.6473 49.9318 57.5103L50.2036 57.282C50.2489 57.2364 50.249 57.282 50.249 57.2364L50.2943 57.1907L50.3396 57.145L50.4755 57.008L50.7473 56.7797C50.8379 56.6884 50.9286 56.5971 51.0192 56.5514C51.2004 56.3688 51.3816 56.1861 51.5629 56.0491C51.7441 55.8208 51.88 55.6382 52.0612 55.5012C52.2425 55.3185 52.3784 55.1359 52.5596 54.9532C52.8768 54.588 53.1939 54.2227 53.4658 53.8117C53.6017 53.629 53.7376 53.4007 53.8735 53.2181C53.9642 53.1268 54.0095 53.0354 54.1001 52.9441C54.1454 52.8528 54.236 52.7615 54.2813 52.6245C54.7797 51.8482 55.2781 51.0263 55.6405 50.2044C56.4561 48.5606 56.9998 46.8711 57.3169 45.2272C57.3169 45.1359 57.3622 45.0446 57.3622 44.9076C57.3622 44.8163 57.4075 44.7249 57.4075 44.588C57.4981 44.4053 57.4981 44.2227 57.5434 43.9943C57.5888 43.629 57.6341 43.2181 57.6794 42.8071C57.77 42.0309 57.77 41.3003 57.77 40.5697C57.77 39.1085 57.5888 37.83 57.3622 36.6884C57.1357 35.5469 56.8185 34.5423 56.5467 33.766C56.2748 32.9898 56.003 32.3962 55.8218 31.9852C55.6405 31.5743 55.5499 31.3916 55.5499 31.3916C55.5499 31.3916 55.6405 31.6199 55.7765 32.0309C55.9124 32.4418 56.1389 33.0811 56.3655 33.8574C56.592 34.6336 56.7732 35.5925 56.9091 36.7341C57.0451 37.8756 57.1357 39.1542 57.0451 40.5697C56.9998 41.2546 56.9091 41.9852 56.7732 42.7158C56.7279 43.0811 56.6373 43.4464 56.5467 43.8117C56.5014 43.9943 56.4561 44.177 56.4108 44.4053C56.4108 44.4966 56.3655 44.588 56.3655 44.6793C56.3201 44.7706 56.2748 44.8619 56.2748 44.9532C55.8218 46.4601 55.1875 48.0126 54.3266 49.4738C53.9189 50.2044 53.4205 50.935 52.8768 51.6199C52.8315 51.7112 52.7409 51.8026 52.6955 51.8939C52.6049 51.9852 52.5596 52.0765 52.469 52.1679C52.3331 52.3048 52.1972 52.4875 52.0612 52.6701C51.7441 52.9898 51.4723 53.3094 51.1551 53.629C51.0192 53.766 50.8379 53.9487 50.6567 54.0857C50.5208 54.2227 50.3396 54.3596 50.1583 54.4966C50.0224 54.6793 49.8412 54.8163 49.66 54.9532C49.5693 54.9989 49.4787 55.0902 49.3881 55.1359L49.1163 55.3642L48.8897 55.5469L48.6179 55.7295C48.3913 55.8665 48.2101 56.0035 48.0289 56.1405L47.4852 56.4601L47.2134 56.6427L46.8962 56.8254L46.3072 57.145L45.7182 57.419C45.6276 57.4647 45.537 57.5103 45.4464 57.556L45.1292 57.693C44.9027 57.7843 44.7214 57.8756 44.4949 57.9669C44.3137 58.0126 44.0871 58.1039 43.9059 58.1953L43.7247 58.2409C43.6794 58.2409 43.6341 58.2866 43.5888 58.2866L43.2716 58.3779L42.9545 58.4692C42.8638 58.5149 42.7732 58.5606 42.6373 58.5606C42.4561 58.6062 42.2295 58.6975 42.0483 58.7432L41.8671 58.7889C41.8218 58.7889 41.7765 58.7889 41.7312 58.8345C41.6405 58.8345 41.5046 58.8802 41.414 58.8802C41.3234 58.8802 41.1875 58.9259 41.0968 58.9259L40.9156 58.9715H40.7797C40.5532 59.0172 40.3719 59.0628 40.1454 59.1085C40.1001 59.1085 40.0548 59.1085 40.0095 59.1085H39.8735C39.7829 59.1085 39.647 59.1085 39.5564 59.1542C39.1033 59.1998 38.6956 59.2455 38.2878 59.2455C38.1972 59.2455 38.0612 59.2455 37.9706 59.2455C37.88 59.2455 37.7441 59.2455 37.6535 59.2455C37.4269 59.2455 37.2457 59.2455 37.0645 59.2455C35.4334 59.1998 33.893 58.9715 32.4884 58.5606C31.5823 58.2866 30.6761 57.9669 29.9059 57.6017C30.8121 56.0948 31.8541 54.9533 32.6697 54.0857C32.8056 53.9487 32.715 53.766 32.5337 53.766C30.9933 53.766 29.3622 53.6747 27.5952 53.4921C24.2425 53.1724 21.3428 52.4418 18.9868 51.7112C19.8477 53.8574 20.9803 56.3688 22.5208 58.9715C23.88 61.3459 25.3299 63.3551 26.6438 65.0446Z" fill="white"/>
<path d="M112.954 58.5608C112.773 56.4603 110.916 54.9078 108.831 55.0905L104.754 55.4558C103.077 55.5928 101.628 56.506 100.721 57.7845L95.6017 47.7389C94.0612 44.6795 91.1615 42.4877 87.8088 41.8485C82.4625 40.7982 76.0289 39.9307 68.7797 39.9307C68.5984 39.9307 68.4625 39.9307 68.2813 39.9307C65.1551 39.9307 62.1648 40.1133 59.3557 40.3873C59.3557 40.4329 59.3557 40.5243 59.3557 40.5699C59.3557 41.2549 59.3557 42.1224 59.2651 42.99C59.3104 43.3097 59.2651 43.6293 59.2198 43.9489L59.1745 44.2229C62.2101 43.9033 65.291 43.7206 68.3266 43.7206C68.4625 43.7206 68.6437 43.7206 68.7797 43.7206C74.8962 43.7206 81.058 44.3142 87.0839 45.5471C89.3039 46.0037 91.1616 47.4192 92.2036 49.4284L96.825 57.7845C87.8994 56.9626 78.1583 56.4147 67.647 56.369C61.8929 56.369 57.3622 56.506 53.058 56.78C52.9674 56.9626 52.8315 57.0539 52.7408 57.1909H52.6955L52.1971 57.6932C52.0612 57.8302 51.9706 57.9215 51.88 58.0129L51.3363 58.4695L51.291 58.5151C51.2457 58.5608 51.2457 58.5608 51.2004 58.6065L50.3395 59.2914L49.3428 60.022L48.346 60.6613L47.5758 61.1179C47.4852 61.1635 47.3946 61.2092 47.3493 61.2549H47.3039L46.7603 61.5745C46.579 61.6658 46.4431 61.7571 46.2619 61.8028L45.99 61.9398L45.401 62.2138C45.3104 62.2594 45.2198 62.3051 45.1292 62.3051L44.359 62.6247C44.2683 62.6704 44.1324 62.716 43.9965 62.7617L43.1357 63.0813C43.0904 63.0813 42.9997 63.127 42.9544 63.127L41.9577 63.401L41.0062 63.6293C40.9609 63.6293 40.8703 63.6749 40.825 63.6749L40.2813 63.7663C39.8735 63.8576 39.4658 63.9033 39.058 63.9489L38.7861 63.9946C38.6502 63.9946 38.5143 64.0402 38.4237 64.0402L37.8347 64.0859C37.6535 64.0859 37.4269 64.1316 37.2004 64.1316L36.5208 64.1772C36.3848 64.1772 36.2489 64.1772 36.1583 64.1772H35.7505C35.2975 64.1772 34.935 64.1772 34.5272 64.1316L33.9382 64.0859C33.168 66.369 32.7603 68.7891 32.7603 71.2092V81.9398C32.7603 84.1772 34.4819 86.0037 36.702 86.095C46.8962 86.5973 57.5887 86.8713 68.6437 86.8713C68.7344 86.8713 68.7797 86.8713 68.8703 86.8713C80.0159 86.8713 90.7991 86.5973 101.084 86.095C103.304 86.0037 105.026 84.1772 105.026 81.9398V71.2092C105.026 68.4695 104.527 65.7754 103.53 63.264L109.647 62.716C111.595 62.5334 113.181 60.6613 112.954 58.5608ZM52.6049 74.4512C52.6049 74.4969 52.6049 74.4969 52.6049 74.4512C52.4237 75.1818 51.88 75.7754 51.1551 75.9581C51.1098 75.9581 51.1098 75.9581 51.0645 75.9581C49.7052 76.232 48.0742 76.4147 46.2619 76.369C45.3557 76.369 44.5402 76.2777 43.77 76.1864C42.2295 76.0037 40.7797 75.4101 39.5111 74.5425C38.7408 74.0402 38.2878 73.1727 38.2878 72.2138V69.2001C38.2878 68.5608 38.7408 68.0128 39.3298 67.8302C39.3751 67.8302 39.4658 67.7845 39.5111 67.7845C40.3266 67.6932 41.0968 67.6019 41.9124 67.5562C42.8185 67.4649 43.77 67.6476 44.5855 68.1042C45.0386 68.3781 45.5823 68.6521 46.1713 68.9718C47.8476 69.885 48.5272 70.2503 49.7505 70.9352C50.2942 71.2549 51.0645 71.7115 52.0159 72.3051C52.5143 72.6247 52.7861 73.127 52.7408 73.7206C52.6955 73.9946 52.6502 74.2229 52.6049 74.4512ZM81.1033 83.7663C81.1033 84.5425 80.5143 85.1361 79.7441 85.1361H58.1777C57.4075 85.1361 56.8185 84.5425 56.8185 83.7663V82.2594C56.8185 81.4832 57.4075 80.8896 58.1777 80.8896H79.7894C80.5596 80.8896 81.1486 81.4832 81.1486 82.2594V83.7663H81.1033ZM99.181 74.5425C97.9124 75.4101 96.4172 75.958 94.9221 76.1864C94.1518 76.2777 93.3363 76.369 92.4302 76.369C90.5726 76.4147 88.9415 76.232 87.6276 75.9581C87.5823 75.9581 87.5823 75.9581 87.537 75.9581C86.812 75.7754 86.2683 75.2275 86.0871 74.4969C86.0418 74.2686 85.9965 73.9946 85.9965 73.8119C85.9512 73.264 86.223 72.716 86.7214 72.3964C87.6276 71.8028 88.3978 71.3918 88.9868 71.0265C90.2101 70.296 90.8897 69.9763 92.5661 69.0631C93.1551 68.7434 93.6988 68.4238 94.1518 68.1955C94.9674 67.7389 95.8735 67.5562 96.825 67.6476C97.6405 67.7389 98.4107 67.8302 99.2263 67.8759C99.2716 67.8759 99.3622 67.8759 99.4075 67.9215C99.9965 68.0585 100.45 68.6065 100.45 69.2914V72.3051C100.404 73.1727 99.9512 74.0402 99.181 74.5425Z" fill="white"/>
</g>
<defs>
<filter id="filter0_d" x="0" y="0.0078125" width="127.976" height="109.992" filterUnits="userSpaceOnUse" color-interpolation-filters="sRGB">
<feFlood flood-opacity="0" result="BackgroundImageFix"/>
<feColorMatrix in="SourceAlpha" type="matrix" values="0 0 0 0 0 0 0 0 0 0 0 0 0 0 0 0 0 0 127 0" result="hardAlpha"/>
<feOffset/>
<feGaussianBlur stdDeviation="7.5"/>
<feComposite in2="hardAlpha" operator="out"/>
<feColorMatrix type="matrix" values="0 0 0 0 1 0 0 0 0 0.866667 0 0 0 0 0 0 0 0 0.5 0"/>
<feBlend mode="normal" in2="BackgroundImageFix" result="effect1_dropShadow"/>
<feBlend mode="normal" in="SourceGraphic" in2="effect1_dropShadow" result="shape"/>
</filter>
</defs>
</svg>
