<svg width="142" height="110" viewBox="0 0 142 110" fill="none" xmlns="http://www.w3.org/2000/svg">
<g filter="url(#filter0_d)">
<path d="M47.2825 90.1253H32.8059V24.1383C32.8059 23.201 32.0577 22.4512 31.1226 22.4512H21.5089C20.5737 22.4512 19.8255 23.201 19.8255 24.1383V90.1253H18.8904C16.7207 90.1253 15 91.8499 15 93.987C15 94.5119 15.4489 94.9618 15.9726 94.9618H50.2003C50.724 94.9618 51.1729 94.5119 51.1729 93.987C51.1729 91.8499 49.4522 90.1253 47.2825 90.1253Z" fill="white"/>
<path d="M60.936 67.2559H37.4442V63.2442C37.4442 61.8195 36.2846 60.6572 34.8631 60.6572C34.2646 60.6572 33.7783 61.1446 33.7783 61.7445V76.4791C33.7783 77.079 34.2646 77.5664 34.8631 77.5664C36.2846 77.5664 37.4442 76.4041 37.4442 74.9794V70.8927H59.0657C60.5994 70.8927 61.8338 69.6554 61.8338 68.1183C61.8338 67.6683 61.4223 67.2559 60.936 67.2559Z" fill="white"/>
<path d="M123.219 90.1253H122.247V24.1383C122.247 23.201 121.499 22.4512 120.564 22.4512H110.912C109.977 22.4512 109.229 23.201 109.229 24.1383V90.1253H94.7151C92.5828 90.1253 90.8247 91.8499 90.8247 94.0245C90.8247 94.5494 91.2736 94.9993 91.7973 94.9993H126.025C126.549 94.9993 126.998 94.5494 126.998 94.0245C127.072 91.8499 125.352 90.1253 123.219 90.1253Z" fill="white"/>
<path d="M104.666 74.9433C104.666 76.368 105.826 77.5303 107.247 77.5303C107.846 77.5303 108.332 77.0428 108.332 76.443V61.7084C108.332 61.1085 107.846 60.6211 107.247 60.6211C105.826 60.6211 104.666 61.7834 104.666 63.2081V67.2198H81.1741C80.6878 67.2198 80.2764 67.6322 80.2764 68.1196C80.2764 69.6568 81.5108 70.8941 83.0445 70.8941H104.666V74.9433Z" fill="white"/>
<path d="M42.3066 59.3428V63.6919C42.3066 65.2666 43.5785 66.5413 45.1496 66.5413H52.9303C54.5014 66.5413 55.7733 65.2666 55.7733 63.6919V60.4301C52.0325 60.3551 48.2544 60.2051 44.5137 60.0176C43.6907 59.9801 42.9426 59.7552 42.3066 59.3428Z" fill="white"/>
<path d="M81.884 57.5088C81.061 57.5088 80.3877 58.1837 80.3877 59.0085C80.3877 59.8333 81.061 60.5082 81.884 60.5082C82.7069 60.5082 83.3803 59.8333 83.3803 59.0085C83.3803 58.1837 82.7069 57.5088 81.884 57.5088Z" fill="white"/>
<path d="M87.1576 59.0085C87.1576 58.1837 86.4843 57.5088 85.6613 57.5088C84.8384 57.5088 84.165 58.1837 84.165 59.0085C84.165 59.8333 84.8384 60.5082 85.6613 60.5082C86.4843 60.5082 87.1576 59.8708 87.1576 59.0085Z" fill="white"/>
<path d="M87.3076 60.4336C87.0457 60.7335 86.709 60.9585 86.335 61.1084V63.7329C86.335 65.3076 87.6068 66.5824 89.1779 66.5824H96.9586C98.5298 66.5824 99.8016 65.3076 99.8016 63.7329V59.3838C99.1657 59.7962 98.3801 60.0212 97.5572 60.0587C94.1905 60.2086 90.7864 60.3211 87.3076 60.4336Z" fill="white"/>
<path d="M44.1019 36.097C44.1019 36.097 44.9249 34.4848 45.8975 32.5727C45.6356 32.1603 45.1494 31.8604 44.6257 31.8604H40.0994C38.7153 31.8604 37.5557 33.0226 37.5557 34.4098V35.0472C37.5557 35.9096 38.229 36.5844 39.0894 36.5844H43.8401L44.1019 36.097Z" fill="white"/>
<path d="M102.009 31.8604H97.4828C96.9591 31.8604 96.4728 32.1228 96.2109 32.5727C97.1835 34.4848 98.0065 36.097 98.0065 36.097L98.2683 36.5844H103.019C103.879 36.5844 104.553 35.9096 104.553 35.0472V34.4098C104.553 33.0226 103.393 31.8604 102.009 31.8604Z" fill="white"/>
<path d="M66.9194 28.7145H75.6727L71.2961 21.1035L66.9194 28.7145Z" fill="white"/>
<path d="M95.05 34.7494L93.2918 22.3769C92.8055 19.0025 91.0474 16.6405 89.0648 16.6405L84.8003 16.0031C75.8226 14.6909 66.77 14.6534 57.7922 15.9656L53.0789 16.6405C51.0963 16.6405 49.3382 19.0025 48.8519 22.3769L47.0938 34.7494C47.9167 34.562 49.7497 34.3745 52.2934 34.2245V35.5743C52.2934 36.774 52.8919 37.4864 53.6026 37.4864H54.6874C54.9493 37.4864 55.1737 37.2614 55.1737 36.999C55.1737 36.7365 54.9493 36.5116 54.6874 36.5116C54.1637 36.5116 53.7523 35.7992 53.7523 34.9369V34.187C58.2037 33.9621 64.3385 33.8496 71.1467 33.8496C77.9548 33.8496 84.0896 33.9996 88.5411 34.187V34.9369C88.5411 35.7992 88.1296 36.5116 87.6059 36.5116C87.344 36.5116 87.1196 36.7365 87.1196 36.999C87.1196 37.2614 87.344 37.4864 87.6059 37.4864H88.6907C89.4015 37.4864 90 36.774 90 35.5743V34.2245C92.394 34.3745 94.227 34.562 95.05 34.7494ZM77.7304 29.9129C77.5807 30.1753 77.3189 30.3253 77.0196 30.3253H65.4982C65.1989 30.3253 64.9371 30.1753 64.7874 29.9129C64.6378 29.6504 64.6378 29.3505 64.7874 29.088L70.5482 19.0775C70.6978 18.8151 70.9596 18.6651 71.2589 18.6651C71.5581 18.6651 71.82 18.8151 71.9696 19.0775L77.7304 29.088C77.88 29.3505 77.88 29.6879 77.7304 29.9129Z" fill="white"/>
<path d="M86.8209 36.0999C86.9705 35.9499 87.195 35.8374 87.4568 35.8374C87.569 35.8374 87.6812 35.7249 87.7935 35.575C87.9057 35.425 87.9805 35.2 87.9805 34.9376C82.4442 34.7126 76.9453 34.8251 70.3242 34.7876C63.3291 34.7876 59.1395 34.6752 54.0146 34.9376C54.0521 35.1626 54.1269 35.3875 54.2017 35.575C54.3139 35.7249 54.4261 35.8374 54.5009 35.8374H54.5383C54.8002 35.8374 55.0246 35.9499 55.1743 36.0999H70.9602H86.8209Z" fill="white"/>
<path d="M99.5769 40.2967L97.3699 36.0975L95.0506 31.5234L95.5743 35.0477L94.9758 34.8978C94.6391 34.8228 94.0406 34.7103 92.8436 34.5978L93.1428 35.2352C92.1703 35.1602 91.2351 35.0852 90.2999 35.0102V35.2727C90.2999 35.5351 90.2625 35.7976 90.2251 36.06H93.3299C95.0506 36.06 96.6217 37.1473 97.1828 38.797L97.6317 40.1092H87.8684C87.4569 40.1092 87.1203 40.3717 86.9706 40.7841L85.1003 46.9704C84.9506 47.3828 84.614 47.6452 84.2025 47.6452H71.0351H57.8677C57.4562 47.6452 57.1196 47.3828 56.97 46.9704L55.0996 40.7841C55.0248 40.4092 54.6507 40.1467 54.2392 40.1467H44.4759L44.9248 38.8345C45.4859 37.1848 47.057 36.0975 48.7777 36.0975H51.8826C51.8451 35.8726 51.8077 35.6101 51.8077 35.3477V35.0852C51.0596 35.1227 50.3114 35.1977 49.4885 35.2727C49.6007 35.0852 49.7129 34.8603 49.8252 34.5978C48.254 34.7103 47.5059 34.8228 47.1318 34.9353L46.5333 35.0477L47.0196 31.7109C45.86 33.9605 44.7752 36.06 44.7752 36.06L42.5681 40.2967C41.7826 42.3588 41.3711 42.6212 41.3711 44.8708V55.8561C41.3711 59.268 49.1518 59.1555 50.9474 59.268C59.364 59.6804 62.0199 59.3429 71.1099 59.3429C71.1847 59.3429 71.2221 59.3429 71.297 59.3429C74.9255 59.3429 77.3944 59.3804 79.5266 59.4179C79.4144 59.1555 79.3395 58.818 79.3769 58.4806C79.4892 57.5808 80.2747 56.9434 81.1725 56.9434H86.3347C87.1577 56.9434 87.9058 57.5058 88.0929 58.2931C88.1677 58.6681 88.1303 59.043 88.018 59.3429C88.8036 59.3054 89.664 59.268 90.5991 59.2305C92.3947 59.1555 100.737 59.1555 100.737 55.8186V44.8708C100.811 42.6212 100.362 42.3588 99.5769 40.2967ZM42.9796 43.7835C42.9796 43.3711 43.6529 43.0337 44.4759 43.0337H52.9674C53.1544 43.0337 53.3414 43.1086 53.3788 43.2211L54.2018 45.1332C54.2766 45.2832 54.0522 45.3957 53.7903 45.3957H43.3911C43.1666 45.3957 42.9796 45.2832 42.9796 45.1707V43.7835ZM54.5011 47.9452H43.8026C43.3537 47.9452 42.9796 47.5703 42.9796 47.1204V46.6329C42.9796 46.408 43.1666 46.2205 43.3911 46.2205H54.2392C54.4263 46.2205 54.6133 46.333 54.6507 46.5205L54.9125 47.3828C54.9874 47.6452 54.8003 47.9452 54.5011 47.9452ZM81.2099 50.3072C81.2099 51.6195 80.1625 52.6693 78.8532 52.6693H63.5536C62.2444 52.6693 61.197 51.6195 61.197 50.3072C61.197 49.7073 61.6833 49.1824 62.3192 49.1824H80.0877C80.6862 49.1824 81.2099 49.6698 81.2099 50.3072ZM99.1654 47.1204C99.1654 47.5703 98.7914 47.9452 98.3425 47.9452H87.644C87.3447 47.9452 87.1577 47.6827 87.2325 47.3828L87.4943 46.5205C87.5317 46.333 87.7188 46.2205 87.9058 46.2205H98.7539C98.9784 46.2205 99.1654 46.408 99.1654 46.6329V47.1204ZM99.1654 45.1332C99.1654 45.2457 98.9784 45.3582 98.7539 45.3582H88.3547C88.0929 45.3582 87.8684 45.2457 87.9432 45.0958L88.7662 43.1836C88.8036 43.0712 88.9906 42.9962 89.1777 42.9962H97.6691C98.4921 42.9962 99.1654 43.3336 99.1654 43.746V45.1332Z" fill="white"/>
</g>
<defs>
<filter id="filter0_d" x="0" y="0" width="142" height="109.999" filterUnits="userSpaceOnUse" color-interpolation-filters="sRGB">
<feFlood flood-opacity="0" result="BackgroundImageFix"/>
<feColorMatrix in="SourceAlpha" type="matrix" values="0 0 0 0 0 0 0 0 0 0 0 0 0 0 0 0 0 0 127 0" result="hardAlpha"/>
<feOffset/>
<feGaussianBlur stdDeviation="7.5"/>
<feComposite in2="hardAlpha" operator="out"/>
<feColorMatrix type="matrix" values="0 0 0 0 1 0 0 0 0 0.866667 0 0 0 0 0 0 0 0 0.5 0"/>
<feBlend mode="normal" in2="BackgroundImageFix" result="effect1_dropShadow"/>
<feBlend mode="normal" in="SourceGraphic" in2="effect1_dropShadow" result="shape"/>
</filter>
</defs>
</svg>
