<svg width="24" height="24" viewBox="0 0 24 24" fill="none" xmlns="http://www.w3.org/2000/svg">
<rect width="24" height="24" rx="4" fill="#FFDD00"/>
<path d="M19.6875 16.1875L15.8125 12.2812C15.3125 11.8125 14.6875 11.5625 14.0312 11.5625C13.5625 11.5625 13.0625 11.6875 12.6562 11.9688L10 9.3125V7L6 4L4 6L7 10H9.28125L11.9375 12.6875C11.3125 13.6562 11.4062 14.9688 12.2812 15.8438L16.1562 19.7188C16.3438 19.9062 16.625 20.0312 16.875 20.0312C17.125 20.0312 17.375 19.9062 17.5625 19.7188L19.6875 17.5938C20.0938 17.2188 20.0938 16.5625 19.6875 16.1875ZM9 8.96875V9H7.5L5.3125 6.09375L6.09375 5.34375L9 7.5V8.96875ZM16.875 19L12.9688 15.125C12.6875 14.8438 12.5312 14.4688 12.5312 14.0625C12.5312 13.6562 12.6875 13.2812 12.9688 13C13.25 12.7188 13.625 12.5625 14.0312 12.5625C14.4375 12.5625 14.8125 12.7188 15.0938 13L19 16.9062L16.875 19ZM6 17.5C6 17.7812 6.21875 18 6.5 18C6.75 18 7 17.7812 7 17.5C7 17.25 6.75 17 6.5 17C6.21875 17 6 17.25 6 17.5ZM12.625 6.09375C13.3438 5.40625 14.2812 5 15.25 5C15.4688 5 15.6875 5.03125 15.9062 5.0625L13.75 7.25L14.1562 9.84375L16.75 10.25L18.9375 8.09375C19.125 9.28125 18.75 10.5 17.9062 11.375C17.625 11.6562 17.3125 11.875 16.9688 12.0312L17.6875 12.7812C18.0312 12.5938 18.3125 12.3438 18.5938 12.0625C19.7812 10.875 20.25 9.21875 19.8438 7.59375C19.7812 7.28125 19.5312 7.0625 19.25 6.96875C18.9375 6.90625 18.625 6.96875 18.4062 7.1875L16.4062 9.1875L15.0312 8.96875L14.8125 7.59375L16.8125 5.59375C17 5.375 17.0938 5.0625 17.0312 4.75C16.9375 4.46875 16.6875 4.21875 16.4062 4.15625C14.7812 3.75 13.125 4.21875 11.9375 5.40625C11.5312 5.8125 11.2188 6.28125 11 6.78125V8.90625L11.6875 9.59375C11.375 8.3125 11.7188 7 12.625 6.09375ZM7.34375 18.625C6.8125 19.125 5.90625 19.125 5.375 18.625C4.84375 18.0625 4.84375 17.1875 5.375 16.6562L9.9375 12.0938L9.25 11.4062L4.6875 15.9688C3.75 16.875 3.75 18.4062 4.6875 19.3125C5.125 19.7812 5.71875 20 6.34375 20C7 20 7.59375 19.7812 8.03125 19.3125L11.2188 16.125C11 15.8438 10.8438 15.5312 10.7188 15.2188L7.34375 18.625Z" fill="black"/>
</svg>
