<svg width="166" height="110" viewBox="0 0 166 110" fill="none" xmlns="http://www.w3.org/2000/svg">
<g filter="url(#filter0_d)">
<path d="M151 52.4069C151 51.1931 150.12 50.1448 148.965 49.9241L143.299 48.8759C142.969 47.2207 142.529 45.6207 141.979 44.0207L146.379 40.2138C147.315 39.4414 147.535 38.1172 146.929 37.069L144.399 32.7655C143.794 31.7172 142.529 31.2759 141.374 31.6621L135.928 33.5931C134.827 32.3241 133.672 31.1103 132.352 30.0621L134.277 24.5448C134.662 23.3862 134.222 22.1172 133.177 21.5103L128.831 19.0276C127.786 18.4207 126.466 18.6414 125.696 19.5793L121.955 23.9931C120.36 23.4414 118.765 23 117.114 22.7241L116.014 16.9862C115.794 15.8828 114.749 15 113.539 15H108.588C107.378 15 106.333 15.8828 106.113 17.0414L105.067 22.7241C103.417 23.0552 101.822 23.4966 100.227 24.0483L96.431 19.6345C95.6609 18.6966 94.3407 18.4759 93.2955 19.0828L89.0048 21.6207C87.9596 22.2276 87.5195 23.4966 87.9046 24.6552L89.8299 30.1172C88.5647 31.2207 87.3545 32.3793 86.3093 33.7034L80.8084 31.7724C79.6532 31.3862 78.388 31.8276 77.7829 32.8759L75.3075 37.2345C74.7024 38.2828 74.9224 39.6069 75.8576 40.3793L80.2583 44.131C79.7082 45.731 79.2682 47.331 78.9931 48.9862L73.2722 50.0897C72.062 50.3103 71.2368 51.3586 71.2368 52.5724V57.5379C71.2368 58.7517 72.117 59.8 73.2722 60.0207L78.9381 61.069C79.2682 62.7241 79.7082 64.3241 80.2583 65.9241L75.8576 69.731C74.9224 70.5034 74.7024 71.8276 75.3075 72.8759L77.8379 77.1793C78.443 78.2276 79.7082 78.669 80.8634 78.2828L86.3093 76.3517C87.4095 77.6207 88.5647 78.8345 89.8849 79.8828L87.9596 85.4C87.5745 86.5586 88.0146 87.8276 89.0598 88.4345L93.4055 90.9172C94.4507 91.5241 95.7709 91.3035 96.541 90.3655L100.282 85.9517C101.877 86.5034 103.472 86.9448 105.122 87.2207L106.223 92.9586C106.443 94.1724 107.488 95 108.698 95H113.649C114.859 95 115.904 94.1172 116.124 92.9586L117.169 87.2759C118.82 86.9448 120.415 86.5034 122.01 85.9517L125.806 90.3655C126.576 91.3035 127.951 91.5241 128.941 90.9172L133.232 88.3793C134.277 87.7724 134.717 86.5034 134.332 85.3448L132.407 79.8828C133.672 78.7793 134.882 77.6207 135.928 76.2966L141.429 78.2276C142.584 78.6138 143.849 78.1724 144.454 77.1241L146.929 72.7655C147.535 71.7172 147.315 70.3931 146.379 69.6207L141.979 65.869C142.529 64.269 142.969 62.669 143.244 61.0138L148.965 59.9103C150.175 59.6897 151 58.6414 151 57.4276V52.4069ZM111.118 83.1931C95.6059 83.1931 83.0088 70.5586 83.0088 55C83.0088 39.4414 95.6059 26.8069 111.118 26.8069C126.631 26.8069 139.228 39.4414 139.228 55C139.228 70.5586 126.631 83.1931 111.118 83.1931Z" fill="white"/>
<path d="M129.986 44.2964L122.725 51.5792C121.35 52.9585 119.15 52.9585 117.774 51.5792L114.584 48.3792C113.209 46.9999 113.209 44.793 114.584 43.4137L121.845 36.1309C117.719 34.8619 113.044 35.9102 109.798 39.1654C105.067 43.9102 105.067 51.6343 109.798 56.3792C114.529 61.124 122.23 61.124 126.961 56.3792C130.207 53.124 131.197 48.4343 129.986 44.2964Z" fill="white"/>
<path d="M106.113 51.9102L95.276 62.7791C93.0206 65.0412 93.0206 68.6826 95.276 70.9446C97.5314 73.2067 101.162 73.2067 103.417 70.9446L114.254 60.0757C112.384 59.5239 110.624 58.4757 109.193 57.0412C107.653 55.5515 106.663 53.786 106.113 51.9102ZM100.722 68.7377C99.8418 69.6205 98.3565 69.6205 97.4764 68.7377C96.5962 67.855 96.5962 66.3653 97.4764 65.4826C98.3565 64.5998 99.8418 64.5998 100.722 65.4826C101.602 66.3653 101.602 67.855 100.722 68.7377Z" fill="white"/>
<path d="M26.1846 78.4482V84.0758C26.1846 86.3931 28.0549 88.3241 30.4203 88.3241H41.9172C44.2276 88.3241 46.1529 86.4482 46.1529 84.0758V80.1034C40.597 79.9379 35.041 79.7724 29.5401 79.4965C28.2749 79.4413 27.1747 79.0551 26.1846 78.4482Z" fill="white"/>
<path d="M73.9324 76.3516H55.7244C54.7892 76.3516 54.0741 75.6344 54.0741 74.6965V72.8758C54.0741 71.9379 54.7892 71.2206 55.7244 71.2206H72.0071C72.1171 69.7861 72.7772 68.462 73.8774 67.4689L76.7929 64.9861C76.6829 64.5448 76.5729 64.1585 76.4628 63.7172L72.7772 62.9999C70.1918 62.5034 68.2665 60.2413 68.2665 57.593V52.6275C68.2665 49.9792 70.1368 47.662 72.7222 47.1654L76.4628 46.4482C76.5729 46.0068 76.6829 45.5654 76.7929 45.1792L73.9324 42.7517C73.6024 42.4758 73.3273 42.1448 73.0523 41.8137C71.127 41.7585 69.2016 41.7034 67.2763 41.7034C54.0191 41.7034 46.1528 42.3654 34.9859 43.4137C36.1411 41.1517 40.2668 33.3172 40.2668 33.3172C41.532 30.8896 43.7874 29.1792 46.4278 28.6275C53.524 27.193 60.8402 26.4206 68.1014 26.4206C68.2665 26.4206 68.4865 26.4206 68.6515 26.4206C74.3725 26.4206 80.0935 26.862 85.7594 27.7448L85.0443 25.7585C84.7142 24.8206 84.6592 23.8275 84.8242 22.8896C79.9284 22.2275 74.5375 21.7861 68.6515 21.7861C68.4315 21.7861 68.2665 21.7861 68.0464 21.7861C59.465 21.7861 51.8737 22.7241 45.4927 24.0482C41.422 24.8206 38.0114 27.4689 36.0861 31.1654C33.9958 35.193 31.9604 39.2758 29.8701 43.3034C28.7699 41.7585 27.0096 40.7103 24.9742 40.4896L20.0234 40.0482C17.493 39.8827 15.2376 41.7585 15.0176 44.2965C14.7975 46.8344 16.6679 49.0965 19.1983 49.3172L26.6245 49.9792C25.4143 53.0137 24.8092 56.2689 24.8092 59.5792V72.5448C24.8092 75.2482 26.8996 77.4551 29.595 77.5654C41.9721 78.1172 54.8992 78.4482 68.3765 78.4482C68.4865 78.4482 68.5415 78.4482 68.6515 78.4482C70.7969 78.4482 72.9423 78.4482 75.0876 78.4482L73.9324 76.3516ZM49.0133 63.4965C48.7932 64.3792 48.1331 65.0965 47.253 65.3172C47.198 65.3172 47.198 65.3172 47.143 65.3172C45.4927 65.6482 43.5123 65.8689 41.312 65.8137C40.2118 65.8137 39.2216 65.7034 38.2865 65.593C36.4162 65.3172 34.6559 64.6551 33.1156 63.6068C32.1805 62.9999 31.5754 61.9517 31.5754 60.793V57.1516C31.5754 56.3792 32.1254 55.7172 32.8406 55.4965C32.8956 55.4965 33.0056 55.4413 33.0606 55.4413C34.0508 55.3861 35.0409 55.2758 36.0311 55.1654C37.1313 55.0551 38.2865 55.2758 39.2766 55.8275C39.8267 56.1585 40.4868 56.4896 41.202 56.8758C43.2373 57.9792 44.0624 58.4206 45.5477 59.2482C46.2078 59.6344 47.143 60.1861 48.2981 60.9034C48.8482 61.2896 49.1783 61.9517 49.1233 62.6689C49.1233 62.8896 49.0683 63.2206 49.0133 63.4965Z" fill="white"/>
</g>
<defs>
<filter id="filter0_d" x="0" y="0" width="166" height="110" filterUnits="userSpaceOnUse" color-interpolation-filters="sRGB">
<feFlood flood-opacity="0" result="BackgroundImageFix"/>
<feColorMatrix in="SourceAlpha" type="matrix" values="0 0 0 0 0 0 0 0 0 0 0 0 0 0 0 0 0 0 127 0" result="hardAlpha"/>
<feOffset/>
<feGaussianBlur stdDeviation="7.5"/>
<feComposite in2="hardAlpha" operator="out"/>
<feColorMatrix type="matrix" values="0 0 0 0 1 0 0 0 0 0.866667 0 0 0 0 0 0 0 0 0.5 0"/>
<feBlend mode="normal" in2="BackgroundImageFix" result="effect1_dropShadow"/>
<feBlend mode="normal" in="SourceGraphic" in2="effect1_dropShadow" result="shape"/>
</filter>
</defs>
</svg>
