<svg width="126" height="110" viewBox="0 0 126 110" fill="none" xmlns="http://www.w3.org/2000/svg">
<g filter="url(#filter0_d)">
<path d="M25.0063 86.1494V91.1927C25.0063 93.2693 26.6796 94.9998 28.7959 94.9998H39.0817C41.1487 94.9998 42.8713 93.3188 42.8713 91.1927V87.6327C37.9006 87.4844 32.9299 87.3361 28.0084 87.0888C26.8765 86.99 25.8922 86.6439 25.0063 86.1494Z" fill="white"/>
<path d="M83.1777 87.5829V91.1429C83.1777 93.2195 84.851 94.95 86.9673 94.95H97.2531C99.3201 94.95 101.043 93.269 101.043 91.1429V86.0996C100.157 86.6435 99.1725 86.9402 98.0898 86.9896C93.1191 87.2863 88.1484 87.4346 83.1777 87.5829Z" fill="white"/>
<path d="M110.984 55.495C110.787 53.2206 108.77 51.5396 106.506 51.7373L102.076 52.1329C100.255 52.2812 98.6806 53.2701 97.6963 54.6545L95.9246 51.1934L96.2199 55.2478L99.0743 60.5383C99.3204 60.9833 99.3204 61.4777 99.0743 61.9227C98.8775 62.3677 98.4345 62.6644 97.9916 62.7138L85.1958 64.5927C77.8628 65.6805 70.4314 66.2243 63.0492 66.2243C55.5686 66.2243 48.1372 65.6805 40.7058 64.5927L28.3037 62.7138C27.8115 62.6644 27.4178 62.3183 27.1717 61.9227C26.9749 61.4777 26.9749 60.9833 27.1717 60.5383L30.0262 55.2478L30.4199 50.4023C29.7309 51.8362 28.9927 53.2206 28.3037 54.6545C27.3194 53.2701 25.7445 52.3307 23.9236 52.1329L19.4943 51.7373C17.2304 51.5396 15.2126 53.2206 15.0157 55.495C14.8189 57.7695 16.4922 59.7967 18.756 59.9944L25.4 60.5878C24.3173 63.3072 23.7759 66.2738 23.7759 69.191V80.8103C23.7759 83.233 25.6461 85.2108 28.0576 85.3096C39.1309 85.8535 50.7456 86.1502 62.7539 86.1502C62.8524 86.1502 62.9016 86.1502 63 86.1502C75.1068 86.1502 86.8199 85.8535 97.9916 85.3096C100.403 85.2108 102.273 83.233 102.273 80.8103V69.191C102.273 66.2243 101.732 63.3072 100.649 60.5878L107.293 59.9944C109.508 59.7967 111.181 57.7695 110.984 55.495ZM45.4304 74.432C45.4304 74.4815 45.4304 74.4815 45.4304 74.432C45.2335 75.2231 44.6429 75.8659 43.8555 76.0637C43.8063 76.0637 43.8063 76.0637 43.7571 76.0637C42.2806 76.3603 40.5089 76.5581 38.4911 76.5086C37.5068 76.5086 36.621 76.4098 35.7843 76.3109C34.111 76.0637 32.5361 75.4703 31.1581 74.5309C30.3215 73.987 29.8293 73.0476 29.8293 72.0093V68.746C29.8293 68.0538 30.3215 67.4604 30.9613 67.2627C31.0105 67.2627 31.1089 67.2132 31.1581 67.2132C32.044 67.1143 32.8806 67.0154 33.7665 66.966C34.7508 66.8671 35.7843 67.0649 36.6702 67.5593C37.1623 67.856 37.7529 68.1527 38.3927 68.4988C40.2136 69.4876 40.9518 69.8832 42.2806 70.6248C42.8712 70.9709 43.7079 71.4654 44.7414 72.1082C45.2827 72.4543 45.578 72.9981 45.5288 73.6409C45.5288 73.9376 45.4796 74.1848 45.4304 74.432ZM76.3864 82.788C76.3864 83.6285 75.7466 84.2713 74.9099 84.2713H51.4346C50.5979 84.2713 49.9581 83.6285 49.9581 82.788V81.1564C49.9581 80.3158 50.5979 79.673 51.4346 79.673H74.9099C75.7466 79.673 76.3864 80.3158 76.3864 81.1564V82.788ZM95.9738 74.5309C94.5958 75.4703 92.9717 76.0637 91.3476 76.3109C90.511 76.4098 89.6251 76.5086 88.6408 76.5086C86.623 76.5581 84.8513 76.3603 83.3749 76.0637C83.3256 76.0637 83.3256 76.0637 83.2764 76.0637C82.489 75.8659 81.8984 75.2726 81.7016 74.4815C81.6523 74.2342 81.6031 73.9376 81.6031 73.7398C81.5539 73.1465 81.8492 72.5531 82.3906 72.207C83.3749 71.5643 84.2115 71.1193 84.8513 70.7237C86.1801 69.9326 86.9183 69.5865 88.7392 68.5976C89.379 68.2515 89.9696 67.9054 90.4618 67.6582C91.3476 67.1638 92.3319 66.966 93.3654 67.0649C94.2513 67.1638 95.0879 67.2627 95.9738 67.3121C96.023 67.3121 96.1214 67.3121 96.1707 67.3616C96.8104 67.5099 97.3026 68.1032 97.3026 68.8449V72.1082C97.3518 73.0476 96.8105 73.987 95.9738 74.5309Z" fill="white"/>
<path d="M71.0709 53.665L74.073 53.9122L74.2206 53.7145L71.1201 53.22L68.1672 52.775L70.4311 50.204L78.0593 41.5513L81.7012 45.4574L75.2049 50.8467L77.1243 51.5389L80.2248 52.6761L78.1086 54.2089L95.4813 55.4944L93.2174 26.2732C92.8237 21.3782 89.7724 17.5216 85.786 16.8789L83.03 16.4833C69.8405 14.5056 56.5033 14.5056 43.3138 16.4833L40.6562 16.8789C36.719 17.4722 33.6185 21.3782 33.2248 26.2732L30.9609 55.4944L50.1546 54.0606L48.3337 50.8962L52.4185 48.6712L54.141 53.7639L54.83 53.7145L55.4698 52.9728L57.34 50.7973L58.029 53.4672L60.1452 53.3189C60.6374 53.2695 62.2614 53.3189 63.7871 53.3189L64.3777 45.9518L60.3421 47.979L56.5033 49.9073L56.9463 45.2101L58.3735 29.4376L65.8541 30.7231L62.9012 41.9963L65.7065 41.2052L70.2342 39.9197L65.9033 53.3684C66.1494 53.3684 66.297 53.3684 66.3955 53.3684C66.5923 53.3684 66.7892 53.3684 66.986 53.4178L71.0709 53.665Z" fill="white"/>
<path d="M98.3858 60.9834L95.9251 56.4346L76.9282 55.0007L66.5439 62.615L73.3355 54.704L68.7094 54.3579L66.8392 54.2096C66.79 54.2096 66.2486 54.2096 65.5596 54.1602L63.0497 62.0712L63.6403 54.1602C63.345 54.1602 63.1481 54.1602 63.1481 54.1602C62.3115 54.1602 59.457 54.3085 58.1774 54.4074L60.2937 62.4173L56.1596 55.3963L54.7816 57.6707L53.4528 59.8462L52.2717 57.819L50.6476 54.9513L30.4696 56.484L28.0089 60.9834C27.812 61.3295 28.0089 61.7745 28.4026 61.8239L40.9031 63.6534C55.5691 65.8289 70.4811 65.8289 85.1471 63.7028L97.9429 61.8239C98.3366 61.7745 98.5334 61.3295 98.3858 60.9834Z" fill="white"/>
</g>
<defs>
<filter id="filter0_d" x="0" y="0" width="126" height="110" filterUnits="userSpaceOnUse" color-interpolation-filters="sRGB">
<feFlood flood-opacity="0" result="BackgroundImageFix"/>
<feColorMatrix in="SourceAlpha" type="matrix" values="0 0 0 0 0 0 0 0 0 0 0 0 0 0 0 0 0 0 127 0" result="hardAlpha"/>
<feOffset/>
<feGaussianBlur stdDeviation="7.5"/>
<feComposite in2="hardAlpha" operator="out"/>
<feColorMatrix type="matrix" values="0 0 0 0 1 0 0 0 0 0.866667 0 0 0 0 0 0 0 0 0.5 0"/>
<feBlend mode="normal" in2="BackgroundImageFix" result="effect1_dropShadow"/>
<feBlend mode="normal" in="SourceGraphic" in2="effect1_dropShadow" result="shape"/>
</filter>
</defs>
</svg>
