<svg width="166" height="110" viewBox="0 0 166 110" fill="none" xmlns="http://www.w3.org/2000/svg">
<g filter="url(#filter0_d)">
<path d="M151 52.4069C151 51.1931 150.12 50.1448 148.965 49.9241L143.299 48.8759C142.969 47.2207 142.529 45.6207 141.979 44.0207L146.379 40.2138C147.314 39.4414 147.535 38.1172 146.929 37.069L144.399 32.7655C143.794 31.7172 142.529 31.2759 141.373 31.6621L135.928 33.5931C134.827 32.3241 133.672 31.1103 132.352 30.0621L134.277 24.5448C134.662 23.3862 134.222 22.1172 133.177 21.5103L128.831 19.0276C127.786 18.4207 126.466 18.6414 125.696 19.5793L121.955 23.9931C120.36 23.4414 118.765 23 117.114 22.7241L116.014 16.9862C115.794 15.8828 114.749 15 113.539 15H108.588C107.378 15 106.333 15.8828 106.113 17.0414L105.067 22.7241C103.417 23.0552 101.822 23.4966 100.227 24.0483L96.431 19.6345C95.6609 18.6966 94.3407 18.4759 93.2955 19.0828L89.0048 21.6207C87.9596 22.2276 87.5195 23.4966 87.9046 24.6552L89.8299 30.1172C88.5647 31.2207 87.3545 32.3793 86.3093 33.7034L80.8084 31.7724C79.6532 31.3862 78.388 31.8276 77.7829 32.8759L75.3075 37.2345C74.7024 38.2828 74.9224 39.6069 75.8576 40.3793L80.2583 44.131C79.7082 45.731 79.2682 47.331 78.9931 48.9862L73.2722 50.0897C72.062 50.3103 71.2368 51.3586 71.2368 52.5724V57.5379C71.2368 58.7517 72.117 59.8 73.2722 60.0207L78.9381 61.069C79.2682 62.7241 79.7082 64.3241 80.2583 65.9241L75.8576 69.731C74.9224 70.5034 74.7024 71.8276 75.3075 72.8759L77.8379 77.1793C78.443 78.2276 79.7082 78.669 80.8634 78.2828L86.3093 76.3517C87.4095 77.6207 88.5647 78.8345 89.8849 79.8828L87.9596 85.4C87.5745 86.5586 88.0146 87.8276 89.0598 88.4345L93.4055 90.9172C94.4507 91.5241 95.7709 91.3035 96.541 90.3655L100.282 85.9517C101.877 86.5034 103.472 86.9448 105.122 87.2207L106.223 92.9586C106.443 94.1724 107.488 95 108.698 95H113.649C114.859 95 115.904 94.1172 116.124 92.9586L117.169 87.2759C118.82 86.9448 120.415 86.5034 122.01 85.9517L125.806 90.3655C126.576 91.3035 127.951 91.5241 128.941 90.9172L133.232 88.3793C134.277 87.7724 134.717 86.5034 134.332 85.3448L132.407 79.8828C133.672 78.7793 134.882 77.6207 135.928 76.2966L141.429 78.2276C142.584 78.6138 143.849 78.1724 144.454 77.1241L146.929 72.7655C147.535 71.7172 147.314 70.3931 146.379 69.6207L141.979 65.869C142.529 64.269 142.969 62.669 143.244 61.0138L148.965 59.9103C150.175 59.6897 151 58.6414 151 57.4276V52.4069ZM111.118 83.1931C95.6059 83.1931 83.0088 70.5586 83.0088 55C83.0088 39.4414 95.6059 26.8069 111.118 26.8069C126.631 26.8069 139.228 39.4414 139.228 55C139.228 70.5586 126.631 83.1931 111.118 83.1931Z" fill="white"/>
<path d="M26.1846 78.4482V84.0758C26.1846 86.3931 28.0549 88.3241 30.4203 88.3241H41.9172C44.2276 88.3241 46.1529 86.4482 46.1529 84.0758V80.1034C40.597 79.9379 35.041 79.7724 29.5401 79.4965C28.2749 79.4413 27.1747 79.0551 26.1846 78.4482Z" fill="white"/>
<path d="M73.9324 76.3517H55.7244C54.7892 76.3517 54.0741 75.6344 54.0741 74.6965V72.8758C54.0741 71.9379 54.7892 71.2206 55.7244 71.2206H72.0071C72.1171 69.7861 72.7772 68.462 73.8774 67.4689L76.7929 64.9861C76.6828 64.5448 76.5728 64.1586 76.4628 63.7172L72.7772 62.9999C70.1918 62.5034 68.2665 60.2413 68.2665 57.593V52.6275C68.2665 49.9792 70.1368 47.662 72.7222 47.1654L76.4628 46.4482C76.5728 46.0068 76.6828 45.5654 76.7929 45.1792L73.9324 42.7517C73.6023 42.4758 73.3273 42.1448 73.0522 41.8137C71.1269 41.7585 69.2016 41.7034 67.2763 41.7034C54.0191 41.7034 46.1528 42.3654 34.9859 43.4137C36.1411 41.1517 40.2668 33.3172 40.2668 33.3172C41.532 30.8896 43.7874 29.1792 46.4278 28.6275C53.524 27.193 60.8402 26.4206 68.1014 26.4206C68.2664 26.4206 68.4865 26.4206 68.6515 26.4206C74.3725 26.4206 80.0934 26.862 85.7594 27.7448L85.0442 25.7585C84.7142 24.8206 84.6592 23.8275 84.8242 22.8896C79.9284 22.2275 74.5375 21.7861 68.6515 21.7861C68.4315 21.7861 68.2665 21.7861 68.0464 21.7861C59.465 21.7861 51.8737 22.7241 45.4927 24.0482C41.422 24.8206 38.0114 27.4689 36.0861 31.1654C33.9957 35.193 31.9604 39.2758 29.8701 43.3034C28.7699 41.7585 27.0096 40.7103 24.9742 40.4896L20.0234 40.0482C17.493 39.8827 15.2376 41.7585 15.0176 44.2965C14.7975 46.8344 16.6679 49.0965 19.1983 49.3172L26.6245 49.9792C25.4143 53.0137 24.8092 56.2689 24.8092 59.5792V72.5448C24.8092 75.2482 26.8996 77.4551 29.595 77.5655C41.9721 78.1172 54.8992 78.4482 68.3765 78.4482C68.4865 78.4482 68.5415 78.4482 68.6515 78.4482C70.7969 78.4482 72.9422 78.4482 75.0876 78.4482L73.9324 76.3517ZM49.0132 63.4965C48.7932 64.3792 48.1331 65.0965 47.253 65.3172C47.1979 65.3172 47.1979 65.3172 47.1429 65.3172C45.4927 65.6482 43.5123 65.8689 41.312 65.8137C40.2118 65.8137 39.2216 65.7034 38.2865 65.593C36.4161 65.3172 34.6559 64.6551 33.1156 63.6068C32.1804 62.9999 31.5753 61.9517 31.5753 60.793V57.1517C31.5753 56.3792 32.1254 55.7172 32.8406 55.4965C32.8956 55.4965 33.0056 55.4413 33.0606 55.4413C34.0508 55.3861 35.0409 55.2758 36.0311 55.1654C37.1313 55.0551 38.2865 55.2758 39.2766 55.8275C39.8267 56.1586 40.4868 56.4896 41.2019 56.8758C43.2373 57.9792 44.0624 58.4206 45.5477 59.2482C46.2078 59.6344 47.1429 60.1861 48.2981 60.9034C48.8482 61.2896 49.1783 61.9517 49.1233 62.6689C49.1233 62.8896 49.0683 63.2206 49.0132 63.4965Z" fill="white"/>
<path d="M130.702 55.0558C130.427 55.0006 131.362 55.0558 127.622 54.7248C124.651 54.4489 123.551 54.0075 122.066 52.6834C120.525 49.6489 117.665 47.0006 113.869 43.58C112.824 42.642 111.889 41.8144 111.339 40.3248C110.404 37.7869 111.669 35.911 110.459 34.6972C109.634 33.8696 108.093 33.8144 107.103 34.2006C104.793 35.0282 103.913 38.3937 104.023 40.8213C104.188 45.0144 106.553 48.2144 106.553 48.2144C106.553 48.2144 98.7419 47.111 96.5965 51.4144C96.1014 52.4075 97.1466 55.111 97.1466 55.111C97.1466 55.111 95.6063 56.8213 95.5513 58.0903C95.4413 59.58 97.2016 61.7868 97.2016 61.7868C97.2016 61.7868 96.3215 63.9386 96.7615 65.1524C97.2566 66.3662 99.0169 67.6903 99.0169 67.6903C99.0169 67.6903 98.9069 69.0144 99.0719 69.7869C99.512 71.9386 102.703 73.042 103.253 73.2075C104.518 73.6489 106.443 73.4834 110.349 73.1524C116.125 72.6558 117.28 72.1041 117.775 71.7179C117.94 71.6075 119.26 70.9455 120.085 71.111C121.681 71.6075 125.531 72.3248 128.942 71.0006C130.317 70.4489 133.563 55.5524 130.702 55.0558Z" fill="white"/>
</g>
<defs>
<filter id="filter0_d" x="0" y="0" width="166" height="110" filterUnits="userSpaceOnUse" color-interpolation-filters="sRGB">
<feFlood flood-opacity="0" result="BackgroundImageFix"/>
<feColorMatrix in="SourceAlpha" type="matrix" values="0 0 0 0 0 0 0 0 0 0 0 0 0 0 0 0 0 0 127 0" result="hardAlpha"/>
<feOffset/>
<feGaussianBlur stdDeviation="7.5"/>
<feComposite in2="hardAlpha" operator="out"/>
<feColorMatrix type="matrix" values="0 0 0 0 1 0 0 0 0 0.866667 0 0 0 0 0 0 0 0 0.5 0"/>
<feBlend mode="normal" in2="BackgroundImageFix" result="effect1_dropShadow"/>
<feBlend mode="normal" in="SourceGraphic" in2="effect1_dropShadow" result="shape"/>
</filter>
</defs>
</svg>
