<svg width="78" height="110" viewBox="0 0 78 110" fill="none" xmlns="http://www.w3.org/2000/svg">
<g filter="url(#filter0_d)">
<path d="M39.2076 33.792C39.4749 36.7234 42.7719 39.0978 45.5343 39.86V39.8893V50.589C45.5343 51.6443 46.3957 52.4651 47.4353 52.4651H48.8907C49.96 52.4651 50.7917 51.615 50.7917 50.589V39.8893C53.554 39.1272 56.8511 36.7527 57.1184 33.8213L58.2174 22.0077C58.4847 19.2815 56.762 16.7018 54.0887 15.881C52.3659 15.3534 50.2867 14.9723 47.9105 15.0016C45.7422 15.0309 43.8115 15.3827 42.2076 15.881C39.5343 16.7018 37.8116 19.2521 38.0492 22.0077L39.2076 33.792Z" fill="white"/>
<path d="M56.4057 37.3095C55.1879 38.7459 53.4057 39.8892 51.6533 40.5048V47.1884H54.0592C54.6236 47.1884 55.0988 47.6574 55.0988 48.2144V63.8095C55.0988 64.3665 54.6236 64.8355 54.0592 64.8355H51.9503C51.386 64.8355 50.9107 65.3046 50.9107 65.8615V71.1967C50.9107 71.7537 50.4355 72.2227 49.8711 72.2227H48.1186C47.5543 72.2227 47.079 72.6917 47.079 73.2487V80.929C47.079 81.486 46.6038 81.955 46.0394 81.955H39.5048C38.9405 81.955 38.4652 82.424 38.4652 82.981V85.0916C38.4652 85.6486 37.99 86.1176 37.4256 86.1176H32.9999C32.4356 86.1176 31.9603 85.6486 31.9603 85.0916V72.3986C31.9603 71.8416 32.4356 71.3726 32.9999 71.3726H37.4256C37.99 71.3726 38.4652 71.8416 38.4652 72.3986V74.5092C38.4652 75.0662 38.9405 75.5352 39.5048 75.5352C40.0692 75.5352 40.5444 75.0662 40.5444 74.5092V66.8289C40.5444 66.2719 41.0197 65.8029 41.584 65.8029H43.3365C43.9008 65.8029 44.3761 65.3339 44.3761 64.7769V59.4417C44.3761 58.8848 44.8513 58.4157 45.4157 58.4157H47.5246C48.0889 58.4157 48.5642 57.9467 48.5642 57.3897V54.6342C48.5642 54.0479 48.0889 53.6082 47.4949 53.6082L45.386 53.6375C44.7919 53.6375 44.3167 53.1685 44.3167 52.6115V48.273C44.3167 48.0092 44.4355 47.7454 44.584 47.5695V40.4754C42.3266 39.6546 39.9504 37.9251 38.8811 35.7559H27.8019C20.7326 35.7559 15 41.4135 15 48.3903V82.043C15 89.1956 20.8812 94.9998 28.1286 94.9998H49.8711C57.1186 94.9998 62.9998 89.1956 62.9998 82.043V48.3903C63.0295 43.6121 60.3562 39.4788 56.4057 37.3095ZM27.3861 80.9877C27.3861 81.5153 26.9702 81.9257 26.4356 81.9257H22.4257C21.8911 81.9257 21.4752 81.5153 21.4752 80.9877V77.0302C21.4752 76.5026 21.8911 76.0922 22.4257 76.0922H26.4356C26.9702 76.0922 27.3861 76.5026 27.3861 77.0302V80.9877ZM27.3861 72.1054C27.3861 72.6331 26.9702 73.0435 26.4356 73.0435H22.4257C21.8911 73.0435 21.4752 72.6331 21.4752 72.1054V68.148C21.4752 67.6204 21.8911 67.21 22.4257 67.21H26.4356C26.9702 67.21 27.3861 67.6204 27.3861 68.148V72.1054ZM27.3861 63.1939C27.3861 63.7216 26.9702 64.132 26.4356 64.132H22.4257C21.8911 64.132 21.4752 63.7216 21.4752 63.1939V59.2658C21.4752 58.7382 21.8911 58.3278 22.4257 58.3278H26.4356C26.9702 58.3278 27.3861 58.7382 27.3861 59.2658V63.1939ZM27.3861 52.0545C27.3861 52.5822 26.9702 52.9926 26.4356 52.9926H22.4257C21.8911 52.9926 21.4752 52.5822 21.4752 52.0545V48.0971C21.4752 47.5695 21.8911 47.1591 22.4257 47.1591H26.4356C26.9702 47.1591 27.3861 47.5695 27.3861 48.0971V52.0545Z" fill="white"/>
</g>
<defs>
<filter id="filter0_d" x="0" y="0" width="78" height="110" filterUnits="userSpaceOnUse" color-interpolation-filters="sRGB">
<feFlood flood-opacity="0" result="BackgroundImageFix"/>
<feColorMatrix in="SourceAlpha" type="matrix" values="0 0 0 0 0 0 0 0 0 0 0 0 0 0 0 0 0 0 127 0" result="hardAlpha"/>
<feOffset/>
<feGaussianBlur stdDeviation="7.5"/>
<feComposite in2="hardAlpha" operator="out"/>
<feColorMatrix type="matrix" values="0 0 0 0 1 0 0 0 0 0.866667 0 0 0 0 0 0 0 0 0.5 0"/>
<feBlend mode="normal" in2="BackgroundImageFix" result="effect1_dropShadow"/>
<feBlend mode="normal" in="SourceGraphic" in2="effect1_dropShadow" result="shape"/>
</filter>
</defs>
</svg>
