<svg width="20" height="20" viewBox="0 0 20 20" fill="none" xmlns="http://www.w3.org/2000/svg">
<path fill-rule="evenodd" clip-rule="evenodd" d="M5.86965 0.122727C4.24177 0.196177 2.83081 0.5942 1.69149 1.72871C0.548187 2.86918 0.155147 4.28558 0.0815141 5.89653C0.0357424 6.90201 -0.231923 14.4982 0.544207 16.4903C1.0676 17.8342 2.09846 18.8675 3.45469 19.3926C4.08754 19.6387 4.80994 19.8055 5.86965 19.8541C14.7305 20.2551 18.0151 20.0367 19.4002 16.4903C19.646 15.859 19.8151 15.1374 19.8619 14.0803C20.2669 5.19677 19.7962 3.27117 18.2519 1.72871C17.027 0.506853 15.5862 -0.324924 5.86965 0.122727ZM5.9512 18.0665C4.98104 18.0228 4.45466 17.861 4.10341 17.725C3.21982 17.3816 2.55613 16.7206 2.21483 15.8421C1.62378 14.3284 1.8198 7.13923 1.87254 5.97593C1.92428 4.83646 2.15513 3.79525 2.95912 2.99126C3.95416 1.99869 5.23975 1.51233 13.9931 1.90737C15.1354 1.95898 16.1792 2.18926 16.9852 2.99126C17.9802 3.98384 18.4738 5.27915 18.0718 13.9989C18.028 14.9667 17.8658 15.4917 17.7295 15.8421C16.829 18.1499 14.7573 18.4705 5.9512 18.0665ZM14.0933 4.69011C14.0933 5.3472 14.6277 5.8812 15.2874 5.8812C15.9471 5.8812 16.4824 5.3472 16.4824 4.69011C16.4824 4.03303 15.9471 3.49902 15.2874 3.49902C14.6277 3.49902 14.0933 4.03303 14.0933 4.69011ZM4.85815 9.9909C4.85815 12.8058 7.14573 15.0878 9.96763 15.0878C12.7895 15.0878 15.0771 12.8058 15.0771 9.9909C15.0771 7.17596 12.7895 4.89502 9.96763 4.89502C7.14573 4.89502 4.85815 7.17596 4.85815 9.9909ZM6.65088 9.98794C6.65088 8.1616 8.13548 6.67969 9.96734 6.67969C11.7992 6.67969 13.2838 8.1616 13.2838 9.98794C13.2838 11.8153 11.7992 13.2972 9.96734 13.2972C8.13548 13.2972 6.65088 11.8153 6.65088 9.98794Z" fill="#FFDD00"/>
</svg>
