<svg width="20" height="20" viewBox="0 0 20 20" fill="none" xmlns="http://www.w3.org/2000/svg">
<path fill-rule="evenodd" clip-rule="evenodd" d="M20 19.9985H16.0001V12.9998C16.0001 11.0798 15.1531 10.0089 13.6341 10.0089C11.9811 10.0089 11.0002 11.1248 11.0002 12.9998V19.9985H7.00024V6.999H11.0002V8.46095C11.0002 8.46095 12.2551 6.25903 15.0831 6.25903C17.912 6.25903 20 7.98496 20 11.5568C20 15.1277 20 19.9985 20 19.9985ZM2.44195 4.9208C1.09298 4.9208 0 3.81885 0 2.4599C0 1.10196 1.09298 0 2.44195 0C3.78993 0 4.88291 1.10196 4.88291 2.4599C4.8839 3.81885 3.78993 4.9208 2.44195 4.9208ZM0 19.9997H4.9999V7.00024H0V19.9997Z" fill="#FFDD00"/>
</svg>
