<svg width="24" height="24" viewBox="0 0 24 24" fill="none" xmlns="http://www.w3.org/2000/svg">
<path d="M22.6875 15.4688L17.9062 13.4531C17.6719 13.3594 17.2969 13.2656 17.0625 13.2656C16.5 13.2656 15.75 13.6406 15.4219 14.0625L13.875 15.9375C11.8125 14.8125 9.1875 12.1875 8.0625 10.125L9.9375 8.57812C10.3594 8.25 10.7344 7.5 10.7344 6.9375C10.7344 6.70312 10.6406 6.32812 10.5469 6.09375L8.53125 1.3125C8.20312 0.609375 7.3125 0 6.5625 0C6.42188 0 6.1875 0.046875 6.04688 0.09375L1.64062 1.07812C0.703125 1.3125 0 2.25 0 3.1875C0 14.7188 9.32812 24.0469 20.8125 24C21.75 24 22.6875 23.2969 22.9219 22.3594L23.9062 17.9531C23.9531 17.8125 24 17.5781 24 17.4844C24 16.6875 23.3906 15.7969 22.6875 15.4688ZM20.7188 21.7969C10.5469 21.75 2.29688 13.4531 2.25 3.28125L6.46875 2.29688L8.4375 6.89062L5.25 9.51562C7.45312 14.1562 9.84375 16.5469 14.4844 18.75L17.1094 15.5625L21.7031 17.5312L20.7188 21.7969Z" fill="black"/>
</svg>
