<svg width="126" height="111" viewBox="0 0 126 111" fill="none" xmlns="http://www.w3.org/2000/svg">
<g filter="url(#filter0_d)">
<path d="M79.8117 27.8817H92.9162C94.3764 27.8817 95.5371 26.6937 95.5371 25.2831V20.2343C95.5371 17.3387 93.1783 15 90.2578 15H82.4326C79.5121 15 77.1533 17.3387 77.1533 20.2343V25.2459C77.1908 26.6937 78.3514 27.8817 79.8117 27.8817Z" fill="white"/>
<path d="M33.0472 27.8817H46.1517C47.6119 27.8817 48.7726 26.6937 48.7726 25.2831V20.2343C48.81 17.3387 46.4512 15 43.5308 15H35.6681C32.7851 15 30.4263 17.3387 30.4263 20.2343V25.2459C30.4263 26.6937 31.587 27.8817 33.0472 27.8817Z" fill="white"/>
<path d="M106.395 30.3311H19.6053C17.0593 30.3311 15 32.3728 15 34.8972C15 37.4215 17.0593 39.4633 19.6053 39.4633H106.395C108.941 39.4633 111 37.4215 111 34.8972C111 32.3728 108.941 30.3311 106.395 30.3311Z" fill="white"/>
<path d="M101.453 42.4727H24.5103C20.9159 42.4727 17.958 45.3682 17.958 48.9692V84.6444C17.958 90.3613 22.6382 95.0017 28.4042 95.0017H97.5586C103.325 95.0017 108.005 90.3613 108.005 84.6444V48.9692C108.005 45.3682 105.084 42.4727 101.453 42.4727ZM54.6132 70.352C53.49 69.9808 52.9284 68.7186 53.4151 67.642L62.4385 48.5608C63.4494 46.4448 66.632 47.4843 66.1827 49.7859L63.1873 65.3404C62.4385 69.2383 58.3948 71.5771 54.6132 70.352ZM72.5852 69.7952L63.5618 88.8764C62.5508 90.9924 59.3683 89.9529 59.8176 87.6513L62.8129 72.0968C63.5618 68.1989 67.6054 65.823 71.387 67.0481C72.5103 67.4564 73.0719 68.7186 72.5852 69.7952Z" fill="white"/>
</g>
<defs>
<filter id="filter0_d" x="0" y="0" width="126" height="110.002" filterUnits="userSpaceOnUse" color-interpolation-filters="sRGB">
<feFlood flood-opacity="0" result="BackgroundImageFix"/>
<feColorMatrix in="SourceAlpha" type="matrix" values="0 0 0 0 0 0 0 0 0 0 0 0 0 0 0 0 0 0 127 0" result="hardAlpha"/>
<feOffset/>
<feGaussianBlur stdDeviation="7.5"/>
<feComposite in2="hardAlpha" operator="out"/>
<feColorMatrix type="matrix" values="0 0 0 0 1 0 0 0 0 0.866667 0 0 0 0 0 0 0 0 0.5 0"/>
<feBlend mode="normal" in2="BackgroundImageFix" result="effect1_dropShadow"/>
<feBlend mode="normal" in="SourceGraphic" in2="effect1_dropShadow" result="shape"/>
</filter>
</defs>
</svg>
