<svg width="110" height="110" viewBox="0 0 110 110" fill="none" xmlns="http://www.w3.org/2000/svg">
<g filter="url(#filter0_d)">
<path d="M47.8328 17.4254H55.5795C55.8675 17.4254 56.0691 17.1916 56.0691 16.9287V16.5195C56.0691 15.6721 55.4067 15 54.5716 15H48.8408C48.0056 15 47.3433 15.6721 47.3433 16.5195V16.8994C47.3433 17.1916 47.5736 17.4254 47.8328 17.4254Z" fill="white"/>
<path d="M82.8517 66.2857V49.8045C82.8517 49.1324 82.3045 48.5771 81.6422 48.5771H56.0695C55.9543 48.5771 55.8679 48.6648 55.8679 48.7817V52.8143C55.8679 53.0773 55.6663 53.3111 55.3783 53.3111H54.7447C54.4856 53.3111 54.2552 53.1066 54.2552 52.8143V48.7817C54.2552 48.6648 54.1688 48.5771 54.0536 48.5771H48.7259C48.6107 48.5771 48.5244 48.6648 48.5244 48.7817V52.8143C48.5244 53.0773 48.3228 53.3111 48.0348 53.3111H47.4012C47.142 53.3111 46.9117 53.1066 46.9117 52.8143V48.7817C46.9117 48.6648 46.8253 48.5771 46.7101 48.5771H21.3677C20.7054 48.5771 20.1582 49.1324 20.1582 49.8045V66.2857C20.1582 68.2728 21.7421 69.9092 23.7292 69.9092H79.2807C81.239 69.88 82.8517 68.2728 82.8517 66.2857ZM22.606 58.5418C22.606 58.1327 22.9228 57.8405 23.2972 57.8405H79.7127C80.1159 57.8405 80.4039 58.162 80.4039 58.5418V59.4185C80.4039 59.8276 80.0871 60.1198 79.7127 60.1198H23.2972C22.894 60.1198 22.606 59.7984 22.606 59.4185V58.5418ZM23.2972 64.6492C22.894 64.6492 22.606 64.3278 22.606 63.9479V63.0713C22.606 62.6622 22.9228 62.3699 23.2972 62.3699H79.7127C80.1159 62.3699 80.4039 62.6914 80.4039 63.0713V63.9479C80.4039 64.357 80.0871 64.6492 79.7127 64.6492H23.2972Z" fill="white"/>
<path d="M29.1423 46.6769L27.0401 44.8652L26.1761 44.1346C26.0609 44.047 25.8881 44.1054 25.8593 44.2515C25.6865 45.4788 25.9745 46.7354 26.6945 47.7582H37.1482L35.4779 46.3263C36.0251 44.4853 35.4779 42.3813 33.9228 41.0663C32.5693 39.9559 30.8126 39.6637 29.2575 40.1604C29.1135 40.1897 29.0559 40.3942 29.1711 40.4819L29.5743 40.8325L29.6031 40.8033L30.6974 41.7384L30.8414 41.8553C30.8414 41.8845 30.8702 41.9138 30.899 41.943L32.1949 43.0534L31.8205 45.8587L29.1423 46.6769Z" fill="white"/>
<path d="M40.5463 38.9915L38.0984 34.5498C38.0408 34.4621 37.9544 34.4329 37.868 34.4621L35.9098 35.2219C35.7946 35.2803 35.7658 35.368 35.7946 35.4557L36.9465 40.3942C37.0041 40.628 37.1193 40.8033 37.2921 40.9494C38.0408 41.5923 38.6456 42.3813 38.9912 43.2872L40.719 47.7581H42.9653L40.9494 42.4982C40.6039 41.6215 40.4887 40.628 40.6614 39.6344C40.6902 39.4299 40.6327 39.1961 40.5463 38.9915Z" fill="white"/>
<path d="M44.9807 42.0007L43.5696 44.7476L42.9937 47.7867H45.6719L46.3342 46.5301C45.6143 46.0334 45.3839 45.069 45.7871 44.28C46.1902 43.491 47.1118 43.1404 47.9181 43.4618L51.1723 37.1791L50.0204 36.5654L44.9807 42.0007Z" fill="white"/>
<path d="M52.9588 47.787H73.8086C73.895 47.7286 73.9814 47.6701 74.0678 47.6117C76.5732 45.946 77.9267 43.1407 77.8691 40.2769C77.8691 40.0139 77.5811 39.8678 77.3508 40.014L71.7927 43.7251C71.1016 44.1927 70.18 44.1342 69.5177 43.6083C68.9129 43.1115 68.2506 42.4394 67.6746 41.5335C67.0986 40.6568 66.7819 39.7802 66.5803 39.0496C66.3499 38.2314 66.6667 37.3547 67.3866 36.8872L72.9447 33.176C73.175 33.0299 73.1462 32.7085 72.8871 32.5916C70.324 31.4227 67.2138 31.5688 64.7084 33.2929C61.8286 35.2508 60.5327 38.6405 61.0798 41.8842L52.3252 47.7286H52.9588V47.787Z" fill="white"/>
<path d="M48.1486 43.5786C48.8686 44.0754 49.099 45.0397 48.6958 45.8287C48.2926 46.6177 47.3711 46.9684 46.5647 46.6469L45.9888 47.7574H46.4783H46.7375H48.7534H48.9262H49.6749L50.9996 45.1858L52.5835 37.9096L51.4316 37.2959L48.1486 43.5786Z" fill="white"/>
<path d="M48.2347 45.5972C48.5227 45.042 48.3499 44.3699 47.8603 44.0192L47.7739 43.9608L47.7163 43.9315C47.1403 43.6978 46.5068 43.9608 46.2188 44.4868C45.9596 45.0128 46.0748 45.6264 46.5356 46.0063H47.8891C48.0331 45.9186 48.1483 45.7725 48.2347 45.5972Z" fill="white"/>
<path d="M71.5324 43.2859L72.2236 42.8184H69.459C69.603 42.9352 69.747 43.0814 69.891 43.1982C70.3517 43.5781 71.0141 43.6074 71.5324 43.2859Z" fill="white"/>
<path d="M51.4891 45.3899L51.1436 46.0036H53.9946L58.7751 42.8184H52.0363L51.4891 45.3899Z" fill="white"/>
<path d="M22.8641 46.003H25.3983C25.2831 45.4186 25.2543 44.7757 25.3407 44.162C25.3695 43.9282 25.5423 43.6945 25.8015 43.6068C26.0319 43.4899 26.3199 43.5484 26.5215 43.7237L27.3854 44.425L29.1997 46.003H29.5165L31.3883 45.4478L31.6763 43.2561L31.1292 42.8178H22.8641C22.1441 42.8178 21.5394 42.2334 21.5394 41.4736V22.7423C21.5394 22.0117 22.1153 21.3981 22.8641 21.3981H80.5467C81.2667 21.3981 81.8714 21.9825 81.8714 22.7423V41.4736C81.8714 42.2041 81.2955 42.8178 80.5467 42.8178H78.0989C77.7821 43.9867 77.2638 45.0679 76.5438 46.003H80.5755C83.0522 46.003 85.0392 43.9867 85.0392 41.4736V22.7423C85.0392 20.2292 83.0522 18.2129 80.5755 18.2129H22.8641C20.3875 18.2129 18.4004 20.2292 18.4004 22.7423V41.4736C18.4292 43.9867 20.4163 46.003 22.8641 46.003Z" fill="white"/>
<path d="M42.8218 45.8867L43.0522 44.5425L43.9738 42.8184H41.6411L42.8218 45.8867Z" fill="white"/>
<path d="M39.4801 46.0036L38.501 43.4905C38.4146 43.2567 38.2994 43.0229 38.1842 42.8184H35.7939C36.1971 43.8119 36.3123 44.9223 36.0819 46.0036H39.4801Z" fill="white"/>
<path d="M69.1716 74.9622L41.6405 77.446C40.6902 77.5337 39.7687 77.3584 38.9047 76.9493C38.7031 76.8616 38.4728 76.8324 38.2712 76.8908L33.5195 78.0013C33.4331 78.0305 33.3755 78.1181 33.3755 78.2058L33.5483 80.2806C33.5483 80.3682 33.6347 80.4559 33.7211 80.4559L38.5879 80.6897C38.8183 80.6897 39.0199 80.6312 39.1927 80.5143C39.9703 79.9591 40.863 79.6377 41.7845 79.55L69.3155 77.0662C69.5171 77.0369 69.6899 76.8616 69.6611 76.6278L69.5459 75.3421C69.5747 75.1083 69.4019 74.9329 69.1716 74.9622Z" fill="white"/>
<path d="M94.9469 73.7944C94.8317 72.2457 94.4861 70.9307 94.1405 69.9079C93.9965 69.4988 93.6222 69.2358 93.1902 69.2942L77.4664 70.6969C77.236 70.7261 77.0056 70.843 76.8328 71.0183C75.6809 72.421 73.6075 72.5963 72.2252 71.4274C72.0236 71.2813 71.7932 71.1937 71.5628 71.2229L70.5549 71.3106C70.0365 71.369 69.6621 71.8073 69.7197 72.3333L70.3533 79.4927C70.4109 80.0187 70.8428 80.3986 71.3612 80.3402L72.3691 80.2525C72.5995 80.2233 72.8299 80.1064 73.0027 79.931C74.1546 78.5284 76.2281 78.3531 77.6104 79.5219C77.812 79.668 78.0424 79.7557 78.2728 79.7265L93.9965 78.3238C94.4285 78.2946 94.7453 77.9732 94.8317 77.5348C94.9757 76.5413 95.0621 75.2555 94.9469 73.7944Z" fill="white"/>
<path d="M17.9108 76.8343C17.9108 76.8051 17.9108 76.7466 17.9108 76.7174C17.9108 76.6005 17.9108 76.5128 17.9108 76.3959C17.9108 76.2791 17.9396 76.1622 17.9684 76.0745C17.9972 76.0161 17.9972 75.9576 18.026 75.9284C18.0548 75.87 18.0836 75.8407 18.0836 75.7823C18.17 75.6069 18.314 75.4608 18.4292 75.344C18.5444 75.2271 18.6596 75.1686 18.746 75.1394C18.8324 75.1102 18.89 75.081 18.89 75.081C18.89 75.081 18.8324 75.1102 18.7748 75.1686C18.6884 75.2271 18.602 75.2855 18.4868 75.4024C18.4292 75.4608 18.3716 75.5193 18.3428 75.607C18.2852 75.6654 18.2564 75.7531 18.2276 75.8407C18.1988 75.8992 18.1988 75.9284 18.1988 75.9868C18.1988 76.0453 18.17 76.0745 18.17 76.1329C18.17 76.2206 18.17 76.3375 18.17 76.4252C18.17 76.5128 18.1988 76.6297 18.1988 76.7174C18.2276 76.8051 18.2276 76.9219 18.2564 77.0096L18.9476 77.3018C18.9476 77.2434 18.9476 77.1849 18.9476 77.0973C18.9476 76.9804 18.9476 76.8927 18.9476 76.7758C18.9476 76.6589 18.9764 76.5421 19.0052 76.4544C19.034 76.3959 19.034 76.3375 19.0628 76.3083C19.0916 76.2498 19.1204 76.2206 19.1204 76.1622C19.2068 75.9868 19.3507 75.8407 19.4659 75.7238C19.5811 75.607 19.6963 75.5485 19.7827 75.5193C19.8691 75.4901 19.9267 75.4608 19.9267 75.4608C19.9267 75.4608 19.8691 75.4901 19.8115 75.5485C19.7251 75.6069 19.6387 75.6654 19.5235 75.7823C19.4659 75.8407 19.4083 75.8992 19.3795 75.9868C19.322 76.0453 19.2932 76.1329 19.2644 76.2206C19.2356 76.2791 19.2356 76.3083 19.2356 76.3667C19.2356 76.4252 19.2068 76.4544 19.2068 76.5128C19.2068 76.6005 19.2068 76.7174 19.2068 76.8051C19.2068 76.8927 19.2356 77.0096 19.2356 77.0973C19.2644 77.1849 19.2644 77.3018 19.2932 77.3895C19.2932 77.4187 19.322 77.4479 19.322 77.4772L19.9843 77.7694C19.9843 77.7109 19.9843 77.6525 19.9555 77.594C19.9555 77.5356 19.9555 77.4772 19.9555 77.4187C19.9555 77.3603 19.9555 77.3018 19.9555 77.2434C19.9555 77.1265 19.9555 76.9804 19.9843 76.8635C20.0131 76.7466 20.0419 76.6297 20.0995 76.5128L20.1283 76.4836V76.4544C20.1571 76.4252 20.1571 76.3959 20.1859 76.3667C20.2147 76.3083 20.2435 76.2791 20.3011 76.2206C20.3875 76.1329 20.4739 76.0453 20.5315 75.9868C20.5891 75.87 20.6755 75.8115 20.7619 75.7823C20.9346 75.6946 21.0786 75.6654 21.165 75.6362C21.2514 75.607 21.309 75.607 21.309 75.607C21.309 75.607 21.2514 75.6362 21.165 75.6654C21.0786 75.6946 20.9346 75.7531 20.7907 75.8699C20.7043 75.9284 20.6467 75.9868 20.5603 76.0453C20.5027 76.1037 20.4163 76.1914 20.3587 76.2791C20.3299 76.3083 20.3011 76.3667 20.2723 76.4252C20.2723 76.4544 20.2435 76.4836 20.2435 76.5128V76.5421L20.2147 76.5713C20.1859 76.6589 20.1571 76.7758 20.1571 76.8927C20.1571 77.0096 20.1571 77.1265 20.1571 77.2142C20.1571 77.3311 20.1859 77.4479 20.2147 77.5356C20.2435 77.6233 20.2723 77.7402 20.3011 77.8278C20.3011 77.857 20.3299 77.8863 20.3299 77.9155L23.9297 79.4643C24.016 78.9675 24.16 78.4123 24.3904 77.8863C24.5344 77.5356 24.736 77.2142 24.9376 76.8927L22.2882 75.7531H22.2594C22.2018 75.7531 22.1442 75.7823 22.0866 75.7823C22.029 75.8115 21.9714 75.8115 21.9138 75.8407C21.8562 75.8699 21.7986 75.8699 21.741 75.8992C21.6834 75.9284 21.6258 75.9576 21.5682 75.9868C21.453 76.0453 21.3666 76.1037 21.2514 76.1622C21.165 76.2206 21.0786 76.3083 20.9922 76.3959C20.9634 76.4252 20.9058 76.4836 20.8771 76.5128C20.8483 76.5713 20.8195 76.6005 20.7907 76.6589C20.7619 76.7466 20.7331 76.8343 20.6755 76.9219C20.6179 77.0973 20.5891 77.2434 20.5603 77.3603C20.5603 77.4772 20.5603 77.5356 20.5603 77.5356C20.5603 77.5356 20.5603 77.4772 20.5603 77.3603C20.5603 77.2434 20.5603 77.0973 20.6179 76.8927C20.6467 76.8051 20.6755 76.6882 20.7331 76.6005C20.7619 76.5421 20.7907 76.4836 20.8195 76.4544C20.8483 76.3959 20.8771 76.3375 20.9058 76.3083C20.9922 76.2206 21.0786 76.1037 21.165 76.0161C21.2514 75.9284 21.3666 75.8407 21.4818 75.7823C21.5394 75.7531 21.597 75.7238 21.6546 75.6654C21.7122 75.6362 21.7698 75.6069 21.8274 75.5777C21.8562 75.5777 21.8562 75.5777 21.885 75.5485L21.1074 75.2271C21.0498 75.2271 20.9922 75.2563 20.9346 75.2855C20.8483 75.3147 20.7331 75.3732 20.6179 75.4024C20.5315 75.4608 20.4163 75.4901 20.3299 75.5485C20.2435 75.6069 20.1571 75.6946 20.0707 75.7531C19.9843 75.8407 19.9267 75.9284 19.8691 76.0161C19.8115 76.1037 19.7827 76.1914 19.7251 76.2791C19.6963 76.3667 19.6675 76.4836 19.6675 76.5713C19.6099 76.7174 19.6099 76.8635 19.6099 76.9804C19.6099 77.0973 19.6099 77.1557 19.6099 77.1557C19.6099 77.1557 19.6099 77.0973 19.5811 76.9804C19.5811 76.8635 19.5523 76.7174 19.5811 76.5421C19.5811 76.4544 19.6099 76.3667 19.6387 76.2498C19.6675 76.1622 19.6963 76.0453 19.7539 75.9284C19.8115 75.8115 19.8691 75.7238 19.9267 75.6362C20.0131 75.5485 20.0995 75.4316 20.1859 75.3732C20.2723 75.2855 20.3875 75.2271 20.5027 75.1686C20.5603 75.1394 20.6179 75.1102 20.7043 75.0517L20.3299 74.8764C20.2435 74.8764 20.1859 74.9056 20.0995 74.9348C20.0131 74.9641 19.9267 74.9933 19.8403 75.0225C19.7539 75.0517 19.6387 75.081 19.5523 75.1394C19.4659 75.1686 19.3795 75.2271 19.2932 75.2855C19.2644 75.3147 19.2068 75.344 19.178 75.3732C19.1492 75.4024 19.1204 75.4316 19.0916 75.4901C19.034 75.5485 18.9764 75.6362 18.9476 75.7238C18.9188 75.8115 18.89 75.87 18.8612 75.9576C18.7748 76.0745 18.746 76.2206 18.746 76.3083C18.746 76.3959 18.746 76.4544 18.746 76.4544C18.746 76.4544 18.746 76.3959 18.746 76.3083C18.746 76.2206 18.746 76.0745 18.7748 75.9284C18.8036 75.7823 18.8612 75.5777 18.9764 75.4024C19.0052 75.3732 19.034 75.3147 19.0628 75.2855C19.0916 75.2563 19.1204 75.1978 19.178 75.1686C19.2644 75.081 19.3508 75.0225 19.4371 74.9641C19.5235 74.9056 19.6099 74.8472 19.7251 74.7887C19.7827 74.7595 19.8403 74.7303 19.8979 74.7011L19.4371 74.4965C19.322 74.4965 19.178 74.5257 19.034 74.555C18.9476 74.5842 18.8612 74.6134 18.7748 74.6426C18.6884 74.6718 18.5732 74.7011 18.4868 74.7595C18.4004 74.7887 18.314 74.8472 18.2276 74.9056C18.1988 74.9348 18.1412 74.9641 18.1124 74.9933C18.0836 75.0225 18.0548 75.0517 18.026 75.1102C17.9108 75.1686 17.882 75.2563 17.8244 75.3147C17.7957 75.4024 17.7669 75.4608 17.7381 75.5485C17.6805 75.6946 17.6805 75.8407 17.6805 75.9284C17.6805 76.0161 17.6805 76.0745 17.6805 76.0745C17.6805 76.0745 17.6805 76.0161 17.6805 75.9284C17.6805 75.8407 17.6805 75.6946 17.7093 75.5485C17.7381 75.4024 17.7957 75.1978 17.9108 75.0225C17.9396 74.9933 17.9684 74.9348 17.9972 74.9056C18.026 74.8764 18.0548 74.818 18.1124 74.7887C18.1988 74.7011 18.2852 74.6426 18.3716 74.5842C18.458 74.5257 18.5444 74.4673 18.6596 74.4088C18.746 74.3796 18.8324 74.3212 18.89 74.292C18.314 74.1459 17.6805 74.4089 17.3925 74.9348C17.3925 74.9641 17.3637 74.9933 17.3637 75.0225C17.3349 75.1102 17.3061 75.1686 17.2773 75.2563C17.0469 75.87 17.3349 76.5421 17.9108 76.8343Z" fill="white"/>
<path d="M29.0273 80.6313C28.9697 80.8358 28.8833 81.0111 28.7969 81.1865C28.9697 80.9527 29.1425 80.7189 29.2577 80.4267C30.064 78.5857 29.2001 76.1018 28.1057 75.6051C27.0402 75.1083 25.5139 76.1895 24.7076 78.0305C23.9012 79.8715 24.1316 81.7417 25.1971 82.2385C26.0035 82.5891 27.4146 82.443 28.3937 81.5956C28.4225 81.5371 28.4513 81.4787 28.4801 81.4202C28.5089 81.3326 28.5665 81.2449 28.5953 81.1572C28.6817 80.9819 28.7393 80.8066 28.7681 80.602C28.8257 80.3975 28.8257 80.1929 28.8257 79.9884C28.8257 79.7838 28.7969 79.5793 28.7105 79.3747C28.6529 79.1702 28.5665 78.9656 28.4513 78.7903C28.3649 78.6149 28.2497 78.4104 28.1345 78.2643C28.0193 78.0889 27.9042 77.9428 27.789 77.7675C27.6738 77.6214 27.5586 77.4753 27.4722 77.3292C27.1842 76.9493 27.1266 76.8324 26.9826 76.6863C26.925 76.6278 26.8674 76.5694 26.8098 76.511C26.7522 76.4525 26.7522 76.3648 26.8098 76.3064C26.8674 76.2772 26.8962 76.2187 26.9538 76.1895C27.069 76.1018 27.1842 76.0434 27.2994 76.0142C27.357 75.985 27.4146 76.0142 27.4434 76.0726C27.4722 76.1018 27.501 76.1895 27.5586 76.248C27.6738 76.4233 27.8178 76.6571 27.9905 76.9493C28.0769 77.0954 28.1633 77.2415 28.2785 77.4168C28.3649 77.5922 28.4801 77.7675 28.5665 77.9721C28.6529 78.1766 28.7681 78.3812 28.8545 78.5857C28.9409 78.7903 29.0273 79.024 29.0561 79.2578L29.0849 79.4332C29.0849 79.4916 29.0849 79.55 29.1137 79.6085C29.1137 79.6377 29.1137 79.6669 29.1137 79.6961V79.7838C29.1137 79.8423 29.1137 79.9007 29.1137 79.9591C29.1425 80.1929 29.0849 80.4267 29.0273 80.6313Z" fill="white"/>
<path d="M63.3544 80.37C62.8072 80.1362 62.1448 79.8732 61.3385 79.6979C60.4458 79.4933 59.6394 79.4349 59.0058 79.4641C58.9771 79.4641 58.8043 79.4349 58.6315 79.5225C58.5163 79.581 58.4587 79.6979 58.4299 79.844L57.4508 84.6072C57.422 84.7533 57.4508 84.8994 57.5083 85.0455L58.3147 86.6235C58.3723 86.7696 58.4011 86.9157 58.3723 87.0618L58.1131 88.2599C58.0843 88.3476 58.1419 88.4645 58.2571 88.4645C58.6027 88.4937 58.9771 88.5229 59.409 88.6106C59.8122 88.6982 60.1578 88.8151 60.4458 88.9028C60.4458 88.9028 60.5322 88.9028 60.5897 88.8736C60.6185 88.8443 60.6473 88.8151 60.6761 88.7567L60.9065 87.5586C60.9353 87.4125 61.0217 87.2664 61.1369 87.1787L62.4904 86.0683C62.6056 85.9806 62.692 85.8345 62.7208 85.6884L63.6999 80.9252C63.7863 80.6914 63.6136 80.4284 63.3544 80.37Z" fill="white"/>
<path d="M60.3883 89.0776C60.1003 88.9607 59.7835 88.873 59.4091 88.7854C59.006 88.6977 58.6028 88.6392 58.286 88.6392C58.1996 88.61 58.0844 88.6685 58.0844 88.7854L57.998 89.2821C57.5661 91.4446 55.4638 92.8472 53.3039 92.4089L16.0392 84.5189C15.7224 84.4605 15.4056 84.6358 15.2904 84.9573C15.204 85.1326 15.1464 85.3664 15.0888 85.6294C15.0312 85.8924 15.0024 86.0969 15.0024 86.3015C14.9736 86.6229 15.204 86.9444 15.5208 87.0028L52.7568 94.8635C56.2701 95.5941 59.6971 93.3148 60.4171 89.7789L60.5035 89.2821C60.5035 89.2237 60.5035 89.1945 60.4747 89.136C60.4747 89.1068 60.4171 89.0776 60.3883 89.0776Z" fill="white"/>
</g>
<defs>
<filter id="filter0_d" x="0" y="0" width="110" height="110" filterUnits="userSpaceOnUse" color-interpolation-filters="sRGB">
<feFlood flood-opacity="0" result="BackgroundImageFix"/>
<feColorMatrix in="SourceAlpha" type="matrix" values="0 0 0 0 0 0 0 0 0 0 0 0 0 0 0 0 0 0 127 0" result="hardAlpha"/>
<feOffset/>
<feGaussianBlur stdDeviation="7.5"/>
<feComposite in2="hardAlpha" operator="out"/>
<feColorMatrix type="matrix" values="0 0 0 0 1 0 0 0 0 0.866667 0 0 0 0 0 0 0 0 0.5 0"/>
<feBlend mode="normal" in2="BackgroundImageFix" result="effect1_dropShadow"/>
<feBlend mode="normal" in="SourceGraphic" in2="effect1_dropShadow" result="shape"/>
</filter>
</defs>
</svg>
