<svg width="24" height="24" viewBox="0 0 24 24" fill="none" xmlns="http://www.w3.org/2000/svg">
<rect width="24" height="24" rx="4" fill="#222222"/>
<path d="M13.1602 11.75L16.7812 8.16406L17.5195 7.42578C17.625 7.32031 17.625 7.14453 17.5195 7.00391L16.7461 6.23047C16.6055 6.125 16.4297 6.125 16.3242 6.23047L12 10.5898L7.64062 6.23047C7.53516 6.125 7.35938 6.125 7.21875 6.23047L6.44531 7.00391C6.33984 7.14453 6.33984 7.32031 6.44531 7.42578L10.8047 11.75L6.44531 16.1094C6.33984 16.2148 6.33984 16.3906 6.44531 16.5312L7.21875 17.3047C7.35938 17.4102 7.53516 17.4102 7.64062 17.3047L12 12.9453L15.5859 16.5664L16.3242 17.3047C16.4297 17.4102 16.6055 17.4102 16.7461 17.3047L17.5195 16.5312C17.625 16.3906 17.625 16.2148 17.5195 16.1094L13.1602 11.75Z" fill="#FFDD00"/>
</svg>
