<svg width="17" height="17" viewBox="0 0 17 17" fill="none" xmlns="http://www.w3.org/2000/svg">
<path d="M16.6875 12.1875L12.8125 8.28125C12.3125 7.8125 11.6875 7.5625 11.0312 7.5625C10.5625 7.5625 10.0625 7.6875 9.65625 7.96875L7 5.3125V3L3 0L1 2L4 6H6.28125L8.9375 8.6875C8.3125 9.65625 8.40625 10.9688 9.28125 11.8438L13.1562 15.7188C13.3438 15.9062 13.625 16.0312 13.875 16.0312C14.125 16.0312 14.375 15.9062 14.5625 15.7188L16.6875 13.5938C17.0938 13.2188 17.0938 12.5625 16.6875 12.1875ZM6 4.96875V5H4.5L2.3125 2.09375L3.09375 1.34375L6 3.5V4.96875ZM13.875 15L9.96875 11.125C9.6875 10.8438 9.53125 10.4688 9.53125 10.0625C9.53125 9.65625 9.6875 9.28125 9.96875 9C10.25 8.71875 10.625 8.5625 11.0312 8.5625C11.4375 8.5625 11.8125 8.71875 12.0938 9L16 12.9062L13.875 15ZM3 13.5C3 13.7812 3.21875 14 3.5 14C3.75 14 4 13.7812 4 13.5C4 13.25 3.75 13 3.5 13C3.21875 13 3 13.25 3 13.5ZM9.625 2.09375C10.3438 1.40625 11.2812 1 12.25 1C12.4688 1 12.6875 1.03125 12.9062 1.0625L10.75 3.25L11.1562 5.84375L13.75 6.25L15.9375 4.09375C16.125 5.28125 15.75 6.5 14.9062 7.375C14.625 7.65625 14.3125 7.875 13.9688 8.03125L14.6875 8.78125C15.0312 8.59375 15.3125 8.34375 15.5938 8.0625C16.7812 6.875 17.25 5.21875 16.8438 3.59375C16.7812 3.28125 16.5312 3.0625 16.25 2.96875C15.9375 2.90625 15.625 2.96875 15.4062 3.1875L13.4062 5.1875L12.0312 4.96875L11.8125 3.59375L13.8125 1.59375C14 1.375 14.0938 1.0625 14.0312 0.75C13.9375 0.46875 13.6875 0.21875 13.4062 0.15625C11.7812 -0.25 10.125 0.21875 8.9375 1.40625C8.53125 1.8125 8.21875 2.28125 8 2.78125V4.90625L8.6875 5.59375C8.375 4.3125 8.71875 3 9.625 2.09375ZM4.34375 14.625C3.8125 15.125 2.90625 15.125 2.375 14.625C1.84375 14.0625 1.84375 13.1875 2.375 12.6562L6.9375 8.09375L6.25 7.40625L1.6875 11.9688C0.75 12.875 0.75 14.4062 1.6875 15.3125C2.125 15.7812 2.71875 16 3.34375 16C4 16 4.59375 15.7812 5.03125 15.3125L8.21875 12.125C8 11.8438 7.84375 11.5312 7.71875 11.2188L4.34375 14.625Z" fill="black"/>
</svg>
