<svg width="24" height="18" viewBox="0 0 24 18" fill="none" xmlns="http://www.w3.org/2000/svg">
<path fill-rule="evenodd" clip-rule="evenodd" d="M7.548 18C16.6044 18 21.558 11.0741 21.558 5.06864C21.558 4.87149 21.558 4.67544 21.5436 4.4805C22.5072 3.83809 23.3388 3.04061 24 2.12794C23.1024 2.49566 22.1484 2.73712 21.1728 2.84345C22.2 2.27525 22.9692 1.38252 23.3376 0.329177C22.3704 0.858615 21.3132 1.23188 20.2104 1.43236C18.3456 -0.397415 15.2268 -0.486024 13.2432 1.2352C11.9652 2.34503 11.4216 3.9998 11.8188 5.57815C7.86 5.39428 4.1712 3.66862 1.6704 0.829818C0.3636 2.90659 1.032 5.56264 3.1956 6.8962C2.412 6.87516 1.6452 6.68022 0.96 6.328V6.38559C0.9612 8.54876 2.6136 10.4118 4.9104 10.8404C4.1856 11.0232 3.4248 11.0497 2.688 10.9179C3.3324 12.7699 5.1816 14.0381 7.2876 14.0746C5.544 15.3395 3.39 16.0262 1.1724 16.024C0.7812 16.0229 0.39 16.0019 0 15.9587C2.2524 17.2922 4.872 18 7.548 17.9967" fill="#FFDD00"/>
</svg>
